<?xml version="1.0" encoding="UTF-8"?>
<!DOCTYPE svg PUBLIC "-//W3C//DTD SVG 1.1//EN" "http://www.w3.org/Graphics/SVG/1.1/DTD/svg11.dtd">
<!-- Creator: CorelDRAW 2017 -->
<svg xmlns="http://www.w3.org/2000/svg" xml:space="preserve" width="113.803mm" height="70.811mm" version="1.1" style="shape-rendering:geometricPrecision; text-rendering:geometricPrecision; image-rendering:optimizeQuality; fill-rule:evenodd; clip-rule:evenodd"
viewBox="0 0 11380 7081"
 xmlns:xlink="http://www.w3.org/1999/xlink">
 <defs>
  <style type="text/css">
   <![CDATA[
    .fil0 {fill:#FEFEFE}
   ]]>
  </style>
 </defs>
 <g id="Layer_x0020_1">
  <metadata id="CorelCorpID_0Corel-Layer"/>
  <path id="Behance" class="fil0" d="M10277 1002l-2851 0 0 -708 2852 0 0 708 0 0zm-4750 2904c184,285 276,631 276,1037 0,420 -104,797 -315,1130 -134,220 -301,406 -501,556 -225,173 -492,292 -799,356 -308,64 -641,96 -1000,96l-3189 0 0 -7081 3420 0c862,14 1473,264 1834,754 217,301 324,662 324,1081 0,433 -109,779 -327,1042 -122,148 -301,282 -539,403 360,132 634,340 816,626zm-3894 -1115l1498 0c308,0 557,-59 749,-176 192,-117 287,-324 287,-623 0,-329 -127,-548 -380,-653 -218,-73 -497,-111 -836,-111l-1318 0 0 1562zm2678 2051c0,-368 -150,-622 -450,-759 -168,-78 -405,-117 -708,-120l-1520 0 0 1887 1496 0c307,0 545,-40 717,-124 310,-154 465,-448 465,-884zm7024 -1152c34,232 50,568 44,1007l-3693 0c20,510 196,866 530,1070 201,128 445,190 731,190 301,0 547,-76 736,-233 103,-83 194,-200 272,-348l1354 0c-35,301 -198,606 -491,917 -454,493 -1090,741 -1908,741 -675,0 -1270,-209 -1787,-624 -515,-417 -773,-1094 -773,-2032 0,-880 232,-1553 698,-2022 468,-470 1071,-703 1815,-703 441,0 838,79 1193,237 353,159 645,408 876,751 208,302 342,651 405,1049zm-1332 132c-25,-352 -143,-619 -354,-802 -210,-183 -473,-275 -786,-275 -341,0 -604,98 -791,291 -188,192 -306,454 -354,785l2285 0 0 0z"/>
 </g>
</svg>
