<?xml version="1.0" encoding="UTF-8"?>
<!DOCTYPE svg PUBLIC "-//W3C//DTD SVG 1.1//EN" "http://www.w3.org/Graphics/SVG/1.1/DTD/svg11.dtd">
<!-- Creator: CorelDRAW 2017 -->
<svg xmlns="http://www.w3.org/2000/svg" xml:space="preserve" width="486.508mm" height="101.077mm" version="1.1" style="shape-rendering:geometricPrecision; text-rendering:geometricPrecision; image-rendering:optimizeQuality; fill-rule:evenodd; clip-rule:evenodd"
viewBox="0 0 48651 10108"
 xmlns:xlink="http://www.w3.org/1999/xlink">
 <defs>
  <style type="text/css">
   <![CDATA[
    .fil0 {fill:#890B0B}
    .fil1 {fill:white;fill-rule:nonzero}
   ]]>
  </style>
 </defs>
 <g id="Слой_x0020_1">
  <metadata id="CorelCorpID_0Corel-Layer"/>
  <path class="fil0" d="M34248 6633l764 0 0 760 -764 0 0 -760zm-29700 -6520l764 0 0 760 -764 0 0 -760z"/>
  <path class="fil1" d="M3701 6086l-3701 0 0 -5974 791 0 0 5263 2910 0 0 711zm1611 0l-765 0 0 -4322 765 0 0 4322zm-765 -5974l765 0 -765 0zm6847 0l-2330 5974 -816 0 -2326 -5974 851 0 1883 5123 1891 -5123 847 0zm5181 5974l-4461 0 0 -5974 4325 0 0 711 -3534 0 0 1815 3304 0 0 711 -3304 0 0 2027 3670 0 0 711zm7133 104c-423,0 -792,-49 -1108,-148 -315,-100 -578,-239 -786,-419 -210,-181 -369,-394 -479,-641 -108,-247 -167,-521 -176,-819l760 0c22,226 82,422 182,589 99,165 227,303 382,411 156,110 334,188 536,241 202,51 419,76 647,76 224,0 426,-23 609,-70 182,-46 340,-114 470,-204 130,-88 229,-196 300,-321 71,-125 107,-266 107,-423 0,-162 -32,-301 -97,-416 -65,-114 -170,-215 -317,-300 -147,-83 -338,-161 -575,-229 -236,-68 -528,-137 -876,-210 -335,-76 -624,-162 -867,-260 -243,-99 -442,-213 -598,-345 -154,-131 -270,-281 -346,-450 -76,-170 -113,-366 -113,-589 0,-239 51,-460 154,-664 102,-202 247,-378 434,-524 187,-147 411,-261 672,-344 261,-83 550,-125 867,-125 335,0 640,42 916,124 277,80 514,199 715,354 201,156 358,345 471,567 113,221 175,473 182,752l-765 0c-80,-720 -576,-1081 -1485,-1081 -443,0 -785,83 -1024,247 -239,164 -360,386 -360,667 0,127 22,235 65,324 45,88 121,167 227,235 107,68 249,130 423,185 175,56 394,111 657,165 178,36 361,76 550,117 188,42 372,94 551,156 179,62 349,137 507,224 159,88 298,193 417,317 119,124 213,270 283,440 70,168 104,366 104,592 0,263 -56,504 -165,725 -110,221 -264,409 -462,568 -198,158 -431,281 -703,371 -272,90 -567,133 -887,133zm3312 -6077l2240 0c301,0 590,25 867,77 277,51 519,142 731,273 212,131 380,309 507,534 127,224 190,510 190,857 0,606 -190,1064 -570,1375 -380,312 -936,467 -1670,467l-1503 0 0 2390 -791 0 0 -5974zm791 2873l1522 0c253,0 468,-23 647,-73 178,-48 323,-119 436,-212 114,-94 196,-210 247,-349 51,-139 77,-298 77,-480 0,-219 -39,-399 -116,-536 -77,-137 -181,-243 -312,-318 -131,-76 -284,-127 -457,-154 -173,-26 -357,-40 -550,-40l-1494 0 0 2163zm7875 652l-1055 -2765 -1001 2765 2056 0zm1818 2448l-896 0 -692 -1815 -2503 0 -661 1815 -833 0 2289 -5974 860 0 2435 5974zm5589 -4163l-809 0c-12,-190 -62,-361 -150,-514 -88,-151 -202,-281 -345,-389 -141,-107 -307,-188 -497,-246 -190,-59 -395,-87 -615,-87 -303,0 -575,53 -817,158 -243,107 -450,261 -621,465 -170,204 -301,454 -392,752 -93,300 -139,643 -139,1032 0,386 46,731 139,1030 91,300 222,553 391,759 168,204 374,361 615,468 243,107 510,161 806,161 232,0 443,-29 635,-87 193,-57 358,-142 499,-255 141,-114 252,-252 337,-414 85,-164 136,-352 154,-567l809 0c-28,317 -107,599 -238,847 -131,247 -303,457 -516,630 -212,171 -460,301 -745,391 -283,90 -590,133 -922,133 -426,0 -811,-71 -1154,-216 -344,-145 -638,-352 -879,-623 -241,-270 -426,-596 -556,-978 -130,-382 -195,-808 -195,-1279 0,-470 65,-896 196,-1278 131,-382 318,-708 559,-976 241,-267 535,-476 879,-621 343,-147 726,-219 1149,-219 317,0 615,45 896,138 280,91 528,221 746,389 218,167 394,369 531,606 137,238 219,501 247,791zm5557 4163l-4461 0 0 -5974 4325 0 0 711 -3534 0 0 1815 3304 0 0 711 -3304 0 0 2027 3670 0 0 711zm-47903 4021c-471,0 -719,-185 -744,-557l310 0c1,210 145,315 431,315 64,0 121,-7 169,-21 49,-14 90,-33 122,-58 33,-25 57,-54 74,-87 17,-33 25,-70 25,-110 0,-41 -6,-74 -19,-99 -12,-25 -37,-48 -74,-67 -36,-19 -88,-38 -153,-57 -66,-19 -150,-42 -255,-70 -103,-25 -191,-51 -266,-76 -74,-25 -135,-56 -183,-93 -48,-36 -83,-80 -106,-133 -23,-53 -35,-120 -35,-201 0,-71 15,-137 46,-198 30,-61 73,-114 129,-159 56,-44 124,-80 204,-105 80,-25 168,-38 266,-38 455,0 687,162 694,485l-305 0c-11,-162 -133,-243 -365,-243 -52,0 -100,6 -144,15 -44,11 -83,25 -115,44 -33,19 -58,43 -76,72 -19,28 -27,61 -27,98 0,34 4,62 12,83 9,22 29,42 61,61 32,19 80,37 142,56 63,18 148,40 257,67 105,25 197,52 274,79 77,27 142,60 193,98 51,39 89,86 114,142 25,56 37,125 37,208 0,78 -16,151 -49,217 -33,67 -78,124 -138,174 -60,50 -132,88 -218,116 -86,28 -182,41 -288,41zm1725 -40c-34,9 -69,14 -106,18 -37,4 -75,6 -115,6 -92,0 -164,-11 -218,-33 -54,-22 -95,-56 -124,-101 -28,-44 -46,-100 -55,-166 -9,-67 -12,-144 -12,-232l0 -983 -214 0 0 -239 214 0 0 -431 308 0 0 431 282 0 0 239 -282 0 0 997c0,61 4,109 12,145 7,36 19,64 33,83 14,19 32,32 53,38 20,6 44,9 70,9 28,0 54,-1 80,-3 25,-2 50,-6 74,-9l0 232zm1354 -221c-154,174 -328,260 -520,260 -391,0 -587,-213 -587,-639l0 -1131 311 0 0 1115c0,72 6,133 19,184 12,50 31,91 57,123 26,32 59,56 99,70 41,15 89,22 146,22 172,0 331,-92 475,-277l0 -1236 306 0 0 1729 -306 0 0 -219zm1857 -281l0 -820c-138,-140 -290,-210 -458,-210 -132,0 -236,57 -315,169 -78,113 -118,283 -118,510 0,214 37,375 111,485 74,110 177,165 309,165 86,0 167,-25 246,-74 78,-49 153,-124 225,-226zm0 295c-140,164 -305,246 -494,246 -116,0 -218,-21 -307,-64 -88,-43 -163,-103 -224,-181 -61,-78 -107,-171 -138,-281 -31,-110 -46,-232 -46,-366 0,-142 19,-271 56,-385 38,-114 89,-211 155,-290 65,-80 143,-140 232,-183 88,-42 185,-63 289,-63 94,0 181,15 260,44 78,29 151,73 218,131l0 -793 306 0 0 2389 -306 0 0 -205zm1066 205l-306 0 0 -1729 306 0 0 1729zm0 -2056l-306 0 0 -333 306 0 0 333zm1155 284c124,0 237,20 337,61 100,41 185,101 256,179 71,78 125,173 163,285 38,112 57,240 57,382 0,143 -19,271 -57,384 -39,112 -94,207 -165,285 -71,78 -156,137 -256,177 -99,41 -211,61 -334,61 -121,0 -231,-20 -331,-61 -99,-40 -185,-99 -257,-175 -72,-77 -127,-171 -166,-284 -40,-113 -59,-242 -59,-386 0,-143 19,-270 57,-383 39,-113 94,-208 165,-285 71,-77 157,-137 257,-178 100,-41 211,-61 333,-61zm0 1571c72,0 139,-14 199,-42 61,-27 112,-69 156,-125 43,-56 77,-125 101,-208 24,-83 36,-180 36,-289 0,-110 -12,-206 -36,-290 -24,-83 -58,-153 -101,-208 -43,-56 -95,-97 -156,-125 -60,-28 -127,-42 -199,-42 -74,0 -141,14 -201,42 -61,28 -112,69 -156,125 -44,56 -77,125 -101,208 -24,83 -36,180 -36,290 0,109 12,206 36,289 24,83 57,153 101,208 43,56 95,98 156,125 60,28 127,42 201,42z"/>
 </g>
</svg>
