<?xml version="1.0" encoding="UTF-8"?>
<!DOCTYPE svg PUBLIC "-//W3C//DTD SVG 1.1//EN" "http://www.w3.org/Graphics/SVG/1.1/DTD/svg11.dtd">
<!-- Creator: CorelDRAW 2017 -->
<svg xmlns="http://www.w3.org/2000/svg" xml:space="preserve" width="200mm" height="73.263mm" version="1.1" style="shape-rendering:geometricPrecision; text-rendering:geometricPrecision; image-rendering:optimizeQuality; fill-rule:evenodd; clip-rule:evenodd"
viewBox="0 0 20000 7326"
 xmlns:xlink="http://www.w3.org/1999/xlink">
 <defs>
  <style type="text/css">
   <![CDATA[
    .fil0 {fill:black}
   ]]>
  </style>
 </defs>
 <g id="Layer_x0020_1">
  <metadata id="CorelCorpID_0Corel-Layer"/>
  <path class="fil0" d="M0 0l408 408 0 4708 816 -816 0 577 -816 816 -408 408 0 -577 0 -5524zm13196 2966l272 0 0 -577 408 408 0 168 272 0 0 71 -272 0 0 577 -408 -408 0 -168 -272 0 0 -71zm-8570 0l272 0 0 -577 408 408 0 168 272 0 0 71 -272 0 0 577 -408 -408 0 -168 -272 0 0 -71zm-2173 1737l-413 413 0 -4708 -408 -408 0 5524 0 577 408 -408 0 0 413 -413 403 -403 0 -4469 -408 -408 4 4703zm6932 1398l408 408 0 816 -408 -408 0 -816zm10614 -3652l0 577 0 0 0 1850 -1225 1225 0 -577 0 -5524 0 0 0 0 1225 1225 0 577 0 647zm-408 169l-408 -408 0 2906 408 -408 0 -2089zm-408 -986l408 408 0 -647 -408 -408 0 647zm-1225 -239l-408 -408 0 3722 408 408 0 -3722zm-408 -986l816 816 0 4300 0 577 -408 -408 -816 -816 0 -4300 0 -577 408 408zm-1225 5693l408 -408 0 -3652 -408 -408 0 4469zm-408 -4300l0 2906 0 461 -408 -986 0 -2790 -408 -408 0 4708 -408 408 0 -5524 0 -577 408 408 816 816 0 577zm-3266 419l0 577 -408 -408 0 2726 408 -408 0 577 -408 408 -408 408 0 -577 0 -3543 0 -577 0 -827 0 -577 408 408 0 0 408 408 0 577 -408 -408 0 827 408 408zm-1225 -1404l0 577 -408 -408 0 4131 408 -408 0 577 -408 408 -408 408 0 -577 0 -4947 0 -577 408 408 0 0 408 408zm-1633 5285l408 -408 0 -531 3 6 0 -461 0 -2906 0 -577 -816 -816 -408 -408 0 577 0 3317 -3 -3 0 577 3 3 0 1630 408 -408 0 -813 406 406 0 816zm3 -4708l-2 3315 -406 -406 0 -3317 408 408zm-8981 -1393l408 408 0 816 -408 -408 0 -816zm3266 2221l0 577 -408 -408 0 2726 408 -408 0 577 -816 816 0 -577 0 -3543 0 -577 0 -827 0 -577 816 816 0 577 -408 -408 0 827 408 408zm4490 -419l0 2790 0 116 0 461 -816 -816 0 1341 -408 408 0 -2157 0 -577 0 -2790 0 -577 408 408 816 816 0 577zm-408 2381l0 0 0 -2790 -408 -408 0 2790 408 408zm-1225 -1517l0 -577 -408 408 0 -1512 408 408 0 -577 -408 -408 0 0 -408 -408 0 396 0 181 0 1920 204 204 -204 204 0 577 408 -408 0 2041 -408 -408 0 577 816 816 0 -408 0 -169 0 -2210 -324 -324 324 -324zm-6123 -1442l408 408 0 2259 -408 408 0 -3075z"/>
 </g>
</svg>
