<?xml version="1.0" encoding="UTF-8"?>
<!DOCTYPE svg PUBLIC "-//W3C//DTD SVG 1.1//EN" "http://www.w3.org/Graphics/SVG/1.1/DTD/svg11.dtd">
<!-- Creator: CorelDRAW 2017 -->
<svg xmlns="http://www.w3.org/2000/svg" xml:space="preserve" width="103.435mm" height="44.319mm" version="1.1" style="shape-rendering:geometricPrecision; text-rendering:geometricPrecision; image-rendering:optimizeQuality; fill-rule:evenodd; clip-rule:evenodd"
viewBox="0 0 10344 4432"
 xmlns:xlink="http://www.w3.org/1999/xlink">
 <defs>
  <style type="text/css">
   <![CDATA[
    .fil2 {fill:none}
    .fil1 {fill:#E80303}
    .fil0 {fill:#E80303;fill-rule:nonzero}
   ]]>
  </style>
 </defs>
 <g id="Layer_x0020_1">
  <metadata id="CorelCorpID_0Corel-Layer"/>
  <path class="fil0" d="M3027 3548c2,-2 3,-4 5,-6 2,0 3,1 4,3 1,3 -1,1 0,3 4,6 6,4 12,4 1,-3 2,-6 3,-9 1,3 2,6 3,8 -1,3 -3,5 -4,8 -2,0 -4,1 -6,1 0,2 4,6 6,6 2,0 3,-1 5,-1 1,-2 2,-3 3,-5 1,3 3,6 4,8 4,3 9,6 13,9 0,-3 0,-6 0,-9 0,0 5,3 6,5 1,2 14,11 17,11 1,0 2,1 3,1 -4,3 9,4 10,4 7,1 54,4 57,6 4,3 13,10 15,14 2,4 19,17 23,18 1,0 3,1 4,1 34,19 72,41 105,62 4,3 8,6 13,9 4,1 7,3 11,4 3,0 6,0 9,0 2,2 3,4 5,6 -3,2 -5,4 -8,7 -1,2 3,3 5,4 2,0 3,0 5,-1 -1,1 -2,3 -3,4 -1,5 -5,7 1,8 7,1 6,-5 7,-11 3,-1 6,-3 9,-4 3,2 6,3 9,5 5,0 12,5 16,8 4,3 7,5 11,8 4,1 8,2 11,3 3,3 6,6 9,8 1,3 4,9 4,9 0,0 7,-3 9,-1 3,2 8,2 11,5 4,3 7,0 12,1 3,1 7,2 11,2 3,0 14,-11 17,-14 1,-1 2,-3 4,-4 22,-26 76,-92 100,-111 6,-3 10,-5 16,-7 8,-4 34,-27 42,-34 9,-8 16,-9 23,-20 6,-8 14,-14 23,-19 0,0 1,-7 6,-3 3,3 14,6 8,0 -4,-4 -7,-6 -12,-8 0,0 -6,-7 -4,-9 1,-2 1,-1 2,-3 1,-2 3,-1 1,-2 -2,-2 -3,-2 -6,-1 -4,2 -5,1 -5,-4 0,-2 0,-4 0,-5 0,0 2,-4 -2,-3 -3,1 -10,2 -10,2 0,0 -4,-7 -8,-7 -4,0 0,-2 0,-6 0,-4 -2,-3 -5,-4 -3,-1 -6,-2 -9,-2 -4,0 -15,-6 -15,-6 -8,-5 -5,-6 -15,-8 -4,-1 -10,2 -9,-5 1,-4 0,-7 -4,-9 -4,-3 -7,-6 -11,-8 -4,-3 -3,9 -3,10 -3,-2 -8,-5 -8,-9 0,-3 -8,-6 -8,-6 -2,-2 -4,-4 -6,-6 0,0 -6,1 -9,0 -3,-1 -9,-3 -9,-3 6,2 -70,-29 -71,-31 0,-1 -1,-1 -1,-2 -7,-4 -15,-9 -22,-13 -6,-3 -12,-6 -18,-9 -11,-6 -22,-12 -33,-19 2,-1 4,-2 6,-3 -6,-2 -18,-5 -23,-9 -3,-2 -9,-6 -12,-7 -4,-1 -8,-8 -13,-8 -5,0 -38,-12 -42,-15 -37,-22 -77,-42 -115,-63 3,-1 6,-1 9,-2 0,0 -5,-2 -7,-3 -2,-2 -7,-6 -7,-6 -2,-1 -3,-1 -5,-2 1,0 -7,-5 -6,-2 1,2 4,7 4,7 0,0 -10,-4 -15,-7 -7,-4 -17,-6 -24,-11 -18,-8 -15,2 -56,-24 -10,-7 -53,-35 -65,-36 -4,-3 -9,-5 -13,-8 -2,-3 -5,-6 -7,-9 -4,-5 -8,-9 -12,-14 -3,0 -5,1 -8,1 0,0 -6,-3 -9,-5 -2,-2 -5,-5 -7,-5 -10,-3 -29,-11 -29,-11 0,-2 0,-4 -1,-6 1,0 -14,-6 -19,-10 -2,-2 -7,-4 -12,-6l0 -1c3,-11 6,-21 10,-31 4,-3 8,-7 13,-10 -1,1 40,-72 41,-104 0,-10 0,-16 1,-26 2,-9 6,-15 13,-20 0,0 8,-20 13,-29 2,-5 5,-18 5,-18 4,-11 8,-23 11,-35 0,0 6,-6 8,-9 1,-1 12,-19 5,-9 0,0 17,-23 24,-33 8,-12 16,-29 19,-43 2,-3 5,-7 7,-10 8,-16 15,-33 23,-49 0,0 8,-23 15,-23 9,0 8,-2 14,-10 6,-7 18,-23 18,-23 1,-11 2,-22 3,-34 1,-7 11,-22 15,-28 -2,-2 -4,-3 -6,-5 0,-3 1,-5 4,-6 3,-1 1,1 3,-1 7,-7 6,-9 7,-18 -3,0 -7,-1 -10,-1 3,-2 7,-4 10,-6 3,1 5,2 8,4 0,3 1,5 1,8 2,0 8,-7 8,-9 0,-2 0,-4 0,-6 -2,-1 -3,-1 -5,-2 3,-3 7,-5 10,-8 4,-7 8,-13 11,-20 -3,1 -7,1 -10,2 0,0 4,-7 6,-9 3,-2 13,-21 14,-26 0,-2 1,-3 1,-5 3,4 5,-14 5,-14 2,-12 7,-71 10,-77 3,-6 11,-20 16,-25 5,-4 20,-32 21,-38 1,-2 1,-4 2,-6 26,-62 52,-126 79,-188 3,-7 7,-18 11,-25 1,-2 -1,2 -1,2 0,0 1,-2 1,-2 2,-6 3,-12 5,-17 0,-4 0,-9 0,-13 2,-3 5,-6 7,-9 2,3 5,6 7,8 3,0 4,-6 4,-9 0,-2 0,-4 -1,-6 2,1 3,2 5,2 6,0 8,4 9,-5 1,-10 -5,-6 -13,-4 -2,-4 -3,-7 -5,-11 2,-5 4,-10 6,-15 1,-8 6,-20 10,-27 3,-6 6,-13 9,-19 1,-6 2,-11 3,-17 3,-5 6,-11 10,-17 4,-3 10,-10 10,-10 -2,-4 -3,-8 -1,-12 3,-5 2,-12 5,-18 3,-6 -1,-10 1,-16 1,-5 2,-11 2,-16 -1,-4 -12,-13 -16,-15 -2,-1 -3,-2 -5,-2 13,6 -119,-60 -129,-75 -4,-6 -6,-11 -9,-16 -4,-6 -33,-31 -40,-37 -10,-8 -11,-15 -24,-20 -9,-4 -17,-11 -23,-20 0,0 -8,2 -4,-6 2,-4 5,-20 -1,-10 -4,6 -5,11 -7,18 0,0 -6,10 -9,8 -2,-1 -1,-1 -3,-2 -3,0 -1,-3 -3,0 -2,3 -2,5 0,8 3,4 1,6 -4,7 -2,1 -4,1 -6,2 -3,-1 -4,0 -3,3 1,4 3,11 3,11 0,0 -7,8 -7,13 0,5 -2,1 -6,3 -5,2 -3,4 -4,8 0,4 -2,8 -1,12 1,5 -6,22 -6,21 -5,11 -6,9 -7,22 0,5 3,12 -5,13 -5,1 -9,4 -10,9 -3,6 -6,11 -9,17 -3,6 10,0 11,0 -2,5 -5,12 -10,14 -3,2 -7,13 -7,13 -2,3 -4,7 -6,10 0,0 1,8 1,11 -1,4 -3,13 -3,13 0,-1 -10,38 -16,52 -3,6 -3,7 0,1 -5,14 -18,57 -23,67 -1,1 -2,2 -2,3 -5,13 -10,26 -16,38 -3,10 -7,19 -10,29 -6,17 -13,34 -20,51 -1,-2 -2,-5 -3,-7 -3,10 -5,24 -9,32 -2,4 -6,13 -7,17 -1,5 -9,12 -8,19 1,6 -12,49 -16,55 -24,51 -45,100 -71,150 0,-4 -1,-7 -1,-11 0,0 -3,6 -4,9 -2,3 -7,10 -7,10 -1,2 -2,5 -3,7 1,-1 -6,10 -3,8 3,-2 8,-7 8,-7 0,0 -6,14 -10,20 -6,10 -10,24 -16,34 -16,31 -12,36 -44,85 -14,21 -37,51 -48,72 -3,5 -11,20 -10,26 -2,5 -5,9 -7,14 -3,3 -6,6 -9,10 -5,6 -10,12 -15,18 0,3 1,6 1,10 0,0 -4,9 -6,13 -2,4 -6,8 -7,12l-2 6 -1 -13c0,0 -5,-30 2,-35 8,-6 6,-9 8,-20 2,-12 5,-38 5,-38 -4,-14 -9,-28 -13,-42 -2,-10 0,-34 0,-45 -3,-1 -5,-1 -8,-2 -1,-3 -1,-7 1,-10 2,-4 1,1 2,-4 3,-13 1,-15 -2,-27 -3,2 -6,4 -9,6 2,-5 4,-10 6,-14 3,0 6,-1 9,-1 1,3 3,6 4,9 2,-2 4,-15 3,-18 -1,-3 -2,-5 -3,-8 -2,0 -4,1 -6,1 2,-6 4,-12 5,-18 1,-12 1,-23 2,-34 -3,3 -6,7 -8,10 0,0 0,-11 2,-17 2,-6 3,-38 2,-45 0,-3 -1,-5 -1,-8 4,4 0,-15 -1,-23 -6,-32 -21,-86 -24,-115 0,-13 1,-34 4,-46 3,-11 4,-56 3,-68 0,-3 -1,-6 -1,-9 -3,-77 -6,-153 -11,-229 0,-19 -3,-38 -3,-57 0,-12 -1,-24 -2,-36 -1,-8 -3,-17 -4,-25 -2,-5 -4,-11 -6,-16 1,-5 1,-11 2,-16 3,2 7,4 10,6 2,-2 0,-11 0,-13 -1,-2 -2,-5 -4,-7 2,0 4,0 6,0 6,-5 9,0 5,-12 -4,-13 -6,-5 -13,3 -3,-3 -6,-7 -9,-10 -1,-7 -1,-15 -2,-22 -3,-10 -4,-29 -5,-40 0,-10 -1,-20 -1,-30 -2,-8 -4,-16 -5,-24 0,-9 0,-18 0,-27 2,-6 4,-19 4,-19 -4,-4 -7,-9 -7,-15 0,-8 -4,-16 -4,-25 0,-9 -5,-12 -7,-21 -2,-6 -3,-15 -6,-21 -2,-5 -16,-8 -21,-8 -2,0 -4,0 -6,0 11,0 -135,2 -149,-9 -7,-5 -10,-9 -16,-14 -5,-4 -45,-17 -53,-19 -13,-4 -16,-11 -30,-9 -11,1 -21,-3 -30,-9 0,0 -5,7 -6,-5 0,-4 -5,-29 -6,-12 0,7 3,27 3,27 0,0 0,16 -4,16 -3,0 -1,-1 -3,0 -2,2 -3,-3 -2,2 0,4 0,7 4,10 5,4 4,7 0,12 -1,2 -3,4 -4,6 -3,1 -3,4 -1,6 3,4 8,12 8,12 0,0 -2,15 1,21 2,6 -1,2 -4,8 -3,6 -1,7 0,12 2,5 2,11 5,16 4,7 5,31 5,30 1,15 -1,17 4,32 2,7 8,13 2,19 -5,5 -5,11 -4,18 0,9 1,18 1,27 0,9 9,-6 10,-8 0,7 1,18 -2,24 -2,5 1,21 1,21 0,5 0,11 0,16 0,0 5,9 6,13 1,6 4,18 4,18 6,41 20,115 22,154 0,2 -1,3 -1,5 0,2 0,5 0,7 2,15 2,33 3,48 1,14 3,28 4,42 2,27 3,53 4,80 -2,-2 -4,-5 -6,-7 2,16 6,35 6,51 0,9 0,21 1,30 2,9 -3,23 1,33 4,12 10,78 9,93 0,92 2,184 0,276 -2,-4 -4,-9 -6,-13 0,0 0,10 0,16 0,6 -2,19 -2,19 0,4 0,8 0,11 0,-2 -1,17 0,13 2,-5 4,-15 4,-15 0,0 1,23 0,34 -1,18 2,37 1,55 0,44 6,65 2,125 -2,29 -9,125 -4,154 0,10 -1,20 -1,30 -2,8 -3,15 -5,23 -2,12 -5,24 -7,35 2,4 3,8 5,12 0,0 0,14 -1,20 0,6 -2,13 -1,19 2,20 3,61 3,61 -2,3 -3,6 -5,8 0,0 1,29 0,44 -1,17 2,42 2,60 1,41 -2,88 1,129 2,9 -6,32 -4,44 1,4 3,28 2,30 5,1 11,3 13,8 2,19 2,41 7,59 3,14 1,37 5,49 4,13 9,51 9,66 1,38 -12,78 -3,118 1,4 7,32 -2,12 0,4 0,8 0,13 -2,10 -4,21 -6,31 -3,5 -6,10 -9,16 0,0 -1,17 3,13 4,-4 6,-19 6,-19 107,-4 214,-33 309,-80 -2,-9 -7,-33 1,-39 9,-3 10,-15 10,-23 0,-7 -2,-13 -1,-21 1,-12 1,-30 4,-41 2,-6 -8,-42 -8,-53 -1,-35 -10,-66 -8,-103 1,-18 2,-40 1,-60l4 2 7 14 0 -11c6,3 11,4 15,4 7,0 11,-1 18,0 6,1 10,5 11,11 0,0 13,7 19,11 3,2 14,5 14,5 10,4 20,9 30,13 0,0 6,7 10,10 18,13 36,26 55,39 8,5 17,7 26,8 2,1 4,3 6,4 10,4 21,7 31,11 0,0 15,3 14,10 -1,8 -1,5 4,11 4,4 14,12 14,12 8,-1 17,-1 25,-2 5,0 15,7 19,10zm1405 -1836c0,1 1,2 1,3 3,6 11,54 11,63 3,63 7,126 11,189 -2,-3 -5,-6 -7,-9 0,0 1,7 1,11 0,4 -1,13 -1,13 0,3 1,5 1,8 0,-1 0,12 1,9 1,-3 3,-11 3,-11 0,0 2,16 2,24 0,12 5,26 5,38 3,29 10,35 11,86 0,16 1,91 8,106 0,7 1,14 1,21 -1,5 -2,11 -3,16 -1,8 -3,16 -4,25 2,3 4,5 6,8 0,0 1,9 1,14 0,4 -1,9 0,13 4,14 8,42 8,42 -2,2 -3,4 -5,6 0,0 3,20 3,30 0,10 5,30 7,41 4,26 5,62 10,87 1,4 -4,23 -1,30 3,9 3,10 3,20 3,0 9,1 12,3 -13,7 -24,13 -25,13 -1,0 -2,0 -3,0 -9,3 -17,7 -26,11 -7,3 -13,7 -20,10 -13,6 -26,11 -40,17 1,-2 1,-4 2,-7 -7,4 -17,12 -25,15 -4,1 -12,4 -15,7 -4,3 -13,2 -17,8 -3,4 -41,27 -47,30 -51,23 -102,49 -153,74 2,-3 3,-6 5,-9 0,0 -6,3 -9,5 -4,2 -11,4 -11,4 -2,1 -4,2 -6,4 1,0 -10,4 -7,4 3,0 10,-1 10,-1 0,0 -12,8 -19,11 -7,3 -15,11 -21,13 -3,1 -6,4 -10,6l-6 4 -2 -56c-1,-20 -5,-41 -11,-61 0,-6 0,-11 0,-17 -4,-25 -7,-50 -11,-74 0,0 -8,-33 -1,-41 8,-8 5,-12 6,-24 1,-14 1,-44 1,-44 -6,-15 -11,-31 -17,-46 -3,-11 -3,-37 -4,-50 -3,-1 -5,-1 -8,-2 -1,-4 -2,-8 0,-12 2,-5 1,1 2,-5 2,-15 0,-17 -4,-30 -3,2 -6,5 -9,7 2,-6 3,-11 5,-17 3,-1 6,-1 9,-2 2,3 3,7 5,10 2,-3 3,-16 2,-20 -1,-3 -2,-5 -4,-8 -2,1 -4,1 -6,2 1,-7 3,-13 4,-20 0,-13 0,-25 -1,-38 -3,4 -5,8 -8,12 0,0 0,-12 1,-18 2,-7 0,-41 -1,-49 0,-3 -1,-5 -1,-8 4,4 -1,-16 -3,-24 -8,-33 -25,-89 -28,-119 0,-13 0,-35 3,-47 3,-11 3,-56 2,-68 0,-3 -1,-6 -1,-9 -2,-42 -3,-84 -5,-126l51 -3c9,-1 19,-5 26,-10 3,0 5,0 8,-1 11,-4 22,-7 32,-11 0,0 15,-8 18,-1 4,7 3,5 11,6 6,1 20,1 20,1 7,-6 13,-11 20,-17 4,-3 17,-4 22,-4 0,-3 0,-5 0,-8 2,-1 3,-2 5,0 2,2 -1,1 2,2 7,2 8,0 13,-4 -1,-3 -2,-6 -4,-9 3,2 5,3 8,5 1,3 1,6 2,9 -1,2 -3,3 -4,5 1,2 8,2 9,1 1,-1 2,-2 3,-4 0,-2 -1,-4 -1,-5 3,1 6,3 9,4 6,0 11,-1 17,-1 -2,-2 -4,-5 -6,-7 0,0 6,0 8,1 3,1 19,-1 22,-2 1,0 2,-1 4,-2 -2,5 11,-3 11,-3 7,-4 50,-31 54,-31 5,0 18,0 23,1 4,2 28,1 33,-1 1,-1 3,-1 4,-2l17 -3zm1300 1314c-3,0 -5,1 -7,1 -12,0 -25,6 -36,6 -27,4 -33,11 -83,15 -17,1 -86,5 -102,12 -7,1 -14,2 -20,2 -5,-1 -10,-2 -16,-3 -8,-1 -16,-2 -24,-3 -3,2 -5,4 -8,6 0,0 -9,1 -13,2 -4,0 -9,-1 -12,1 -13,4 -40,10 -40,10 -2,-1 -4,-3 -6,-4 0,0 -20,4 -29,5 -10,0 -29,6 -39,9l-6 1c4,-14 26,-98 23,-138 -1,-13 -3,-22 -3,-35 0,-13 4,-24 11,-35 0,0 6,-34 10,-51 2,-10 3,-34 3,-34 4,-26 8,-51 11,-77 0,0 7,-21 10,-32 12,-53 24,-105 35,-158 3,-18 6,-44 4,-62 1,-5 2,-11 3,-16 2,-24 3,-48 4,-72 0,0 -2,-32 6,-37 9,-6 7,-9 10,-20l1 -6 9 14c7,12 15,39 19,54 3,0 5,0 8,0 3,4 4,8 4,13 0,6 -2,-1 0,6 3,17 6,19 14,32 2,-3 4,-7 6,-10 0,7 1,14 1,20 -3,2 -5,3 -8,5 -3,-3 -5,-7 -8,-10 -1,4 3,20 5,23 2,3 4,6 6,8 2,-1 3,-2 5,-4 1,8 2,16 3,24 5,15 10,29 15,44 1,-5 2,-11 3,-16 0,0 5,14 6,22 2,11 16,48 21,58 2,3 3,6 5,9 -5,-4 8,20 13,29 26,45 63,99 85,144 5,12 10,25 15,38 1,3 2,8 2,11 0,7 13,41 17,48 1,2 3,5 4,7 21,47 41,95 61,144zm51 326c0,-3 0,-5 1,-8 2,-1 4,-2 7,0 3,2 -1,1 3,2 9,2 10,0 17,-4 -1,-3 -3,-6 -4,-9 3,2 6,3 10,5 0,3 1,6 1,9 -2,2 -4,3 -6,5 2,2 9,3 11,2 2,-1 3,-2 5,-4 0,-2 -1,-4 -1,-5 4,1 8,3 12,4l4 0 1 1c8,13 8,8 10,-1l8 0 -5 -5 11 9c4,9 7,19 11,28 8,13 16,35 21,50 4,12 8,24 12,36 5,9 9,18 14,27 3,10 6,21 9,31 0,7 2,22 2,22 5,4 9,8 11,14 3,9 8,16 11,25 3,9 8,10 12,18 3,5 7,13 11,17 3,3 18,3 23,2 2,0 4,-1 5,-2 -12,3 131,-35 147,-29 7,3 12,6 19,9 6,3 47,4 55,5 13,0 18,6 31,2 11,-3 21,-2 31,2 0,0 4,-8 7,3 1,4 10,24 8,9 -1,-8 -4,-16 -8,-23 0,0 -3,-15 0,-16 3,-1 2,1 3,-1 2,-2 3,2 2,-2 -1,-4 -2,-7 -6,-9 -5,-3 -5,-6 -3,-11 1,-2 2,-5 3,-7 3,-2 2,-4 0,-6 -4,-3 -11,-9 -11,-9 0,0 -2,-16 -6,-21 -4,-5 1,-3 2,-9 1,-7 -1,-7 -4,-13 -3,-5 -6,-12 -10,-16 -6,-7 -15,-34 -15,-32 -6,-17 -6,-21 -16,-37 -4,-7 -13,-14 -9,-23 3,-8 0,-16 -3,-23 -4,-11 -8,-23 -12,-34 -4,-12 -6,11 -6,13 -3,-9 -8,-22 -8,-31 0,-2 -1,-6 -2,-10 13,-1 25,-1 38,-2 8,0 16,0 24,-1 6,-1 11,-2 17,-4 4,-2 7,-4 11,-6 4,1 7,1 11,2 -1,3 -3,7 -4,10 1,2 7,1 9,0 2,-1 3,-2 5,-3 0,2 0,4 0,6 3,5 0,9 8,5 9,-4 3,-7 -2,-13 2,-3 5,-6 7,-9 5,0 10,-1 15,-1 7,-3 19,-4 27,-4 7,0 13,0 20,0 5,-2 11,-3 16,-5 6,0 12,1 18,1 4,2 13,4 13,4 2,-3 6,-6 10,-7 6,0 11,-3 17,-3 7,0 8,-5 14,-7 4,-1 10,-3 14,-6 3,-2 6,-17 6,-21 0,-2 0,-4 0,-6 0,14 0,-133 9,-149 3,-6 7,-10 10,-16 4,-6 13,-44 14,-52 3,-12 8,-16 7,-30 0,-11 2,-20 7,-30 0,0 -5,-6 3,-6 5,0 20,-4 8,-6 -6,-1 -13,0 -19,2 0,0 -11,-1 -11,-4 0,-2 1,-2 0,-3 -1,-2 2,-2 -1,-2 -3,0 -5,0 -7,3 -3,4 -5,4 -8,0 -1,-1 -3,-3 -4,-4 -1,-3 -2,-3 -4,-1 -3,3 -8,8 -8,8 0,0 -10,-2 -14,0 -4,2 -2,-2 -5,-5 -4,-3 -5,-1 -8,0 -4,1 -8,2 -11,5 -4,3 -21,5 -21,4 -11,1 -11,-2 -22,4 -5,2 -9,8 -13,1 -3,-4 -7,-6 -12,-4 -6,0 -12,0 -18,0 -6,0 4,9 5,10 -5,0 -12,1 -16,-2 -3,-2 -14,0 -14,0 -4,0 -7,-1 -11,-1 0,0 -6,5 -9,6 -4,1 -12,4 -12,4 11,-2 -97,21 -104,18 -1,0 -2,-1 -3,-1 -12,1 -24,2 -36,3 -9,1 -18,3 -28,4 -17,2 -35,3 -52,5 2,-2 3,-4 5,-6 -7,2 -16,4 -25,6l-18 -44c-7,-16 -15,-33 -22,-49 -12,-28 -24,-57 -36,-85 3,2 5,4 8,6 -8,-15 -18,-32 -24,-47 -3,-7 -7,-19 -11,-25 -4,-6 -5,-19 -12,-25 -3,-3 -12,-17 -15,-22 -12,-20 -29,-55 -38,-77 -49,-115 -94,-226 -136,-344 4,5 8,9 11,13 0,0 -5,-12 -7,-18 -2,-7 -6,-23 -6,-23 -2,-4 -3,-9 -5,-13l-6 -15c0,6 2,19 2,19 0,0 -10,-26 -14,-39 -6,-21 -17,-41 -23,-62 -19,-52 -31,-70 -49,-137 -9,-32 -34,-136 -49,-165 -3,-11 -6,-21 -9,-32 -1,-8 -2,-17 -3,-25 -2,-13 -3,-26 -5,-39 -3,-4 -6,-7 -8,-11 0,0 -4,-14 -6,-21 -1,-6 -2,-14 -5,-19 -8,-20 -23,-62 -23,-62 1,-3 2,-7 2,-10 0,0 -6,-17 -10,-32l7 -27c3,-11 6,-21 8,-33 1,-8 2,-16 3,-24 0,-6 -1,-11 -1,-17 2,-5 4,-10 6,-15 3,3 6,6 8,8 3,-1 3,-10 3,-13 0,-3 -1,-5 -1,-8 2,0 4,1 5,1 7,-3 9,2 8,-11 0,-14 -5,-6 -14,0 -2,-4 -4,-8 -6,-12 1,-7 3,-15 4,-22 -1,-12 3,-31 6,-42 2,-10 4,-21 6,-31 0,-9 0,-18 0,-27 2,-10 4,-20 6,-30 3,-7 8,-21 8,-21 -3,-6 -5,-12 -4,-18 1,-10 -1,-20 1,-31 1,-11 -3,-16 -4,-26 0,-8 -1,-18 -3,-26 -2,-6 -14,-13 -20,-13 -2,0 -4,0 -6,-1 10,1 -135,-17 -147,-30 -6,-7 -9,-13 -14,-19 -4,-6 -42,-25 -50,-29 -9,-4 -13,-10 -20,-13 -5,-14 -10,-27 -18,-40 -2,-3 -19,-30 -4,-13 -2,-4 -3,-9 -5,-13 -2,-11 -4,-23 -7,-34 1,-7 1,-13 2,-20 0,1 -6,-18 -8,-12 -2,6 2,22 2,22 -97,45 -185,115 -256,195 5,8 19,30 13,38 -8,6 -3,18 -1,26 2,7 6,12 9,20 4,12 10,29 11,41 0,6 22,37 26,48 13,33 31,60 41,96 5,19 13,47 22,65 -6,-7 -13,-13 -19,-20 0,0 10,33 17,48 5,9 10,21 12,31 -1,5 -2,11 -3,16 0,0 12,57 28,94l-1 5c-1,-3 -2,-5 -3,-8 -2,14 -5,31 -9,44 -2,7 -6,18 -7,25 -1,8 -9,19 -8,29 1,11 -12,75 -16,88 -26,99 -46,206 -59,307 -1,-6 -3,-12 -4,-18 0,0 -1,13 -2,20 -1,8 -5,24 -5,24 0,5 -1,10 -1,15l-1 18c2,-7 6,-20 6,-20 0,0 -2,31 -4,47 0,4 -1,8 -1,11 0,12 1,27 -1,39 -3,51 2,55 -10,124 -6,32 -30,145 -30,176 -2,12 -5,24 -7,36 -3,9 -7,18 -10,27 -5,14 -10,28 -15,43 1,5 1,10 2,16 0,0 -3,17 -5,25 -2,7 -5,15 -6,23 -2,25 -10,76 -10,76 -2,3 -5,6 -7,10 0,0 -5,36 -10,53 -5,21 -8,50 -11,73 -8,47 -21,101 -26,147 0,11 -12,33 -12,47l0 1 -2 -2c0,0 -11,0 -8,4 2,3 6,4 9,5 -1,9 -2,22 -3,23 4,2 8,4 10,7l1 7c-1,18 -4,37 -3,54 1,12 -4,34 -2,44 2,10 2,44 1,54 -2,22 -19,54 -12,78 1,4 5,18 -2,7 0,2 -1,4 -1,7 -2,5 -5,11 -7,16 -3,3 -6,5 -9,8 0,0 -1,9 3,7 3,-2 5,-6 6,-9 30,-1 61,-1 92,-1l2 4c0,0 5,-2 11,-4l13 0c1,1 2,1 2,3 2,8 9,8 16,8 5,0 8,-3 14,-3 8,0 21,-2 28,1 3,1 15,-5 25,-9 36,-1 71,-2 106,-4 -2,-5 -5,-16 3,-18 4,0 7,-1 9,-4l5 -1c-5,5 -10,9 -15,14 0,0 24,-2 33,-6 6,-2 15,-5 21,-6 3,2 7,4 10,6 0,0 59,-2 77,-15 6,-5 10,-8 17,-12 7,-3 13,-2 19,1 0,0 18,-3 27,-3 5,0 17,-5 17,-5 13,-3 27,-6 40,-9 0,0 12,2 17,1 29,-1 57,-3 86,-4 12,-1 23,-5 34,-10 3,0 6,0 10,-1 14,-4 28,-7 41,-11 0,0 19,-7 23,-1 5,7 5,5 14,6 8,1 25,1 25,1 9,-6 17,-11 26,-16 5,-3 22,-3 28,-4zm637 -1396c-3,0 -5,-1 -8,-1 -1,-2 -1,-5 0,-7 2,-3 1,1 2,-3 3,-9 1,-10 -3,-17 -3,1 -6,2 -9,4 2,-3 4,-6 6,-9 3,0 6,-1 9,-1 1,2 3,4 4,6 2,-1 3,-9 3,-11 -1,-2 -2,-3 -3,-5 -2,0 -4,0 -6,1 2,-4 3,-8 5,-11 0,-7 0,-15 1,-22 -3,2 -5,4 -8,6 0,0 0,-8 2,-10 2,-3 2,-24 1,-28 0,-2 -1,-3 -1,-5 4,3 -2,-14 -2,-14 -4,-10 -25,-65 -25,-71 0,-7 2,-22 4,-28 2,-5 4,-35 3,-41 0,-2 -1,-4 -1,-6 -2,-55 -5,-111 -6,-166 0,-7 0,-14 -1,-21 -1,-5 -2,-10 -3,-15 -2,-3 -4,-7 -5,-10 1,-3 1,-6 2,-10 3,1 7,2 10,4 2,-1 1,-6 0,-8 -1,-1 -2,-3 -3,-4 2,0 4,0 6,0 5,-2 9,0 6,-7 -4,-8 -7,-2 -13,2 -3,-2 -6,-4 -9,-6 0,-4 -1,-9 -1,-13 -3,-6 -3,-17 -3,-23 0,-6 0,-11 0,-17 -2,-5 -3,-9 -5,-14 0,-5 1,-10 1,-15 2,-3 5,-11 5,-11 0,0 -7,-4 -7,-8 0,-5 -3,-9 -4,-14 0,-5 -5,-6 -7,-11 -1,-4 -3,-8 -6,-11 -3,-3 -17,-5 -21,-4 -2,0 -4,0 -6,0 16,0 -130,3 -149,-5 -6,-2 -10,-5 -16,-8 -8,-4 -42,-8 -53,-10 -12,-2 -17,-6 -30,-5 -11,0 -20,-1 -30,-5 0,0 -6,4 -6,-2 0,-5 -5,-13 -6,-6 -1,5 0,9 2,13 0,0 -1,8 -4,8 -2,0 -2,-1 -3,0 -2,1 -2,-1 -2,1 0,3 1,4 3,5 4,2 4,4 0,6 -1,1 -3,2 -4,3 0,0 -5,1 -1,3 3,2 8,6 8,6 0,0 -2,8 0,11 2,3 -2,1 -5,4 -3,3 -1,3 0,6 2,3 2,6 5,9 3,3 5,16 4,16 1,10 -2,8 4,18 2,4 8,7 1,11 -4,2 -6,5 -5,10 0,5 0,10 0,15 0,5 9,-3 10,-4 0,4 1,10 -2,13 -2,2 0,12 0,12 0,3 -1,6 -1,9 0,0 5,5 6,8 1,3 3,10 3,10 -2,-8 18,84 16,89 0,1 -1,2 -1,3 1,11 1,21 2,32 1,8 2,17 3,25 1,16 2,32 3,47 -2,-2 -4,-3 -5,-5 2,9 5,22 5,31 0,5 -1,14 1,18 1,5 -3,14 1,20 3,5 10,51 10,58 1,59 4,120 6,179 -2,-3 -4,-6 -6,-9 0,0 1,7 1,10 0,4 -1,12 -1,12 0,3 0,5 1,8 0,-1 0,11 1,9 2,-3 4,-10 4,-10 0,0 2,15 1,23 0,12 4,25 3,36 2,28 9,33 8,84 0,16 -1,88 4,103 0,7 0,14 1,20 -1,5 -3,10 -4,15 -2,8 -3,16 -5,24 2,3 4,5 5,8 0,0 1,9 1,13 0,4 -1,9 0,12 3,13 7,40 7,40 -2,2 -3,4 -5,6 0,0 3,19 3,28 0,9 4,29 6,39 3,18 4,69 8,82 1,3 -4,22 -2,28 3,9 2,9 3,18 0,0 12,1 13,5 3,11 5,26 9,36 3,7 4,24 7,29 3,6 11,32 12,39 2,19 -9,46 1,68 2,4 7,17 -1,7 0,2 0,5 0,7 -2,6 -4,12 -6,17 -3,3 -6,6 -9,9 0,0 -1,9 3,7 4,-2 5,-6 6,-10 113,-8 196,-16 307,-49 0,0 -9,-21 0,-22 8,-2 9,-7 9,-14 0,-4 -2,-6 -2,-12 0,-7 0,-18 2,-24 2,-4 -10,-24 -11,-32 -3,-22 -13,-39 -12,-63 0,-10 -3,-42 -3,-42 4,5 9,10 13,15 0,0 -1,-23 -4,-31 -2,-6 -4,-14 -4,-20 2,-3 5,-6 7,-9 0,0 2,-57 -9,-75 -4,-7 -8,-10 -11,-17 -2,-7 -1,-13 3,-19 0,0 -2,-18 -1,-27 0,-5 -4,-17 -4,-17 -2,-13 -4,-27 -6,-40 0,0 3,-12 3,-17 1,-29 2,-57 3,-86 0,-12 -3,-23 -8,-34 0,-3 0,-6 0,-10 -3,-14 -5,-28 -8,-42 0,0 -6,-19 1,-23 8,-4 5,-4 7,-13 2,-7 3,-25 3,-25 -5,-9 -10,-18 -15,-27 -3,-6 -2,-22 -2,-29zm-662 -1095c2,1 5,1 7,2 0,0 2,2 0,2 -2,0 -1,0 -2,0 -4,3 0,4 2,6 3,0 6,0 9,1 -2,1 -4,1 -6,2 -3,0 -6,-1 -9,-1 -1,-1 -3,-2 -4,-3 -2,0 -4,2 -3,3 1,1 2,2 3,2 2,0 4,1 5,1 -2,1 -3,2 -5,3 0,3 -1,5 -1,8 3,0 5,-1 8,-1 0,0 0,3 -2,3 -2,1 -2,8 -2,10 0,1 1,1 1,2 -4,-1 1,5 1,5 2,3 23,27 23,28 0,2 -2,8 -4,10 -2,2 -4,12 -3,15 0,1 1,1 1,2 2,23 6,43 9,65 0,3 0,6 2,9 1,2 3,4 4,6 2,1 4,2 6,4 -1,1 -1,3 -2,4 -3,0 -7,0 -10,0 -2,1 -1,3 0,3 1,1 2,1 4,1 -2,0 -4,0 -6,1 -3,1 -9,1 -5,4 4,3 8,0 13,-2 3,1 6,1 9,2 1,2 1,4 2,5 3,2 4,6 5,10 0,2 1,5 1,7 2,2 4,3 6,5 0,2 0,5 0,7 -1,1 -4,6 -4,6 0,0 7,1 7,2 0,2 4,3 5,6 1,2 5,2 8,4 2,2 4,3 7,4 3,1 18,-2 21,-2 2,0 4,-1 5,-1 46,-10 101,-24 146,-30 5,0 11,0 16,-1 15,-1 37,-6 52,-9 10,-2 19,-3 30,-6 9,-2 30,-6 30,-6 0,0 5,-2 6,-1 0,2 5,3 6,0 1,-2 -3,-3 -3,-3 1,-2 2,-3 4,-3 1,0 2,0 3,-1 1,0 2,0 2,-1 0,-1 -3,-1 -4,-1 -4,0 -4,0 0,-2 1,-1 3,-1 4,-2 0,0 5,-1 1,-1 -3,0 -8,0 -8,0 0,0 2,-2 -1,-3 -2,0 3,-1 4,-2 3,-1 1,-1 0,-2 -2,0 -3,-1 -5,-1 -2,0 -5,-3 -5,-3 -1,-2 2,-2 -4,-3 -2,-1 -8,0 -2,-2 1,0 6,-2 4,-3 0,-1 0,-2 -1,-3 0,-1 -9,2 -10,2 0,-2 0,-2 2,-3 2,-1 0,-2 0,-2 0,-1 0,-1 1,-2 0,0 -4,0 -6,-1 -1,0 -4,-2 -4,-2 0,0 -19,-15 -18,-15 0,0 1,0 1,-1 -1,-2 -2,-4 -2,-5 -1,-1 -2,-3 -3,-4 -1,-2 -2,-5 -3,-8 2,0 4,1 6,1 -1,-1 -5,-4 -5,-5 0,-1 0,-2 -1,-3 -1,-1 2,-2 -1,-3 -2,-1 -10,-8 -10,-10 0,0 -7,-35 -6,-30 2,1 4,2 6,3 0,0 -1,-1 -1,-2 0,-1 1,-2 1,-2 0,0 0,-1 -1,-1 0,0 0,-2 -1,-2 -1,0 -4,1 -4,1 0,0 -2,-3 -1,-4 0,-1 -3,-6 -3,-7 -1,-2 -5,-1 -7,-7 -1,-2 0,-9 1,-12 1,-5 4,-20 0,-25 0,-2 0,-3 1,-5 1,-1 3,-2 4,-2 2,-1 4,-3 6,-4 -1,-1 -3,-2 -4,-4 0,0 0,-3 0,-4 0,-1 2,-2 1,-3 -2,-4 -4,-13 -4,-13 2,0 3,0 5,0 0,0 -1,-7 0,-8 0,-1 -2,-11 -2,-13 -1,-4 1,-24 -1,-26 -1,-1 6,-5 4,-8 -2,-4 -1,-3 -1,-7 0,0 -11,-5 -12,-6 -2,-5 -2,-10 -5,-14 -2,-3 -2,-9 -4,-12 -2,-2 -7,-13 -7,-16 0,-4 13,-13 6,-23 -7,-10 3,-1 2,-2 0,-1 1,-2 1,-2 2,-1 5,-3 7,-4 3,0 6,0 9,-1 1,-2 0,-3 -2,-3 -2,0 -5,0 -6,2 -98,-28 -199,-53 -297,-78 0,0 7,7 -2,5 -2,-1 -8,-3 -9,0 0,1 2,1 1,3 -1,2 -1,4 -4,5 -2,0 7,8 8,11 1,5 9,14 7,20 -1,4 -1,8 0,12 -4,-3 -7,-6 -11,-9 -1,3 -1,6 1,10 1,2 3,5 2,7 -2,0 -5,0 -7,0 -3,9 -4,17 2,25 3,3 6,5 8,9 3,4 -4,5 -4,5 0,0 0,6 -1,9 -1,2 2,7 2,7 1,5 1,10 2,15 0,0 -3,3 -4,5 -3,9 -7,19 -10,29 -1,5 1,11 5,15 0,1 -1,2 -1,3 1,6 3,12 4,18 0,0 1,2 1,3 1,3 0,5 -3,5 -6,-1 -4,-1 -8,2 -2,2 -3,5 -4,7 4,4 8,8 13,13 2,2 1,7 0,10zm2342 -131c-1,-2 -2,-5 -2,-7 0,0 1,-3 4,-2 2,1 0,1 2,1 7,0 5,-2 8,-6 0,0 0,-1 0,-1 -1,-1 -1,-2 -2,-2 -1,-1 -3,-4 -4,-5 1,0 1,1 2,1 2,1 4,1 5,2 1,3 3,5 4,8 -1,2 -1,4 -1,6 1,1 6,1 7,-1 0,-1 1,-3 1,-4 -1,-2 -2,-3 -3,-5 3,1 5,1 8,2 4,-2 8,-3 12,-5 -2,-2 -5,-4 -7,-6 0,0 4,-2 6,-1 2,1 14,-5 16,-6 1,-1 1,-1 2,-2 0,5 7,-5 7,-5 4,-5 26,-39 28,-40 3,-1 13,-4 16,-3 3,1 20,-4 22,-6 1,-1 2,-2 3,-2 25,-13 54,-28 80,-39 4,-1 6,-2 9,-4 0,0 0,0 1,0 3,-2 6,-5 10,-7 2,-2 3,-5 5,-8 2,0 5,0 7,0 0,3 0,7 1,10 1,2 4,0 5,-2 1,-1 1,-3 2,-4 1,2 1,4 2,5 3,4 3,9 6,4 4,-5 -1,-8 -5,-12 0,-3 1,-7 1,-10 3,-1 5,-2 8,-4 3,-4 9,-6 13,-7 3,-1 6,-2 10,-3 2,-2 4,-4 6,-6 3,0 5,0 8,-1 1,1 6,3 6,3 0,0 0,-7 2,-7 2,0 3,-4 5,-4 2,0 2,-5 3,-7 1,-2 2,-4 3,-6 1,-4 0,-17 0,-21 0,-2 0,-4 0,-6 -3,-36 -11,-117 -8,-149 2,-6 4,-10 6,-16 4,-10 7,-40 9,-53 2,-12 7,-17 7,-30 0,-10 3,-21 8,-30 0,0 -5,-6 4,-6 4,0 24,-2 10,-5 -8,-1 -13,-1 -21,1 0,0 -12,-1 -12,-4 0,-2 1,-2 0,-3 -1,-2 2,-2 -1,-2 -3,0 -5,0 -7,4 -2,4 -5,4 -8,0 -1,-1 -3,-3 -4,-4 -1,-3 -2,-3 -4,-1 -2,3 -7,9 -7,9 0,0 -9,-2 -13,1 -3,2 -2,-2 -5,-4 -4,-3 -4,-1 -7,1 -3,2 -6,3 -8,6 -3,3 -16,7 -16,7 -9,3 -9,0 -17,7 -3,3 -5,9 -10,4 -3,-3 -6,-4 -10,-2 -5,1 -9,2 -14,4 -5,1 5,8 7,9 -4,1 -9,3 -13,1 -3,-1 -11,3 -11,3 -3,0 -6,1 -9,2 0,0 -3,6 -5,7 -3,2 -8,6 -8,6 4,-2 -30,19 -36,21 -2,1 -22,17 -24,17 -1,0 -1,0 -2,0 -6,3 -12,6 -17,9 -4,3 -9,6 -13,8 -9,5 -17,9 -26,13 0,-2 0,-4 1,-6 -4,3 -11,10 -16,12 -2,1 -8,3 -10,5 -2,2 -9,1 -11,6 -2,4 -25,22 -30,24 -27,13 -57,30 -84,45 -5,3 -16,9 -16,9 1,-3 2,-6 3,-8 0,0 -4,3 -6,3 -2,1 -8,2 -8,2 -1,1 -3,2 -4,3 1,0 -7,3 -5,3 2,0 8,0 8,0 0,0 -8,6 -13,8 -7,3 -13,11 -20,13 -9,6 -5,12 -45,31 -9,4 -51,23 -56,32 -4,2 -7,4 -11,6 -3,0 -7,0 -10,1 -5,1 -10,1 -15,2 -1,2 -1,5 -2,7 0,0 -5,3 -7,4 -2,1 -5,1 -7,3 -60,19 -117,48 -169,84 0,0 9,45 0,49 -3,1 -5,4 -7,8 -2,1 -3,3 -4,5 -5,11 -3,-2 -3,0 -1,0 -2,1 -3,1 -3,-1 -6,-2 -8,-3 -2,-2 -4,-5 -6,-7 -3,0 -3,2 -1,4 1,2 3,4 5,4 7,19 14,38 21,56 0,14 1,30 -2,43 -2,9 11,53 12,67 4,44 15,85 15,131 1,28 2,58 6,86 -5,-10 -9,-20 -14,-30 0,0 2,43 5,63 3,13 5,27 5,41 -2,6 -4,12 -6,19 1,41 3,110 14,147 4,12 9,21 12,33 3,13 2,24 -1,36 0,0 3,34 3,52 0,10 5,33 5,33 3,26 6,51 9,77 0,0 -2,22 -1,33 1,55 3,110 4,165 1,23 4,44 10,66 0,6 0,12 0,18 4,27 7,54 10,80 0,0 8,36 1,44 -8,9 -5,13 -6,26 -1,15 -1,48 -1,48 5,17 11,34 16,51 4,13 3,41 3,55 3,1 5,1 8,2 1,4 1,8 0,13 -2,5 -1,-2 -2,5 -2,16 0,18 4,33 3,-3 6,-5 9,-8 -2,6 -4,12 -5,18 -3,1 -6,1 -9,2 -2,-4 -3,-7 -5,-11 -2,3 -3,18 -2,22 1,3 2,6 3,9 2,-1 4,-1 6,-2 -1,7 -3,15 -4,22 0,14 0,28 0,42 3,-4 5,-9 8,-13 0,0 0,14 -1,20 -2,9 -1,45 0,55 0,3 1,6 1,9 -4,-5 1,18 2,28 8,39 24,102 27,139 0,16 -1,41 -4,56 -3,16 -4,66 -3,82 0,4 1,8 1,11 1,34 1,69 2,103 -5,-7 -12,-16 -12,-16 -11,-18 -23,-35 -34,-53 0,0 -6,-17 -10,-25 -20,-40 -41,-81 -61,-121 -8,-16 -20,-32 -33,-45 -2,-4 -5,-9 -7,-13 -13,-18 -26,-37 -39,-55 0,0 -20,-24 -17,-32 4,-10 0,-12 -4,-22 -5,-12 -17,-36 -17,-36 -11,-10 -22,-20 -34,-30 -8,-7 -18,-29 -24,-39 -3,1 -5,1 -8,2 -3,-3 -5,-5 -5,-9 0,-5 2,1 0,-5 -4,-13 -7,-14 -16,-22 -2,3 -3,6 -5,10 -1,-5 -2,-11 -2,-16 2,-2 5,-4 7,-6 3,2 6,4 8,6 0,-3 -5,-15 -7,-17 -2,-2 -4,-3 -7,-5 -1,1 -3,3 -4,4 -2,-6 -3,-12 -5,-18 -6,-10 -11,-20 -17,-30 -1,4 -1,9 -2,13 0,0 -6,-10 -7,-15 -2,-6 -18,-33 -22,-39 -2,-2 -3,-4 -5,-6 5,2 -8,-13 -13,-18 -21,-22 -45,-44 -66,-66 -3,-3 -9,-7 -11,-10 -5,-7 -13,-22 -15,-30 -2,-8 -23,-41 -29,-48 -2,-2 -4,-4 -6,-6 -50,-69 -101,-137 -151,-206 0,-4 0,-7 -1,-10 -1,-8 -2,-15 -4,-23 -2,-5 -4,-10 -6,-15 1,-5 1,-10 2,-15 3,2 7,4 10,5 2,-2 1,-10 0,-12 -1,-2 -2,-4 -3,-7 2,0 4,0 6,0 6,-4 9,0 5,-11 -4,-12 -6,-4 -13,3 -3,-3 -6,-6 -9,-9 0,-7 -1,-13 -1,-20 -3,-10 -4,-26 -4,-37 0,-9 0,-18 0,-27 -2,-7 -3,-15 -5,-22 0,-8 0,-16 1,-25 2,-6 4,-18 4,-18 -4,-4 -7,-8 -7,-14 0,-8 -4,-15 -4,-24 0,-1 0,-2 0,-4 0,1 0,3 0,6 -1,-6 -4,-8 -6,-15 -1,-6 -2,-13 -5,-18 -2,-4 -16,-8 -21,-8 -2,0 -4,0 -6,0 13,0 -135,-7 -148,-17 -6,-5 -10,-9 -15,-13 -5,-4 -43,-18 -52,-20 -12,-4 -16,-11 -30,-10 -11,0 -21,-4 -30,-10 0,0 -6,6 -6,-4 0,-5 -3,-25 -5,-10 -1,7 -1,16 1,23 0,0 -2,14 -5,14 -3,0 -1,-1 -3,0 -2,1 -2,-2 -2,1 0,4 0,7 3,9 4,4 3,7 0,10 -2,2 -3,3 -5,5 -3,1 -3,3 -1,5 3,3 8,11 8,11 0,0 -3,13 -1,18 2,5 -2,2 -5,6 -3,5 -2,6 0,11 0,0 0,0 0,0l0 3c-29,16 -58,30 -66,30 -7,0 -13,-1 -19,-2 -7,0 -45,10 -53,13 -12,3 -19,0 -30,8 -9,6 -19,7 -30,7 0,-1 -2,8 -7,-1 -2,-4 -14,-18 -9,-6 3,7 7,13 12,18 0,0 5,12 3,13 -2,1 -2,0 -3,2 -1,2 -3,-1 -1,2 2,3 3,5 7,6 5,1 6,3 5,8 0,2 -1,4 -1,7 -2,2 -1,4 2,5 4,1 12,5 12,5 0,0 5,13 10,16 4,3 0,2 0,8 0,6 2,6 6,9 4,3 7,8 12,10 6,4 20,23 19,22 9,12 8,15 21,26 6,5 14,7 12,16 -1,7 2,13 7,18 5,8 11,16 16,24 6,8 4,-10 4,-13 4,6 11,16 13,23 1,6 13,20 13,19 3,5 7,11 10,16 0,0 10,6 13,10 5,5 14,15 14,15 16,19 37,43 57,66 1,12 2,24 4,37 2,23 2,46 3,69 -2,-2 -4,-4 -6,-6 2,14 6,31 6,44 0,7 0,19 1,26 2,8 -3,20 1,28 4,9 11,69 11,81 2,80 6,162 9,242 -2,-4 -4,-8 -7,-12 0,0 1,9 1,14 0,6 -1,17 -1,17 0,3 1,7 1,10 0,-2 0,15 1,11 1,-4 4,-14 4,-14 0,0 2,20 2,30 0,16 4,33 4,48 3,38 9,54 9,110 0,21 -1,116 6,136 0,9 1,18 1,27 -1,7 -2,14 -4,20 -2,11 -3,21 -5,32 2,3 4,7 5,10 0,0 1,12 1,18 0,5 -1,11 0,16 3,18 7,54 7,54 -2,3 -3,5 -5,8 0,0 3,26 3,38 0,14 4,38 6,53 3,36 4,78 9,112 2,7 -4,29 -2,39 1,3 5,24 3,26 4,1 12,2 13,7 3,16 4,35 10,51 4,11 3,32 8,42 4,10 11,45 12,56 3,31 -9,68 1,102 1,4 8,27 -1,11 0,3 0,7 0,11 -2,9 -4,18 -6,26 -3,5 -6,9 -9,14 0,0 -1,15 3,11 3,-3 6,-16 6,-16 106,-5 211,-31 307,-76 0,0 -9,-31 0,-34 9,-3 9,-13 9,-21 0,-6 -2,-11 -2,-18 0,-11 0,-26 2,-36 2,-5 -10,-36 -11,-47 -3,-31 -13,-58 -13,-90 0,-19 -1,-40 -4,-59 4,7 9,14 13,21 0,0 -1,-30 -4,-44 -2,-10 -4,-18 -4,-28 2,-4 5,-9 7,-13 0,0 3,-75 -10,-102 -4,-9 -8,-14 -11,-23 -3,-9 -2,-17 2,-25 0,0 -2,-24 -2,-36 0,-7 -4,-23 -4,-23 -2,-18 -4,-36 -6,-53 0,0 2,-15 2,-23 1,-38 1,-76 2,-114 0,-16 -3,-30 -8,-46 0,-4 0,-8 0,-13 -3,-19 -5,-37 -8,-56 0,0 -6,-26 0,-30 8,-6 5,-8 7,-18 2,-10 3,-33 3,-33 -5,-12 -10,-24 -15,-36 -3,-8 -2,-29 -2,-38 -3,0 -5,-1 -8,-1 -1,-3 -1,-6 0,-9 2,-4 1,1 2,-4 3,-12 1,-13 -3,-23 -3,2 -6,3 -9,5 2,-4 4,-8 6,-13l8 -1c22,35 44,71 66,107 -4,-3 -8,-6 -12,-8 0,0 6,9 8,13 3,6 8,17 8,17 2,3 4,6 6,10 -1,-2 8,15 7,11 -1,-5 -5,-16 -5,-16 0,0 13,19 18,30 9,16 22,31 30,47 25,40 40,54 69,109 14,26 60,117 79,139 5,9 10,18 15,28 3,8 5,15 8,23 4,12 9,23 13,35 3,3 7,6 10,8 0,0 7,12 10,18 3,5 5,12 9,17 13,17 35,52 35,52 0,3 0,7 0,10 0,0 16,25 23,38 8,15 23,36 33,51 22,34 44,76 67,108 6,6 11,30 19,39 2,3 17,21 16,24 4,-2 11,-3 15,0 11,14 22,32 35,44 9,9 19,29 28,36 8,7 28,30 37,42 -1,9 -2,17 -2,17 0,0 1,3 2,4 2,3 5,16 5,20 0,14 3,27 4,41 0,14 5,20 7,33 2,10 3,22 7,32 2,6 16,12 22,12 2,0 4,0 6,0 -3,0 8,0 27,0 2,3 5,6 6,3 0,-1 0,-2 0,-3 41,0 108,0 117,7 5,4 12,10 17,14 8,5 44,8 54,8 13,0 17,1 30,-2 9,-2 21,-4 29,-8 0,0 6,2 5,-4 -1,-5 -8,-34 2,-13 1,2 6,14 3,16 0,-1 3,-4 4,-4 2,0 2,0 3,0 2,-1 3,1 2,-1 0,-3 -1,-4 -4,-5 -5,-2 -4,-5 -1,-8 1,-2 3,-4 4,-5 3,-1 3,-3 1,-5 -3,-3 -9,-11 -9,-11 0,0 1,-17 -1,-24 -2,-7 2,-3 4,-9 3,-8 1,-9 0,-16 -2,-7 -2,-16 -5,-22 -1,-4 -5,-39 -4,-39 0,0 0,-4 0,-4 0,-20 1,-28 -3,-48 -2,-9 -7,-20 0,-28 5,-7 6,-16 5,-25 0,-12 1,-24 1,-35 0,-11 -9,8 -10,9 0,-8 0,-22 4,-29 3,-6 1,-22 1,-22 1,-5 1,-10 2,-15 0,0 -4,-8 -5,-11 0,-1 -2,-10 -2,-10 0,0 -1,-6 0,-5 -3,-62 -11,-145 -10,-204 0,-2 1,-4 1,-6 0,-23 0,-46 -1,-70 -1,-18 -1,-36 -2,-54 -1,-34 -1,-68 -2,-101 2,3 4,6 5,10 -2,-21 -5,-44 -5,-65 0,-12 1,-27 -1,-38 -2,-13 3,-29 -1,-42 -6,-19 -11,-96 -11,-119 -3,-118 -8,-237 -14,-355 2,6 5,11 7,17 0,0 -1,-13 -1,-20 0,-8 1,-24 1,-24 0,-5 -1,-10 -1,-15l-1 -17c-1,7 -3,20 -3,20 0,0 -3,-29 -3,-44 0,-23 -5,-47 -6,-70 -4,-55 -12,-93 -14,-160 -1,-30 -4,-169 -12,-196 -1,-13 -1,-26 -2,-38 1,-10 2,-20 3,-29 1,-15 2,-30 3,-46 -2,-5 -4,-10 -6,-15 0,0 -1,-17 -2,-26 0,-8 1,-16 -1,-24 -4,-25 -10,-77 -10,-77 1,-4 3,-8 4,-11 0,0 -4,-37 -5,-55 -1,-23 -6,-52 -8,-75 -5,-52 -7,-109 -13,-160 -3,-13 4,-40 0,-55 -1,-4 -6,-35 -4,-37 -5,-1 -12,-3 -13,-9 -4,-23 -5,-49 -11,-72 -3,-11 -3,-26 -5,-40l8 -6c0,0 8,-1 11,-2 17,-7 33,-14 50,-21 8,-4 12,-9 17,-17 2,-1 4,-2 6,-2 7,-6 14,-12 21,-19 0,0 9,-11 13,-6 5,5 3,4 10,3 4,0 15,-4 15,-4 3,-7 6,-14 10,-21 2,-4 12,-8 16,-9zm1878 2165c-2,-1 -5,-1 -7,-2 0,0 -2,-2 0,-3 2,-1 1,0 2,-1 3,-3 0,-5 -2,-7 -3,0 -6,0 -9,0 2,-1 4,-2 6,-3 3,0 6,1 9,1 1,1 3,2 4,3 2,0 4,-3 3,-4 -1,-1 -2,-2 -3,-3 -2,0 -4,0 -5,-1 2,-1 4,-2 5,-4 1,-3 1,-6 2,-9 -3,0 -6,1 -8,1 0,0 1,-3 2,-4 2,-1 3,-9 2,-11 0,-1 -1,-1 -1,-2 4,2 -1,-6 -1,-6 -2,-4 -20,-33 -19,-35 1,-3 4,-10 6,-11 2,-2 7,-15 6,-18 0,-1 0,-2 -1,-3 0,0 5,-57 12,-83 1,-4 2,-7 2,-12 0,-3 -1,-6 -1,-9 -1,-2 -3,-5 -4,-7 1,-2 2,-3 4,-5 3,2 6,3 9,5 2,0 2,-3 1,-4 -1,-1 -2,-2 -3,-3 2,0 4,1 5,1 4,0 9,3 6,-3 -3,-6 -7,-3 -13,-3 -3,-2 -5,-4 -8,-6 0,-3 1,-5 1,-8 -2,-4 0,-10 1,-15 1,-3 2,-7 3,-10 -1,-3 -1,-6 -2,-10 1,-3 3,-6 4,-9 2,-1 6,-6 6,-6 0,0 -6,-5 -5,-7 1,-3 -2,-7 -1,-10 1,-4 -3,-6 -4,-10 -1,-3 -1,-7 -3,-9 -2,-3 -16,-8 -19,-9 -2,-1 -4,-1 -5,-2 -36,-11 -111,-31 -142,-46 -5,-3 -9,-7 -13,-10 -9,-6 -37,-18 -48,-23 -11,-5 -16,-10 -28,-12 -8,-2 -28,-12 -28,-12 0,0 -6,1 -5,-3 1,-4 -1,-12 -4,-6 -2,4 -2,7 -1,11 0,0 -3,6 -6,5 -2,0 -2,-1 -3,-1 -2,0 -2,-2 -2,0 -1,3 0,3 2,5 4,3 3,4 -1,5 -2,0 -3,1 -5,1 0,0 -5,-1 -2,2 2,2 6,7 6,7 0,0 -4,5 -2,8 1,3 -2,1 -5,2 -4,1 -2,2 -1,5 1,3 1,5 3,7 2,3 1,13 1,12 -1,7 -4,5 0,13 1,3 6,7 -1,7 -3,0 -6,1 -6,5 -1,3 -2,7 -3,10 -1,3 9,0 10,0 -1,3 -1,7 -5,8 -3,1 -2,7 -2,7 -1,2 -2,4 -3,6 0,0 4,4 4,6 1,2 2,7 2,7 0,-2 4,55 2,57 0,0 -1,1 -1,1 -1,6 -2,12 -3,18 0,5 0,10 0,14 -1,9 -2,17 -3,26 -2,-1 -3,-2 -5,-4 1,4 2,13 1,17 -1,2 -2,8 -1,9 1,2 -4,7 -1,10 2,3 5,28 4,31 -4,28 -5,59 -7,87 -2,-2 -4,-4 -6,-5 0,0 0,3 0,5 0,2 -2,6 -2,6 0,1 0,2 0,4 0,0 -1,5 0,4 2,-1 4,-4 4,-4 0,0 1,8 0,11 -1,5 2,13 2,18 0,4 9,2 5,41 -1,9 -4,41 1,49 0,3 0,7 0,10 -1,2 -3,5 -4,7 -2,4 -4,7 -5,11 2,1 3,3 5,4 0,0 1,5 0,7 0,2 -1,4 -1,6 1,1 1,3 2,5l-35 4c-10,2 -20,3 -31,5 -19,3 -39,4 -58,6 2,-2 3,-4 5,-6 -11,3 -26,7 -38,8 -6,0 -17,1 -22,2 -6,2 -17,-2 -25,3 -7,4 -61,14 -70,15 -71,7 -144,16 -215,24 3,-2 7,-5 10,-7 0,0 -8,1 -12,2 -5,0 -15,0 -15,0 -3,1 -6,1 -9,2 2,0 -14,1 -10,2 4,1 13,3 13,3 0,0 -18,3 -27,4 -14,1 -29,6 -43,7 -34,5 -46,13 -99,17 -20,2 -104,8 -122,15 -8,1 -16,2 -24,3 -6,-1 -12,-1 -18,-2 -10,-1 -19,-2 -29,-3 -3,2 -6,4 -9,6l-1 0c-1,-21 -1,-42 -2,-58 -1,-152 -7,-306 -13,-458 2,7 5,15 7,22 0,0 -1,-18 -1,-27 0,-11 0,-32 0,-32 0,-7 -1,-13 -1,-20 0,-7 -1,-27 -2,-22 -1,9 -3,27 -3,27 0,0 -3,-39 -3,-59 -1,-31 -6,-63 -7,-94 -4,-53 -9,-99 -13,-151 3,-3 5,-7 7,-10 2,-1 3,-2 5,-2 6,-6 12,-12 18,-18 0,0 7,-10 12,-5 5,5 3,4 10,3 4,0 14,-4 14,-4 3,-7 5,-13 8,-20 2,-4 11,-7 14,-9 -1,-2 -2,-5 -2,-7 0,0 1,-3 4,-2 2,1 0,1 2,1 6,0 6,-2 8,-7 -2,-2 -4,-5 -5,-7 2,1 5,2 7,3 1,3 3,5 4,8 0,2 -1,4 -1,5 1,1 6,1 7,-1 0,-1 1,-3 1,-4 -1,-2 -2,-3 -3,-5 3,1 5,1 8,2 4,-2 8,-3 12,-5 -2,-2 -4,-4 -7,-6 0,0 4,-2 6,-1 2,1 13,-4 15,-6 1,-1 1,-1 2,-2 0,5 7,-5 7,-5 3,-5 25,-38 28,-39 3,-1 13,-3 16,-2 3,1 19,-3 22,-6 1,-1 2,-1 3,-2 24,-12 57,-27 81,-36 4,-1 7,-2 10,-4 2,-2 4,-4 6,-5 1,-2 2,-4 3,-7 2,0 3,1 5,1 0,3 1,7 1,10 1,2 3,0 4,-1 0,-1 1,-3 1,-4 0,2 1,4 1,5 2,3 2,9 5,4 3,-5 -1,-8 -4,-13 0,-3 0,-6 0,-9 2,-1 4,-2 6,-3 2,-3 6,-5 10,-6 3,-1 5,-1 8,-2 2,-2 3,-4 5,-6 2,0 5,0 7,0 1,1 6,3 6,3 0,0 0,-7 2,-7 2,0 3,-4 5,-5 2,0 2,-5 3,-8 2,-2 3,-4 4,-6 1,-3 -1,-18 -2,-21 0,-2 -1,-4 -1,-5 -8,-41 -22,-108 -24,-147 0,-6 1,-11 2,-16 1,-13 -2,-39 -3,-53 -1,-11 1,-19 -2,-30 -2,-8 -1,-30 -1,-30 0,0 -3,-5 1,-6 4,-1 8,-6 3,-6 -4,0 -6,1 -9,4 -2,0 -6,-1 -6,-3 0,-2 0,-2 -1,-3 -1,-2 0,-3 -1,-2 -2,0 -3,2 -3,4 -1,4 -2,4 -4,1 -1,-1 -2,-3 -3,-4 0,0 -1,-5 -2,-1 -1,3 -3,9 -3,9 0,0 -5,-1 -7,1 -1,2 -1,-2 -3,-4 -3,-3 -3,-1 -4,1 -2,2 -4,3 -5,6 -1,3 -9,6 -9,6 -6,2 -5,-1 -10,6 -2,3 -3,9 -6,3 -2,-3 -4,-5 -7,-3 -3,1 -6,2 -9,2 -3,1 4,8 5,9 -3,1 -6,2 -9,0 -2,-2 -7,2 -7,2 -2,0 -4,0 -6,1 0,0 -2,5 -3,7 -2,2 -5,5 -5,5 2,-1 -47,33 -50,32 -1,0 -1,0 -2,0 -6,3 -12,5 -19,8 -5,3 -9,5 -14,8 -9,5 -19,9 -28,13 0,-2 1,-4 1,-6 -4,3 -12,10 -17,12 -3,1 -9,3 -11,5 -2,2 -10,1 -12,6 -2,4 -27,22 -31,24 -27,13 -56,28 -83,43l0 -3c1,-13 1,-26 2,-39 1,-20 2,-40 2,-61l-1 -3c6,-5 11,-11 16,-18 2,-1 5,-3 7,-4 9,-8 18,-16 28,-24 0,0 12,-13 17,-9 6,5 5,3 13,1 6,-1 20,-7 20,-7 0,-1 4,-7 4,-7 0,0 9,-15 10,-17 3,-4 16,-10 21,-12 -1,-2 -2,-5 -2,-7 1,-2 3,-3 5,-2 3,1 0,1 3,1 8,-1 8,-3 12,-9 -2,-2 -4,-5 -7,-7 3,1 7,1 10,2 1,3 3,5 4,8 -1,2 -2,4 -3,6 2,1 9,-1 10,-2 1,-2 2,-3 2,-5 -1,-2 -2,-3 -3,-5 4,0 7,0 11,0 6,-3 12,-5 17,-8 -3,-2 -6,-3 -8,-5 0,0 6,-3 9,-2 3,0 20,-7 23,-10 1,-1 2,-2 3,-3 0,5 11,-7 11,-7 7,-7 43,-46 47,-48 5,-2 19,-6 24,-6 5,0 30,-8 34,-11 1,-1 3,-2 4,-3 43,-19 90,-41 134,-57 6,-2 12,-4 17,-7 4,-2 7,-5 11,-7 2,-3 4,-5 6,-8 3,0 6,0 9,-1 0,4 0,7 0,11 2,2 5,-1 6,-2 1,-1 2,-3 2,-4 1,2 1,4 2,5 3,4 3,9 7,3 5,-6 0,-8 -6,-12 1,-3 1,-7 2,-10 3,-2 7,-3 10,-5 4,-4 12,-7 18,-9 5,-1 9,-3 14,-4 3,-3 6,-5 9,-8 4,-1 8,-2 12,-3 3,1 10,2 10,2 0,0 1,-7 5,-8 4,-1 6,-5 10,-7 4,-1 4,-6 7,-9 3,-2 6,-5 7,-8 1,-3 -1,-18 -2,-21 -1,-2 -1,-4 -2,-5 -10,-35 -34,-113 -38,-144 0,-6 1,-11 2,-17 1,-10 -4,-42 -6,-53 -2,-12 0,-18 -4,-30 -3,-10 -4,-20 -4,-30 0,0 -5,-4 0,-6 4,-1 10,-8 3,-7 -5,1 -7,2 -11,5 0,0 -8,1 -9,-2 -1,-2 0,-2 -1,-3 -1,-2 0,-3 -1,-2 -3,1 -3,2 -4,5 0,5 -2,5 -5,2 -1,-1 -3,-2 -4,-3 0,0 -2,-4 -3,0 -1,3 -3,9 -3,9 0,0 -7,0 -9,3 -2,3 -2,-1 -5,-3 -4,-2 -3,0 -6,2 -2,2 -5,4 -6,7 -2,3 -13,9 -13,8 -8,3 -7,0 -14,8 -3,3 -4,9 -9,4 -3,-3 -6,-4 -10,-2 -4,1 -9,3 -13,4 -4,1 6,7 7,8 -4,1 -8,3 -12,1 -3,-1 -10,3 -10,3 -3,1 -6,1 -8,2 0,0 -3,6 -5,7 -3,2 -8,6 -8,6 7,-4 -70,43 -74,43 -1,0 -2,0 -3,0 -9,4 -18,8 -28,12 -7,4 -14,7 -21,11 -14,7 -28,13 -41,19 1,-2 1,-4 2,-7 -7,5 -18,13 -26,16 -4,2 -13,5 -16,7 -4,3 -14,3 -18,8 -3,5 -41,28 -48,31 -51,23 -105,51 -154,78 2,-3 3,-6 5,-10 0,0 -6,4 -9,5 -4,2 -11,4 -11,4 -2,1 -4,3 -6,4 1,0 -10,5 -7,5 3,0 10,-1 10,-1 0,0 -8,5 -15,9 -5,-59 -8,-122 -15,-180 -3,-17 3,-46 -1,-66 -1,-5 -6,-41 -5,-43 -6,-1 -12,-4 -14,-10 -4,-23 -5,-47 -10,-69l16 -8c0,0 13,-2 19,-4 31,-10 63,-20 94,-30 13,-4 25,-11 35,-20 4,-1 7,-2 11,-3 15,-8 29,-15 44,-23 0,0 19,-13 26,-8 7,6 7,3 17,2 9,-1 28,-6 28,-6 8,-8 17,-16 25,-24 6,-5 24,-10 32,-12 0,-3 -1,-5 -1,-8 2,-2 5,-3 8,-2 4,1 -1,1 4,1 11,0 11,-3 18,-9 -2,-2 -5,-5 -7,-7 4,1 8,1 12,2 1,3 2,5 4,8 -2,2 -4,4 -5,6 2,1 11,0 13,-2 1,-2 3,-3 4,-5 -1,-2 -2,-3 -3,-5 5,0 9,0 14,1 8,-2 17,-5 25,-7 -3,-2 -6,-4 -10,-5 0,0 8,-2 12,-2 4,0 28,-7 32,-9 2,-1 3,-2 5,-3 -1,4 11,-3 16,-7 12,-8 65,-46 73,-48 8,-2 25,-6 33,-6 7,0 41,-8 47,-11 2,-1 4,-2 6,-3 63,-20 127,-42 191,-61 8,-2 17,-4 25,-8 6,-3 11,-5 17,-8 3,-3 7,-6 10,-8 4,0 8,-1 12,-1 -1,4 -1,7 -2,11 2,2 8,-1 9,-2 1,-2 3,-3 4,-5 0,2 1,4 1,5 4,5 2,9 10,3 8,-6 1,-7 -5,-12 2,-4 3,-7 5,-11 5,-2 10,-3 15,-5 7,-5 19,-8 27,-11 7,-2 13,-4 20,-5 5,-3 10,-6 15,-9 6,-1 12,-2 18,-4 4,1 14,1 14,1 2,-4 4,-8 8,-9 5,-1 10,-6 16,-8 6,-2 7,-7 12,-10 4,-2 9,-5 12,-9 3,-3 1,-18 0,-22 0,-2 -1,-4 -1,-5 4,14 -34,-128 -29,-146 2,-7 4,-12 6,-18 2,-7 1,-45 0,-54 -1,-13 3,-18 -1,-31 -3,-10 -3,-20 -1,-31 0,0 -6,-4 2,-6 5,-1 17,-9 6,-7 -6,1 -11,3 -17,7 0,0 -11,2 -12,-1 -1,-2 0,-2 -1,-3 -2,-2 1,-3 -2,-2 -3,1 -5,2 -6,5 -1,5 -4,5 -8,2 -2,-1 -3,-2 -5,-3 -1,-2 -3,-3 -4,0 -2,3 -6,10 -6,10 0,0 -10,0 -14,4 -3,3 -2,-1 -6,-3 -5,-2 -5,0 -8,2 -3,2 -7,4 -10,7 -3,4 -20,10 -19,9 -11,4 -11,1 -21,9 -4,3 -7,10 -13,5 -4,-3 -8,-4 -13,-1 -6,2 -12,3 -18,5 -6,2 6,7 8,8 -5,1 -12,4 -17,2 -4,-1 -14,4 -14,4 -4,1 -8,1 -12,2 0,0 -5,6 -8,8 -4,2 -11,7 -11,7 12,-6 -97,45 -104,45 -1,0 -2,0 -4,0 -13,4 -25,8 -38,12 -10,4 -19,8 -29,11 -18,7 -37,12 -56,19 1,-2 3,-5 4,-7 -11,5 -24,12 -35,15 -6,2 -16,4 -21,7 -6,3 -17,2 -24,8 -6,5 -56,27 -66,30 -68,21 -138,46 -205,70 3,-3 5,-6 8,-9 0,0 -8,3 -12,4 -5,1 -15,3 -15,3 -3,1 -6,2 -8,3 2,0 -13,4 -10,4 4,0 13,0 13,0 0,0 -17,7 -25,10 -13,4 -27,13 -40,17 -31,13 -42,23 -92,39 -15,5 -73,23 -101,36l5 -34c3,-6 6,-12 9,-18 0,1 1,-19 -3,-14 -4,4 -6,21 -6,21 -110,8 -215,45 -306,108 2,11 9,43 1,50 -5,2 -7,10 -8,17 -5,2 -9,5 -13,7 -4,3 -24,5 -31,10 -8,7 -9,6 -19,11 1,4 3,11 0,14 -11,8 -25,15 -35,24 -7,6 -23,14 -28,20 -5,6 -29,24 -37,28 -20,11 -52,12 -71,31 -3,3 -15,15 -8,2 -2,1 -5,2 -7,3 -7,1 -14,2 -20,3 -4,-1 -8,-3 -13,-4 0,0 -10,3 -6,6 4,2 9,1 13,0 54,100 96,173 173,260 5,-4 16,-15 22,-9 5,7 11,5 17,2 4,-2 6,-5 11,-7 7,-3 18,-8 26,-8 4,0 21,-19 28,-23 11,-6 20,-14 30,-20 2,33 6,74 6,74 -5,-12 -10,-24 -14,-35 0,0 3,51 7,76 3,16 6,34 6,50 -2,8 -4,15 -6,23 2,55 5,134 17,185 4,15 9,27 13,42 2,10 3,20 2,30 -7,7 -16,17 -20,22 -10,11 -48,44 -53,54 -1,3 -18,10 -20,16 -4,8 -5,7 -10,14 0,0 7,10 6,13 -5,9 -14,19 -17,29 -2,6 -12,18 -13,24 -1,5 -12,28 -15,33 -9,14 -34,25 -38,46 -1,5 -3,16 -5,4 -1,2 -3,3 -4,5 -5,3 -9,6 -14,9 -4,0 -8,1 -12,1 0,0 -6,6 -1,7 4,0 7,-2 10,-4 71,47 152,94 228,137l2 78 -3 2c0,0 2,3 3,7l1 7c-4,6 -9,11 -11,18 -1,4 -9,11 -9,15 0,4 -8,19 -10,21 -5,6 -25,7 -28,21 -3,13 -3,0 -4,1 -1,1 -2,1 -3,2 -3,0 -7,1 -10,1 -3,-1 -6,-3 -9,-4 0,0 -4,2 -1,5 2,2 5,2 7,1 33,39 65,78 98,116l1 14c0,-1 9,48 1,59 -8,12 -5,20 -6,35 -1,21 -1,64 -1,64 6,23 11,45 17,68 4,20 3,52 4,73 3,1 5,2 8,3 1,6 2,11 0,17 -2,6 -1,-1 -2,7 -2,20 0,25 4,44 3,-3 6,-7 9,-10 -2,8 -4,16 -5,24 -3,1 -6,2 -9,3 -2,-5 -3,-10 -5,-15 -2,4 -3,24 -2,29 1,4 2,8 3,12 2,-1 4,-2 6,-2 -1,10 -3,19 -4,29 0,18 0,37 0,55 3,-6 5,-11 8,-17 0,0 0,18 -1,26 -2,14 -1,56 0,71 0,4 1,8 1,12 -4,-7 1,27 2,36 8,51 22,124 25,174 0,17 -1,39 -3,57l-8 1c0,0 0,12 -5,14 -13,4 -30,7 -42,13 -9,4 -27,6 -34,10 -7,4 -37,14 -46,15 -24,4 -56,-5 -82,7 -4,2 -20,9 -9,-1 -3,0 -6,0 -8,0 -7,-1 -14,-3 -21,-4 -4,-3 -7,-5 -11,-8 0,0 -11,0 -8,4 3,3 8,4 13,5 17,114 33,196 82,302 6,-3 23,-9 28,-2 3,8 11,8 18,8 5,0 8,-3 15,-3 9,-1 22,-2 30,0 4,1 29,-12 38,-14 15,-3 28,-8 42,-12 -2,55 -4,109 -8,162 -1,15 -3,30 -3,45 0,11 0,21 0,32 1,7 2,14 4,21 -1,7 -3,13 -4,20 -3,-3 -6,-6 -9,-8 -3,2 -2,13 -2,16 1,3 2,6 2,9 -2,0 -4,0 -5,-1 -7,5 -9,-1 -7,14 2,16 5,7 14,-2 2,4 5,9 7,13 -1,9 -1,17 -2,26 1,14 -1,33 -3,46 -1,11 -3,22 -5,32 0,9 0,17 1,26 -2,9 -4,19 -6,28 -3,6 -8,19 -8,19 3,5 5,10 4,16 -2,8 0,17 -1,25 -2,9 2,13 3,21 0,6 0,11 1,17 0,2 -1,12 -2,15 -1,9 5,30 14,32 2,0 4,1 5,1 30,10 120,41 139,61 2,4 7,14 13,12 31,-9 29,-49 48,-56 15,-5 19,17 33,10 14,-4 28,14 34,25 2,-21 6,10 7,13 1,8 6,97 7,37 0,-29 -2,-55 -10,-83 -7,-38 -4,-15 3,-4 3,-1 0,-8 3,-1 0,0 1,-7 4,10 3,17 5,49 -3,65 -1,1 -9,15 -2,12 2,-1 4,-3 6,-5 4,-1 4,-6 4,-10 -1,-11 0,-33 0,-33 0,0 5,-21 8,-31 1,-4 3,-10 2,-14 -1,-7 2,-2 6,-7 5,-6 3,-7 3,-13 0,-6 1,-13 -1,-19 -2,-9 2,-36 2,-35 2,-17 5,-21 3,-39 -1,-8 -5,-17 3,-23 6,-5 7,-13 8,-21 2,-11 3,-22 5,-33 2,-11 -10,6 -11,8 1,-9 2,-22 6,-29 3,-6 3,-26 3,-26 1,-7 2,-14 4,-21 0,0 -3,-12 -3,-18 0,-8 -1,-23 -1,-23 1,-66 -2,-145 2,-208 0,-2 1,-4 1,-6 1,-25 2,-50 3,-75 0,-20 0,-40 0,-60l0 -27 5 -2c16,-3 32,-7 47,-10 0,0 14,1 20,1 34,-2 68,-4 103,-7 15,-1 27,-5 40,-11 4,0 8,0 11,-1 17,-4 33,-8 50,-12 0,0 22,-8 27,-2 6,7 7,5 16,6 9,1 30,0 30,0 10,-6 21,-12 31,-17 7,-3 26,-4 34,-4 0,-3 1,-5 1,-8 3,-1 5,-2 8,0 3,2 -1,1 4,2 11,2 11,0 20,-5 -2,-3 -3,-6 -5,-9 4,2 8,3 12,5 1,3 1,6 2,9 -2,2 -4,3 -7,5 2,2 11,2 14,1 2,-1 4,-2 5,-4 0,-2 -1,-4 -1,-5 5,1 9,2 14,4 9,-1 17,-1 26,-2 -3,-3 -6,-5 -8,-7 0,0 9,-1 13,0 4,1 29,-1 34,-2 2,-1 4,-1 6,-2 -2,4 11,-1 17,-3 14,-5 73,-31 83,-31 8,0 26,0 34,2 7,2 42,1 49,0 2,-1 4,-1 7,-2 66,-6 133,-14 199,-19 9,0 17,-1 25,-2 6,-1 12,-3 18,-4 4,-2 8,-4 11,-6 4,1 8,1 12,2 -1,3 -3,7 -4,10 1,2 8,0 10,0 2,-1 3,-2 5,-4 0,2 0,4 0,6 3,5 0,9 9,5 9,-4 3,-7 -3,-13 2,-3 5,-6 7,-9 5,-1 10,-1 16,-2 7,-3 20,-4 28,-5 7,0 14,-1 21,-1 5,-2 11,-3 16,-5 6,0 12,0 19,0 4,2 13,4 13,4 2,-3 6,-7 10,-7 6,0 11,-4 17,-4 7,0 8,-5 14,-7 4,-2 10,-3 14,-6 3,-3 5,-17 5,-21 0,-2 0,-4 0,-6l0 -8c14,-2 27,-5 40,-7 0,0 -9,-13 0,-14 6,-1 9,-2 9,-8 0,-3 -2,-3 -2,-7 0,-4 0,-11 2,-14 2,-2 -9,-13 -11,-18 -3,-11 -13,-21 -12,-34 0,-7 -1,-15 -3,-21 4,3 9,5 13,8 0,-5 -1,-10 -4,-15 -2,-3 -4,-7 -4,-10 2,-1 5,-3 7,-4 0,0 2,-26 -9,-34 -2,-2 -4,-3 -6,-4 2,-11 5,-22 5,-27 2,-12 7,-17 6,-30 -1,-11 2,-20 6,-30 0,0 -5,-6 3,-6 5,0 18,-5 8,-6 -7,0 -12,0 -18,3 0,0 -11,-1 -11,-4 0,-2 1,-2 0,-3 -1,-2 2,-2 -1,-2 -3,0 -5,0 -7,4 -1,1 -1,2 -2,2l-1 -1c0,-1 0,-2 0,-4 -2,-6 -4,-12 -6,-17 0,0 -5,-8 1,-9 6,0 4,0 7,-4 1,-2 4,-9 4,-9 -4,-4 -9,-8 -13,-13 -2,-2 -1,-9 0,-11zm190 -2456c0,-3 -1,-5 -1,-8 0,0 1,-2 3,-1 1,1 0,1 2,2 4,2 4,-2 6,-5 -1,-3 -2,-6 -3,-8 2,2 3,3 5,5 1,3 2,6 2,9 0,2 -1,3 -1,5 1,1 4,2 5,1 0,-1 1,-2 1,-4 -1,-2 -1,-4 -2,-5 2,1 4,2 5,3 3,-1 6,-1 8,-2 -1,-2 -3,-5 -4,-7 0,0 3,-1 4,0 2,1 9,-1 11,-2 0,-1 1,-1 1,-2 0,4 5,-3 5,-3 2,-4 19,-32 20,-32 2,-1 9,0 11,1 2,2 13,1 15,-1 1,-1 1,-1 2,-2 15,-6 34,-15 49,-20 2,0 4,-1 5,-2 1,-1 2,-3 3,-4 0,-2 1,-4 1,-6 1,1 2,1 3,2 0,3 1,7 1,10 1,2 1,1 2,0 0,-1 0,-2 0,-3 0,2 1,4 1,5 1,2 2,9 3,5 1,-4 -2,-9 -3,-13 0,-3 0,-6 -1,-9 1,-1 2,-1 3,-2 1,-2 2,-4 4,-4 1,0 2,-1 3,-1 0,-2 1,-3 1,-5 1,0 2,0 3,1 1,1 3,4 3,4 0,0 -1,-7 0,-7 1,0 0,-4 1,-4 1,0 0,-6 0,-7 0,-2 0,-4 0,-6 -1,-6 -3,-15 -5,-21 0,-2 -1,-4 -1,-5 -12,-48 -24,-96 -36,-144 -1,-5 -2,-10 -3,-15 -4,-17 -9,-34 -13,-51 -3,-10 -6,-19 -8,-29 -2,-9 -9,-29 -9,-29 0,0 -1,-6 -2,-5 -1,0 -6,-3 -3,-5 2,-2 4,1 4,1 1,-1 0,-3 0,-4 0,-1 -1,-2 -1,-3 0,0 -1,-2 -1,-2 0,0 1,3 1,3 1,3 1,4 0,0 0,-1 -1,-3 -1,-4 0,-1 -1,-4 0,-1 1,3 2,8 2,8 0,0 -1,-3 -1,0 0,3 -1,-4 -1,-4 -1,-3 -1,-2 0,0 0,2 0,3 0,5 0,1 -1,5 -1,5 -1,1 -1,-2 -2,4 0,2 1,8 -1,2l-3 -4c-1,0 -2,1 -3,1 -1,0 3,9 3,10 -2,0 -2,0 -3,-2 -1,-2 -2,1 -2,1 -1,0 -1,0 -2,0 0,0 0,4 0,6 0,1 -1,4 -1,4 0,0 -17,23 -19,21 0,0 -1,-1 -1,-1 -3,1 -6,3 -9,4 -2,2 -5,3 -7,5 -5,3 -10,5 -14,7 0,-2 0,-4 0,-6 -2,2 -7,7 -9,8 -1,0 -5,1 -6,2 -1,1 -6,-1 -7,3 -1,3 -15,15 -18,16 -21,8 -44,18 -65,26 1,-2 1,-5 2,-7 0,0 -3,2 -4,2 -2,0 -5,0 -5,0 -1,1 -2,1 -3,2 0,0 -5,1 -3,2 1,1 5,2 5,2 0,0 -6,3 -8,4 -4,1 -9,7 -13,8 -3,2 4,8 -30,18 -7,2 -33,9 -37,16 -2,1 -5,2 -7,3 -2,-1 -4,-1 -6,-2 -3,-1 -6,-2 -9,-2 -1,2 -1,4 -2,6 0,0 -3,2 -4,2 -1,0 -3,0 -4,1 -3,4 -12,11 -12,11 -1,-1 -2,-3 -3,-4 1,0 -6,5 -8,5 -1,0 -9,8 -10,9 -3,3 -20,13 -21,15 0,1 -6,-2 -7,0 -1,4 -1,3 -4,4 0,0 2,12 2,13 -2,4 -5,7 -6,12 -1,3 -4,6 -4,9 0,2 -3,12 -4,13 -1,2 -9,-6 -9,3 0,9 -1,-3 -1,-1 0,0 0,0 -1,0 -1,-2 -2,-3 -2,-5 -1,-3 -1,-6 -2,-9 0,0 0,3 1,3 0,1 1,5 1,5 19,101 39,201 65,300 0,0 2,-10 4,-1 0,2 2,9 4,8 1,0 0,-2 2,-3 2,0 4,-1 5,1 1,1 3,-10 5,-12 4,-4 6,-15 12,-16 4,-1 8,-3 10,-7 0,5 -1,9 -1,14 4,-1 6,-3 8,-6 1,-2 3,-5 5,-6 1,2 3,4 4,6 9,-2 18,-7 21,-16 1,-4 1,-8 3,-12 2,-5 7,1 7,1 0,0 6,-3 9,-4 3,-1 5,-6 5,-6 4,-3 8,-7 13,-10 0,0 5,1 7,1 11,-2 21,-5 32,-7 5,-2 9,-7 11,-12 1,0 2,-1 4,-1 5,-4 10,-8 14,-12 0,0 6,-8 9,-2 3,6 1,4 7,5 2,1 10,0 10,0 2,-6 5,-12 7,-17 1,-3 8,-4 11,-5zm-9883 1408c0,-3 -1,-5 -1,-8 0,0 1,-2 3,0 1,2 0,1 1,2 4,2 5,-1 6,-4 -1,-3 -2,-6 -3,-9 2,2 3,3 5,5 1,3 1,6 2,9 -1,2 -1,3 -2,5 1,2 4,2 5,1 0,-1 1,-2 1,-4 0,-2 -1,-4 -1,-5 2,1 4,3 5,4 3,0 6,-1 9,-1 -1,-2 -3,-5 -4,-7 0,0 3,0 4,0 2,1 10,-1 11,-2 1,0 1,-1 2,-1 0,4 5,-3 5,-3 3,-4 22,-31 23,-31 3,0 9,0 12,1 2,2 14,1 16,-1 1,-1 1,-1 2,-2 18,-6 43,-15 60,-19 3,0 5,-1 7,-2 2,-1 3,-3 5,-4 1,-2 2,-4 2,-6 1,1 2,1 4,2 0,3 0,7 0,10 1,2 2,1 3,0 0,-1 1,-2 1,-4 0,2 1,4 1,5 1,2 1,9 3,5 2,-4 -1,-9 -3,-13 0,-3 0,-6 1,-9 1,-1 3,-1 4,-2 1,-3 4,-4 7,-5 2,0 4,-1 5,-1 1,-2 2,-3 4,-5 2,0 3,0 5,0 1,1 4,4 4,4 0,0 0,-7 1,-7 1,0 2,-4 4,-4 1,0 1,-5 2,-7 1,-2 2,-4 2,-6 1,-4 -1,-17 -2,-21 0,-2 0,-4 -1,-5 -6,-47 -15,-102 -18,-148 0,-5 0,-11 0,-16 0,-16 -2,-36 -3,-52 -1,-10 -1,-20 -2,-30 -1,-9 -2,-30 -2,-30 0,0 -2,-5 0,-6 2,0 4,-5 1,-6 -3,-1 -5,3 -5,3 -2,-1 -3,-2 -4,-4 0,-1 0,-2 0,-3 0,-1 0,-2 -1,-2 -2,0 -1,2 -1,4 0,4 -1,4 -2,0 -1,-1 -1,-3 -2,-4 0,0 -1,-5 -1,-1 0,3 -1,8 -1,8 0,0 -3,-2 -4,1 -1,2 -1,-3 -2,-4 -2,-3 -1,-1 -2,0 -1,2 -2,3 -2,5 -1,2 -5,5 -5,5 -4,1 -3,-2 -6,4 -1,2 -2,8 -4,2 -1,-1 -2,-5 -4,-4 -2,0 -4,1 -6,1 -2,0 3,9 3,10 -2,0 -4,1 -5,-2 -1,-2 -4,1 -4,1 -1,0 -2,0 -4,0 0,0 -1,4 -2,6 -1,1 -3,4 -3,4 0,0 -30,23 -32,22 0,0 -1,-1 -1,-1 -4,1 -8,3 -12,4 -3,2 -6,3 -9,5 -6,3 -12,4 -18,6 0,-2 1,-4 1,-6 -3,2 -8,7 -11,8 -2,0 -6,1 -7,2 -1,1 -6,-1 -8,3 -1,3 -18,14 -21,15 -22,6 -47,16 -69,23 1,-2 2,-5 2,-7 0,0 -3,1 -4,2 -2,0 -5,0 -5,0 -1,0 -2,1 -3,1 0,0 -5,1 -3,2 1,1 5,3 5,3 0,0 -6,3 -9,4 -4,1 -10,6 -13,7 -3,2 4,9 -30,16 -7,1 -32,7 -36,14 -2,1 -5,2 -7,2 -2,-1 -4,-2 -6,-2 -3,-1 -6,-2 -9,-3 -1,2 -1,4 -2,6 0,0 -3,1 -4,2 -1,0 -3,-1 -4,1 -3,3 -12,10 -12,10 -1,-1 -2,-3 -3,-4 1,0 -7,4 -8,5 -1,0 -9,7 -11,8 -3,3 -21,11 -22,13 -1,1 -6,-3 -7,0 -2,4 -1,2 -4,4 0,0 1,12 0,13 -3,4 -6,6 -7,11 -1,3 -5,6 -6,9 0,2 -5,12 -7,13 -2,2 -9,-7 -11,2 -2,9 -1,-3 -1,-1 0,0 -1,0 -1,0 -1,-2 -1,-4 -2,-5 0,-3 -1,-6 -1,-9 -1,0 0,3 0,3 0,2 0,4 1,5 5,110 5,194 22,307 0,0 7,-9 8,0 0,3 1,9 5,9 2,0 1,-2 4,-2 3,0 6,-1 8,1 2,2 6,-10 9,-12 6,-3 11,-15 19,-16 5,-1 9,-3 13,-6 -1,5 -2,9 -3,14 4,-1 7,-3 10,-6 2,-2 4,-5 6,-5 1,2 3,4 4,6 10,-2 20,-5 24,-15 2,-4 2,-8 4,-12 3,-5 7,1 7,1 0,0 6,-3 9,-4 3,0 6,-5 6,-5 5,-3 9,-6 14,-9 0,0 5,1 7,1 11,-2 22,-3 33,-5 5,-1 9,-6 12,-11 1,0 3,-1 4,-1 5,-4 10,-8 15,-11 0,0 6,-8 9,-1 2,6 1,4 6,6 2,1 10,0 10,0 3,-6 5,-11 8,-17 2,-3 8,-4 11,-4zm4902 1712c0,3 0,5 -1,8 -2,1 -3,1 -5,0 -2,-2 1,-1 -2,-2 -7,-3 -8,0 -14,4 1,3 2,6 3,9 -3,-2 -5,-4 -8,-5 0,-3 -1,-6 -1,-9 2,-2 3,-3 5,-5 -1,-2 -7,-3 -9,-2 -1,1 -3,2 -4,3 0,2 1,4 1,6 -3,-1 -6,-3 -9,-4 -6,0 -12,0 -18,0 2,3 4,5 5,8 0,0 -6,0 -8,-1 -3,-1 -20,-1 -23,0 -1,0 -3,1 -4,1 2,-4 -11,2 -12,2 -8,4 -53,27 -57,27 -5,0 -18,-1 -23,-3 -4,-2 -29,-3 -34,-2 -2,0 -3,1 -5,1 -46,4 -94,8 -140,10 -6,0 -12,0 -18,1 -4,1 -9,2 -13,3 -3,2 -6,4 -8,6 -3,-1 -6,-1 -8,-2 1,-3 2,-7 3,-10 -1,-2 -5,-1 -7,0 -1,1 -3,2 -4,3 0,-2 0,-4 0,-6 -2,-5 0,-9 -6,-6 -7,4 -2,7 2,13 -2,3 -4,6 -5,9 -4,0 -8,1 -11,1 -5,3 -15,3 -21,3l-2 0 -14 -15c2,0 5,0 7,0 -6,-5 -16,-12 -21,-18 -3,-3 -8,-10 -11,-12 -4,-2 -6,-11 -12,-13 -5,-2 -37,-29 -41,-34 -36,-40 -75,-80 -113,-119 3,1 7,1 10,2 0,0 -5,-4 -7,-7 -2,-3 -7,-9 -7,-9 -2,-2 -3,-3 -5,-5 1,1 -7,-8 -6,-5 1,3 4,9 4,9 0,0 -11,-9 -15,-15 -7,-8 -18,-14 -25,-22 -17,-16 -25,-14 -57,-50 -10,-11 -51,-57 -65,-63 -4,-4 -8,-8 -12,-12 -2,-4 -4,-8 -6,-12 -3,-6 -7,-12 -10,-18 -3,0 -6,-1 -8,-1 0,0 -6,-5 -8,-8 -2,-2 -4,-6 -7,-8 -10,-5 -27,-19 -27,-19 0,-2 0,-4 0,-6 1,0 -13,-10 -17,-14 -4,-4 -19,-13 -25,-17 -3,-2 -9,-6 -15,-12 2,0 4,-1 8,-2 1,0 9,-3 9,-3 0,0 12,-5 12,-5 5,-8 10,-16 15,-24 3,-4 17,-10 22,-12 -1,-2 -1,-5 -2,-7 2,-2 3,-3 5,-2 3,1 0,1 3,1 8,-1 8,-3 13,-9 -2,-2 -4,-5 -7,-7 3,1 7,1 10,2 1,3 3,5 4,8 -1,2 -2,4 -3,6 2,1 9,0 10,-2 1,-2 2,-3 3,-5 -1,-2 -2,-3 -3,-5 4,0 7,0 11,0 6,-2 12,-5 18,-7 -3,-2 -6,-3 -8,-5 0,0 6,-3 9,-2 3,0 20,-7 23,-9 1,-1 2,-2 3,-3 0,5 11,-7 11,-7 6,-6 43,-45 47,-47 5,-2 18,-6 23,-5 5,0 29,-7 33,-10 1,-1 3,-2 4,-3 36,-16 81,-36 118,-48 5,-1 9,-3 14,-5 3,-2 6,-4 9,-6 2,-2 3,-5 5,-7 2,0 4,0 7,0 0,3 0,7 0,10 1,2 4,0 5,-1 1,-1 1,-3 2,-4 0,2 1,4 1,5 2,4 2,9 6,4 4,-5 -1,-8 -4,-13 0,-3 1,-6 1,-10 2,-1 5,-2 7,-3 3,-4 8,-5 12,-6 3,-1 6,-1 9,-2 2,-2 4,-4 6,-6 3,0 5,0 8,0 1,1 6,4 6,4 0,0 1,-7 3,-7 2,0 3,-4 6,-4 2,0 2,-5 4,-7 2,-2 3,-4 4,-6 1,-3 0,-18 0,-21 0,-2 0,-4 -1,-6l-1 -7c44,-8 88,-20 138,-38 0,0 -9,-24 0,-26 8,-2 9,-9 9,-16 0,-5 -2,-8 -2,-14 0,-8 -1,-21 2,-28 1,-4 -10,-27 -11,-36 -3,-24 -13,-44 -13,-70 0,-12 -4,-46 -4,-46 4,5 9,11 13,16 0,0 -1,-24 -4,-34 -2,-6 -5,-15 -5,-22 2,-3 4,-7 7,-10 0,0 1,-60 -11,-80 -4,-7 -8,-11 -11,-18 -3,-7 -2,-14 2,-20 0,0 -2,-19 -2,-28 0,-5 -5,-18 -5,-18 -2,-14 -5,-28 -7,-42 0,0 2,-12 2,-18 0,-30 0,-60 0,-90 0,-12 -3,-24 -9,-36 0,-3 0,-7 0,-10 -3,-15 -6,-29 -9,-44 0,0 -6,-20 0,-24 8,-4 5,-5 7,-14 1,-8 2,-26 2,-26 -5,-9 -10,-18 -15,-28 -3,-6 -2,-23 -2,-30 -3,0 -5,-1 -8,-1 -1,-2 -1,-5 0,-7 2,-3 1,1 2,-3 3,-9 0,-10 -3,-18 -3,1 -6,3 -9,4 2,-3 4,-7 6,-10 3,0 6,-1 9,-1 2,2 3,4 5,6 2,-2 3,-10 2,-12 -1,-2 -2,-3 -3,-5 -2,0 -4,1 -6,1 2,-4 3,-8 5,-12 0,-8 0,-15 0,-23 -3,2 -5,5 -8,7 0,0 0,-8 1,-11 1,-4 1,-26 0,-30 0,-2 -1,-3 -1,-5 4,2 0,-10 -2,-15 -4,-11 -27,-68 -27,-75 0,-7 1,-23 3,-30 2,-6 3,-37 2,-44 0,-2 -1,-4 -1,-6 -3,-60 -7,-122 -9,-182 0,-8 0,-16 -1,-24l-3 -15c2,-5 3,-8 5,-13 1,-2 1,-4 2,-8 1,-1 1,-3 1,-5l1 -9 0 0c5,-3 9,0 6,-8 -2,-4 -3,-5 -5,-5 1,-8 1,-16 1,-19 1,-12 5,-18 2,-30 -1,-10 0,-20 2,-30 0,0 -5,-5 2,-6 5,0 14,-6 6,-6 -5,0 -9,1 -14,4 0,0 -9,0 -9,-3 0,-2 0,-2 0,-3 -1,-2 1,-3 -1,-2 -3,0 -4,1 -5,4 -2,4 -3,4 -6,1l-3 -3c2,-4 4,-12 4,-12 -3,-3 -6,-6 -7,-10 0,-5 -3,-11 -3,-17 0,-7 -5,-8 -7,-14 -1,-4 -3,-10 -6,-14 -2,-3 -17,-6 -21,-6 -2,0 -4,0 -6,0 15,0 -132,0 -149,-9 -6,-3 -10,-7 -16,-10 -6,-4 -43,-12 -52,-14 -12,-3 -16,-8 -30,-7 -10,0 -21,-2 -30,-7 0,0 -6,5 -6,-3 0,-5 -4,-19 -6,-8 -1,6 0,12 2,18 0,0 -1,11 -4,11 -2,0 -2,-1 -3,0 -2,1 -2,-2 -2,1 0,3 0,5 3,7 4,3 4,5 0,8 -1,1 -3,3 -4,4 -3,1 -3,2 -1,4 3,2 8,8 8,8 0,0 -2,10 0,14 2,4 -2,1 -5,5 -3,4 -1,4 0,8 1,4 2,8 5,11 3,4 4,21 4,20 1,11 -2,10 3,22 2,5 8,9 1,13 -4,3 -6,7 -5,12 0,6 0,12 0,18 0,6 9,-4 10,-5 0,5 1,12 -2,16 -2,3 0,14 0,14l0 5c-4,1 -8,2 -11,3 -4,0 -12,1 -15,2 -3,2 -12,-1 -16,3 -4,3 -39,15 -45,15 -45,7 -92,16 -137,23 2,-2 4,-5 6,-7 0,0 -5,1 -8,2 -3,0 -10,0 -10,0 -2,0 -4,1 -6,1 1,0 -9,1 -6,2 3,1 8,3 8,3 0,0 -11,3 -17,3 -9,1 -19,6 -27,7 -20,5 -14,11 -62,15 -10,1 -52,4 -70,10l1 -10c1,-10 2,-21 3,-31 -1,-9 -1,-17 -2,-26 1,-9 3,-19 4,-28 3,-6 7,-20 7,-20 -3,-5 -5,-11 -5,-16 1,-9 -1,-18 0,-27 1,-10 -3,-14 -4,-23 0,-7 -1,-16 -3,-23 -2,-5 -15,-11 -20,-12 -2,0 -4,0 -5,-1 10,1 -134,-20 -146,-33 -6,-7 -9,-12 -13,-18 -4,-5 -41,-26 -49,-30 -12,-6 -14,-15 -28,-15 -11,-1 -21,-7 -28,-15 0,0 -7,7 -5,-6 0,-4 0,-32 -4,-14 -2,8 -2,30 -2,30 0,0 -3,18 -7,17 -3,0 -1,-2 -3,0 -3,1 -2,-3 -3,2 -1,5 -1,8 2,12 4,5 2,9 -2,13 -2,2 -3,4 -5,6 -3,1 -3,4 -2,7 2,5 6,14 6,14 0,0 -4,16 -3,23 1,7 -2,2 -6,8 -4,6 -2,7 -2,13 1,6 0,13 2,19 2,8 0,35 1,34 -1,16 -3,20 -1,37 1,8 6,16 -1,22 -5,5 -7,13 -6,20 -1,10 -2,21 -3,31 -1,11 9,-6 11,-8 -1,8 -1,20 -5,27 -3,6 -2,24 -2,24 -1,6 -2,13 -2,19 0,0 4,11 5,16 1,7 2,21 2,21l0 11c-2,1 -3,1 -4,2 -5,3 -27,12 -33,13 -16,3 -41,-8 -61,2 -4,2 -15,7 -6,-1 -2,0 -4,0 -6,0 -5,-2 -11,-4 -16,-5 -3,-3 -5,-6 -8,-9 0,0 -9,-1 -6,3 2,3 6,5 10,6 7,112 16,198 48,307 0,0 20,-9 21,0 2,8 6,9 13,9 4,0 6,-2 11,-2 6,0 17,-1 23,2 3,2 21,-10 29,-12l3 -1 1 28c-2,-3 -4,-5 -6,-8 2,17 6,36 6,53 0,9 0,22 1,31 2,10 -3,24 1,35 5,13 12,84 12,100 4,104 11,209 17,313 -2,-5 -5,-10 -7,-15 0,0 1,12 1,18 0,7 0,22 0,22 0,4 1,9 1,13l2 15c1,-6 3,-18 3,-18 0,0 3,27 3,40 1,21 6,43 6,64 5,52 12,83 15,148 1,24 6,161 13,183 1,12 2,24 2,36 -1,9 -2,18 -3,28 -1,14 -2,28 -3,43 2,5 4,9 6,14l1 11c-14,11 -32,24 -35,28 -1,2 -16,6 -18,10 -4,6 -4,5 -10,10 0,0 5,11 4,13 -5,7 -12,14 -15,22 -2,5 -11,13 -11,17 -1,4 -10,21 -12,24 -6,7 -27,10 -29,25 -2,13 -4,1 -4,2 -1,1 -2,2 -3,3 -4,1 -7,2 -11,3 -3,-1 -7,-2 -10,-2 0,0 -4,4 0,5 3,1 5,1 8,-1 62,51 119,103 174,160 2,22 4,44 7,64 3,11 -3,36 0,50 1,4 6,31 4,33 5,1 12,2 13,8 4,21 6,44 12,64 4,15 4,39 10,52 5,14 13,53 14,69 4,38 -7,82 5,121 1,4 8,32 -1,12 0,4 0,8 0,13 -2,10 -3,21 -5,31 -3,5 -6,11 -8,16 0,0 -1,17 4,12 4,-4 5,-18 5,-18 108,-10 212,-43 304,-99 0,0 -10,-38 -1,-41 9,-4 8,-18 8,-26 0,-7 -3,-14 -3,-22 0,-14 -2,-32 1,-45 1,-7 -11,-45 -13,-58 -3,-24 -8,-47 -12,-70l8 9c7,8 16,13 26,17 2,2 4,4 6,6 10,7 20,15 31,22 0,0 16,9 13,15 -3,8 -1,6 3,13 3,6 13,18 13,18 9,3 18,6 27,8 5,2 15,14 18,18 2,-1 4,-3 7,-4 2,1 4,2 4,5 0,3 -1,0 0,3 3,8 5,7 12,10 2,-3 3,-6 5,-8 0,3 1,7 1,10 -2,2 -4,4 -6,6 -2,0 -5,-1 -7,-1 -1,2 3,8 5,9 2,0 4,1 5,1 1,-1 3,-3 4,-4 1,4 2,7 3,11 4,5 8,10 12,15 1,-3 2,-6 2,-10 0,0 4,5 5,8 1,3 13,17 16,19 1,1 2,2 4,2 -4,1 6,6 10,8 8,4 57,28 60,31 4,4 11,16 13,21 1,5 16,25 20,28 1,1 3,2 4,3 29,32 61,65 89,98 3,4 6,8 10,12 3,2 6,4 9,6 3,1 6,1 9,2 1,2 2,4 2,7 -3,1 -6,3 -10,4 -1,2 2,4 3,4 1,0 3,0 4,0 -1,1 -3,2 -4,3 -3,4 -7,5 -2,7 6,2 7,-4 10,-9 3,-1 6,-1 10,-2 2,2 4,4 6,6 5,1 9,6 12,10l1 1c-1,3 -2,6 -3,10 0,0 4,6 -3,6 -5,0 -14,4 -6,6 5,1 9,0 14,-2 0,0 8,2 8,4 0,2 -1,2 0,3 1,2 -1,2 1,2 3,0 4,0 5,-3l1 -2 0 3c0,0 3,-1 5,-1l0 0c1,1 2,3 3,4 0,0 1,5 3,1l2 -2c1,0 2,1 2,2 2,2 6,0 9,1 3,1 5,2 8,1 3,0 16,-8 19,-10l2 -2c4,-1 9,-2 9,-2 9,-1 8,2 17,-3 4,-2 7,-8 10,-1 2,4 5,6 9,5 5,0 9,0 14,0 5,0 -3,-9 -4,-10 4,0 9,-1 12,2 2,2 11,0 11,0 3,0 6,1 9,1 0,0 5,-5 7,-6 3,-1 9,-3 9,-3 -7,2 77,-19 80,-17 1,0 2,1 2,1 9,-1 18,-2 28,-2 7,-1 14,-2 22,-4 14,-2 27,-3 41,-4 -1,2 -3,4 -4,6 7,-2 19,-6 26,-6 4,0 12,0 15,-1 4,-1 12,2 17,-1 4,-3 42,-12 48,-12 48,-3 98,-9 146,-13 -2,2 -5,5 -7,7 0,0 6,-1 8,-1 3,0 10,1 10,1 2,0 4,-1 6,-1 -1,0 9,0 7,-1 -3,-1 -8,-3 -8,-3 0,0 12,-2 18,-2 9,0 20,-5 29,-5 20,-3 19,-10 66,-12 13,0 70,-3 81,-9 5,0 11,-1 16,-2 4,1 8,2 12,3 6,1 13,3 19,4 2,-2 4,-4 6,-6 0,0 7,-1 11,-1 3,0 7,1 10,0 10,-4 32,-8 32,-8 2,1 3,3 5,4 -1,0 16,-4 23,-4 6,0 24,-5 31,-7 13,-3 58,-7 65,-11 2,-1 18,3 23,1 8,-4 7,-3 15,-4 0,0 1,-12 4,-13 9,-3 21,-5 29,-10 5,-3 20,-5 24,-8 4,-3 26,-12 32,-12 15,-3 39,9 57,-2 16,-9 6,1 6,1 2,0 4,0 6,0 5,2 10,4 15,5 3,3 5,6 8,9 0,0 8,1 6,-3 -2,-3 -5,-5 -9,-5 -3,-103 -18,-208 -45,-307 -5,3 -17,8 -20,0 -1,-8 -5,-9 -12,-9 -4,0 -5,2 -11,2 -6,0 -16,1 -21,-2 -3,-2 -20,10 -27,11 -18,3 -32,14 -53,14 -12,0 -23,2 -35,5 4,-4 8,-9 12,-13 0,0 -19,2 -26,5 -4,2 -12,5 -17,5 -3,-2 -5,-4 -8,-7 0,0 -47,1 -61,12 -5,4 -8,8 -14,11 -5,3 -10,2 -15,-2 0,0 -14,2 -21,2 -4,0 -14,5 -14,5 -11,2 -21,5 -32,7 0,0 -10,-2 -14,-2 -23,0 -46,1 -69,1 -10,1 -19,4 -27,9 -3,0 -5,0 -8,0 -11,3 -22,6 -33,9 0,0 -15,7 -18,0 -3,-7 -3,-5 -11,-7 -6,-1 -20,-2 -20,-2 -7,5 -14,10 -21,16 -4,3 -18,3 -23,3zm-4294 -895c3,1 5,1 8,2 1,4 1,8 0,12 -2,5 -1,-2 -2,5 -3,15 -1,17 3,31 3,-2 6,-4 9,-7 -2,6 -4,11 -6,17 -3,1 -6,1 -9,2 -1,-3 -3,-7 -4,-10 -2,3 -3,17 -3,20 1,3 2,6 3,9 2,0 4,-1 6,-1 -2,7 -3,13 -5,20 0,13 -1,26 -1,39 3,-4 5,-8 8,-12 0,0 0,13 -2,19 -2,8 -2,42 -1,50 0,3 1,6 1,8 -4,-4 0,17 1,25 7,34 21,92 23,124 0,13 -2,36 -5,48 -3,12 -6,57 -4,69 0,3 1,6 1,10 0,89 1,179 -1,268 0,11 -1,21 0,32 1,7 2,15 2,22 1,2 2,6 3,8 1,3 1,8 2,12 -1,9 -2,18 -3,27 -3,-3 -6,-7 -10,-10 -3,3 -2,18 -1,22 1,4 2,8 3,12 -2,0 -4,0 -6,0 -7,8 -9,0 -6,19 3,21 6,8 13,-4 3,6 5,11 8,17 0,11 0,22 -1,33 2,17 1,40 0,57 -1,13 -2,26 -2,38 1,10 2,19 3,29 -1,10 -2,20 -4,30 -3,6 -6,19 -6,19 2,2 4,5 5,9 0,1 -1,2 -1,3 -1,3 -7,9 -7,12 0,2 -5,14 -7,16 -3,3 -12,-4 -9,5 2,7 1,1 0,-1l1 0c0,-2 1,-4 3,-6 1,-3 2,-6 3,-9 3,0 5,0 4,3 -1,3 -3,4 -5,6 3,105 34,203 88,293 0,0 11,-13 15,-5 3,5 5,8 11,5 2,-1 2,-3 5,-5 3,-1 9,-4 12,-3 3,1 6,-13 10,-16 8,-7 10,-19 22,-24 6,-3 13,-7 18,-12 -1,5 -1,10 -2,15 6,-3 9,-5 13,-10 2,-3 5,-7 9,-9 2,1 5,3 7,4 0,0 33,-16 38,-27 2,-6 3,-10 7,-14 4,-7 13,-2 13,-2 0,0 11,-6 17,-8 3,-1 10,-8 10,-8 8,-5 16,-10 25,-15 -3,12 -11,39 0,15 2,-5 4,-11 6,-17 3,0 7,-1 10,-2 24,-7 47,-14 71,-20 11,-3 21,-9 29,-16 3,-1 6,-1 9,-2 13,-6 26,-12 39,-17 0,0 18,-10 23,-4 6,7 6,4 15,4 8,0 27,-2 27,-2 9,-7 18,-13 27,-19 6,-4 25,-6 33,-6 0,-3 0,-5 0,-8 3,-1 5,-2 8,-1 3,2 -1,1 4,2 11,1 12,-1 20,-5 -2,-3 -4,-6 -6,-8 4,1 8,3 12,4 1,3 1,6 2,9 -2,2 -4,3 -7,5 2,2 12,2 14,1 2,-1 4,-3 6,-4 -1,-2 -1,-4 -2,-5 5,1 10,2 15,3 9,-1 19,-1 28,-2 -3,-2 -6,-5 -9,-7 0,0 10,-1 14,0 5,1 23,0 29,-1 1,0 4,0 5,-1 1,0 3,-1 4,-1 -2,4 13,-3 13,-3 8,-4 56,-30 60,-30 5,0 19,0 24,2 5,2 29,1 34,-1 2,-1 3,-1 5,-2 44,-7 90,-15 133,-21 6,-1 11,-1 17,-2 4,-1 8,-3 12,-4 2,-2 5,-4 7,-6 3,1 5,1 8,2 -1,3 -1,7 -2,10 1,2 5,0 6,-1 1,-1 2,-2 3,-4 0,2 0,4 0,6 2,5 1,9 6,5 6,-4 1,-7 -2,-13 1,-3 3,-6 4,-9 4,-1 7,-1 11,-2 5,-3 13,-4 19,-5 5,0 10,-1 14,-1 4,-2 8,-3 11,-5 4,0 9,0 13,1 3,2 10,4 10,4 0,0 3,-7 7,-7 4,0 8,-4 13,-4 5,0 6,-5 10,-7 3,-2 8,-3 10,-6 3,-3 4,-17 4,-21 0,-2 0,-4 0,-6 0,8 -1,-26 -1,-65 51,-15 101,-35 148,-61 0,0 -8,-37 1,-40 9,-3 9,-17 9,-24 0,-7 -2,-13 -2,-22 0,-13 0,-31 3,-43 2,-6 -9,-43 -10,-55 -2,-37 -11,-70 -10,-108 1,-22 1,-48 -1,-71 4,8 8,17 12,25 0,0 1,-36 -2,-52 -2,-10 -4,-24 -3,-34 3,-5 5,-10 7,-15 0,0 7,-88 -5,-123 -4,-10 -7,-18 -10,-28 -2,-11 -1,-20 4,-30 0,0 0,-29 0,-43 0,-8 -3,-28 -3,-28 -1,-22 -2,-43 -3,-65 0,0 3,-19 4,-27 3,-46 6,-93 8,-139 1,-19 -1,-38 -5,-56 0,-5 1,-10 1,-15 -2,-23 -3,-46 -5,-69 0,0 -5,-31 2,-37 8,-7 6,-10 8,-21 2,-13 5,-40 5,-40 -4,-15 -9,-29 -13,-44 -3,-11 0,-35 0,-47 -3,-1 -5,-1 -8,-2 -1,-4 -1,-7 1,-11 2,-4 1,1 2,-4 3,-14 1,-16 -2,-28 -3,2 -6,4 -9,6 2,-5 4,-10 6,-15 3,0 6,-1 9,-1 1,3 3,7 4,10 2,-2 4,-15 3,-19 -1,-3 -2,-5 -3,-8 -2,0 -4,1 -6,1 2,-6 4,-12 6,-19 1,-12 1,-24 2,-36 -3,4 -6,7 -8,11 0,0 0,-12 2,-17 2,-7 3,-39 2,-47 0,-3 -1,-5 -1,-8 4,3 0,-16 -1,-24 -6,-34 -20,-88 -22,-119 0,-13 2,-35 5,-47 3,-12 5,-57 4,-70 0,-3 -1,-6 -1,-10 -1,-76 -2,-152 -4,-229 0,-21 -1,-42 -1,-62 0,-12 1,-24 0,-37 -1,-9 -1,-17 -2,-26 -2,-6 -3,-11 -5,-17 1,-6 2,-11 3,-17 3,2 6,4 10,7 3,-2 1,-11 1,-14 -1,-3 -2,-5 -3,-8 2,0 4,0 6,0 6,-5 9,0 6,-12 -3,-14 -6,-5 -13,2 -3,-4 -5,-7 -8,-11 0,-8 0,-15 0,-23 -2,-11 -1,-30 0,-41 1,-10 1,-20 2,-30 -1,-8 -2,-17 -3,-25 1,-9 2,-18 3,-28 3,-6 6,-20 6,-20 -3,-5 -6,-10 -6,-16 0,-3 0,-6 0,-8 7,-7 26,-30 28,-30 3,0 11,0 14,1 3,2 17,1 20,-1 1,-1 2,-1 2,-2 23,-7 51,-15 75,-20 3,0 6,-1 9,-2 2,-1 4,-3 6,-4 1,-2 2,-4 3,-6 1,1 3,1 4,2 0,3 0,7 0,10 1,2 3,1 3,0 0,-1 1,-2 1,-4 0,2 1,4 1,5 1,3 1,9 4,5 3,-4 -1,-8 -3,-13 0,-3 1,-6 1,-9 2,-1 3,-1 5,-2 2,-3 6,-4 9,-5 2,0 4,-1 7,-1 2,-2 3,-4 5,-5 2,0 4,0 6,0 1,1 5,4 5,4 0,0 0,-7 2,-7 2,0 3,-4 5,-4 2,0 2,-5 3,-7 1,-2 3,-4 3,-6 1,-3 -1,-17 -1,-21 0,-2 0,-4 -1,-5 -6,-45 -15,-103 -17,-148 0,-5 1,-11 1,-16 1,-15 -2,-37 -3,-53 -1,-11 0,-19 -2,-30 -1,-9 -2,-30 -2,-30 0,0 -2,-5 0,-6 2,0 5,-5 2,-6 -3,-1 -5,3 -5,3 -2,-1 -3,-2 -4,-4 0,-1 0,-2 0,-3 0,-1 0,-2 -1,-2 -2,0 -2,2 -2,4 0,4 -1,4 -2,0 -1,-1 -1,-3 -2,-4 0,0 -1,-5 -1,-1 0,3 -1,8 -1,8 0,0 -3,-2 -5,1 -1,2 -1,-3 -2,-4 -2,-3 -2,-1 -3,0 -1,2 -2,3 -3,5 -1,2 -6,5 -6,5 -4,1 -3,-2 -7,4 -1,2 -2,8 -4,2 -1,-2 -2,-6 -5,-4 -2,0 -4,1 -7,1 -2,0 3,9 3,10 -3,0 -4,1 -6,-2 -1,-2 -5,1 -5,1 -1,0 -3,0 -4,0 0,0 -1,5 -3,6 -1,1 -4,4 -4,4 1,0 -37,24 -39,23 0,0 -1,0 -1,-1 -5,1 -10,3 -15,4 -4,2 -8,3 -11,5 -7,3 -15,5 -22,7 0,-2 1,-4 1,-6 -3,2 -10,7 -14,8 -2,0 -7,1 -9,2 -2,1 -8,-1 -10,3 -2,3 -23,15 -27,15 -28,7 -57,17 -86,25 1,-2 2,-5 3,-7 0,0 -3,1 -5,2 -2,0 -6,0 -6,0 -1,1 -2,1 -3,2 0,0 -6,1 -4,2 2,1 6,3 6,3 0,0 -7,3 -11,4 -5,1 -12,6 -17,7 -4,2 1,9 -37,17 -8,2 -40,7 -45,15 -3,1 -6,2 -9,3 -2,-1 -5,-2 -7,-2 -4,-1 -7,-2 -11,-3 -1,2 -2,4 -2,6 0,0 -4,2 -6,2 -2,0 -4,0 -5,1 -4,4 -16,10 -15,10 -1,-1 -2,-3 -3,-4 1,0 -8,5 -11,5 -2,0 -12,7 -14,9 -4,3 -27,12 -28,14 -1,1 -8,-2 -10,0 -2,4 -2,3 -6,4 0,0 1,12 0,13 -3,4 -8,6 -10,11 -1,3 -7,6 -8,9 -1,2 -7,12 -9,13 -2,2 -13,-7 -16,3 -3,9 -1,-3 -1,-1 0,0 -1,0 -1,0 -1,-2 -2,-4 -3,-5 -1,-3 -1,-6 -2,-9 -1,0 -1,3 -1,3 0,2 1,4 2,5 9,107 15,198 35,305 0,0 6,-9 8,-1 1,3 1,9 6,8 2,0 1,-2 4,-3 3,0 7,-1 9,1 2,2 7,-10 10,-12 3,-2 5,-4 8,-7 -1,7 0,19 0,19 -1,6 -1,12 -2,17 0,0 4,10 5,15 1,7 2,20 2,20 3,55 10,124 10,176 0,2 -1,4 -1,6 0,4 0,8 0,11 1,15 1,31 2,46 1,15 2,29 3,44 1,27 2,55 2,82 -2,-3 -4,-5 -5,-8 2,17 5,36 4,53 0,9 -1,22 0,31 2,10 -3,23 0,34 4,13 8,82 8,98 -1,98 -1,196 -3,293 -2,-5 -4,-10 -6,-14 0,0 0,11 0,17 0,7 -2,20 -2,20 0,4 0,8 0,12 0,-3 -1,18 0,14 2,-5 4,-17 4,-17 0,0 1,25 0,37 -1,19 2,40 1,59 1,47 6,73 3,135 -1,22 -8,146 -2,166 0,11 -1,22 -1,33 -2,8 -3,16 -5,25 -2,13 -4,26 -7,38 2,4 3,9 5,13 0,0 0,15 0,22 0,6 -2,14 -1,20 2,22 4,66 4,66 -2,3 -3,6 -5,9 0,0 2,31 1,47 -1,19 2,45 3,64 2,44 0,93 4,136 2,10 -6,34 -3,47 1,4 4,30 2,31 5,1 11,3 13,8 3,20 3,43 8,62 3,14 2,38 6,51 2,7 4,19 6,31 -9,3 -74,24 -76,23 -1,0 -2,-1 -2,-1 -9,1 -17,3 -26,5 -7,2 -13,3 -20,5 -12,3 -25,5 -38,7 1,-2 2,-4 3,-6 -7,2 -17,7 -24,8 -3,0 -11,1 -14,2 -3,2 -12,-1 -16,2 -4,3 -39,14 -45,14 -19,1 -40,6 -59,8 -52,6 -155,19 -155,19 4,-3 8,-5 11,-8 0,0 -10,2 -14,3 -6,1 -17,1 -17,1 -3,1 -7,2 -10,2 2,0 -15,2 -12,3 5,1 15,1 15,1 0,0 -20,5 -30,6 -15,2 -31,9 -46,12 -26,7 -57,21 -98,31l-11 3 1 -7c0,0 -4,-15 -4,-21 -1,-10 -2,-29 -2,-29 0,-21 -1,-43 -1,-64 -2,-24 -9,-86 -8,-107 0,-1 1,-3 1,-4 0,-17 0,-34 0,-52 -1,-14 -1,-28 -2,-41 -1,-27 0,-54 -1,-80 2,3 4,5 5,8 -2,-17 -4,-36 -4,-53 0,-9 1,-22 0,-31 -2,-10 3,-24 0,-35 -4,-14 -8,-85 -8,-103 0,-106 -2,-214 -3,-320 2,5 4,10 6,16 0,0 -1,-12 -1,-19 0,-3 0,-7 1,-10 1,-5 1,-15 1,-15 0,-6 0,-11 -1,-16l-1 -19c-2,7 -4,23 -4,23 0,0 -1,-33 -1,-49 1,-26 -3,-53 -3,-79 -2,-60 -8,-108 -7,-179 0,-32 4,-184 -4,-214 0,-14 0,-27 0,-41 1,-10 3,-20 4,-31 2,-16 3,-31 5,-47 -2,-5 -4,-10 -5,-15 0,0 -1,-17 -1,-26 0,-8 1,-16 0,-24 -3,-25 -7,-75 -7,-75 2,-4 3,-7 5,-11 0,0 -3,-34 -3,-51 0,-20 -4,-47 -6,-68 -3,-41 -3,-92 -8,-132 -2,-8 4,-31 2,-41 0,-1 -1,-5 -2,-10l0 0c1,-1 8,3 10,1 3,-4 2,-2 6,-3 0,0 0,-12 1,-13 4,-4 9,-6 11,-10 2,-3 7,-5 9,-8 1,-2 8,-11 10,-12 3,-1 11,8 15,-1 4,-9 1,3 1,1 0,0 1,0 1,0 1,2 2,4 3,6 0,3 1,6 1,9 1,0 1,-3 1,-3 0,-2 0,-4 -1,-6 2,-102 1,-205 -6,-307 0,0 -6,9 -6,0 0,-3 0,-9 -4,-9 -1,0 -1,2 -4,2 -3,0 -6,0 -7,-2 -1,-2 -7,10 -10,11 -7,3 -13,14 -22,14 -6,0 -11,2 -16,4 2,-4 4,-9 5,-13 -4,0 -9,2 -12,5 -2,2 -5,4 -8,5 -1,-2 -3,-4 -4,-7 -11,0 -24,3 -32,12 -3,4 -4,8 -7,11 -4,5 -9,-2 -9,-2 0,0 -8,2 -12,2 -2,0 -8,5 -8,5 -6,2 -13,5 -19,7 0,0 -6,-2 -8,-2 -14,0 -29,1 -43,1 -7,1 -12,5 -17,9 -2,0 -3,0 -5,0 -7,3 -14,6 -22,10 0,0 -10,7 -12,0 -2,-7 -1,-5 -7,-6 -3,-1 -13,-2 -13,-2 -4,5 -9,11 -13,16 -2,2 -7,3 -9,3 -2,0 -3,0 -5,0 0,3 0,5 0,8 0,0 -2,2 -3,0 -1,-2 0,-1 -1,-2 -4,-3 -5,1 -7,4 1,3 1,6 2,9 -1,-2 -3,-4 -4,-5 0,-3 -1,-6 -1,-9 1,-2 2,-3 2,-5 -1,-2 -4,-3 -5,-2 -1,1 -1,2 -2,3 0,2 0,4 1,6 -2,-1 -3,-3 -5,-4 -3,0 -6,0 -10,0 1,3 2,5 3,8 0,0 -3,0 -5,-1 -1,-1 -11,-1 -12,1 -1,0 -1,1 -2,1 1,-4 -6,2 -6,2 -3,3 -27,28 -29,28 -3,0 -10,-1 -12,-3 -2,-2 -15,-3 -17,-1 -1,0 -2,1 -2,1 -21,4 -46,10 -66,13 -3,0 -5,0 -8,2 -1,1 -4,3 -4,3 -1,0 -1,1 -2,1 -2,2 -3,4 -5,6 -2,-1 -4,-1 -5,-2 0,-3 1,-7 1,-10 -1,-2 -3,-1 -4,0 -1,1 -1,2 -2,4 0,-2 0,-4 -1,-6 -1,-3 -1,-9 -4,-5 -4,4 0,8 2,13 -1,3 -2,6 -2,9 -2,1 -4,1 -6,2 -3,3 -7,4 -11,5 -3,0 -5,1 -8,1 -2,2 -4,4 -6,5 -2,0 -5,0 -7,0 -1,-1 -5,-4 -5,-4 0,0 -1,7 -3,7 -2,0 -3,4 -5,4 0,0 -1,0 -1,0 -4,1 -4,6 -8,8 -3,2 -6,4 -8,7 -2,3 0,18 1,21 0,2 1,4 1,5 10,49 21,97 30,146 1,5 2,10 3,15 5,17 11,33 19,49 5,10 12,15 15,27 4,10 10,19 19,24 0,0 -4,8 7,3 4,-2 45,-21 18,-4 -9,6 -20,11 -31,13 0,0 -10,4 -9,8 1,2 1,1 1,3 0,2 2,2 0,3 -3,1 -4,0 -5,-2 -2,-3 -3,-4 -3,1 0,1 0,3 0,5 0,0 1,5 -1,1 -1,-2 -3,-8 -3,-8 0,1 0,1 0,0 0,-2 1,4 1,4 1,3 1,1 2,0 0,0 1,-2 1,-2 0,0 0,-3 0,-3 0,-2 3,-5 3,-5 3,-1 2,2 4,-4 1,-2 1,-8 3,-2 0,1 1,6 4,4 2,0 3,0 5,-1 2,0 -2,-9 -3,-10 2,0 4,-1 5,2 1,2 5,0 5,0 1,0 3,0 4,1 0,0 1,-4 3,-6 1,-1 4,-4 4,-4 -2,1 13,-7 13,-7 1,-1 19,-13 19,-12 0,0 1,1 1,1 4,-1 8,-2 11,-3 3,-1 6,-3 9,-4 6,-2 12,-3 18,-5 0,2 -1,4 -1,6 3,-2 9,-6 12,-6 2,0 6,0 7,-1 1,-1 6,2 8,-2 1,-2 7,-5 12,-8 0,3 1,5 1,7 2,10 4,23 4,33 -2,5 -5,10 -7,15 0,0 -4,92 9,130 4,11 8,20 11,31 2,12 2,23 -3,35 0,0 2,34 1,50 0,10 4,33 4,33 2,26 4,52 5,79 0,0 -3,23 -3,34 -1,59 -2,118 -3,177 0,21 7,73 7,73 0,7 0,13 0,20 2,30 5,60 7,90 0,-1 6,41 -1,49 -8,10 -6,16 -7,29 -2,17 -3,54 -3,54 5,19 9,39 14,58 2,12 1,30 1,42 0,5 0,11 0,16zm5407 -1803c2,1 5,1 7,2 0,0 2,2 0,2 -2,0 -1,0 -2,0 -3,3 0,4 2,6 3,0 6,0 9,1 -2,1 -4,1 -6,2 -3,0 -6,-1 -9,-1 -1,-1 -3,-2 -4,-3 -2,0 -4,2 -3,3 1,1 2,2 3,2 2,0 4,1 5,1 -2,1 -3,2 -5,3 0,3 -1,5 -1,8 3,0 5,-1 8,-1 0,0 0,3 -2,3 -2,1 -2,8 -2,10 0,1 1,1 1,2 -4,-1 1,5 1,5 2,3 23,27 23,28 0,2 -2,8 -4,10 -2,2 -4,12 -3,15 0,1 1,1 1,2 2,23 6,43 9,65 0,3 0,6 2,9 1,2 3,4 4,6 2,1 4,2 6,4 -1,1 -1,3 -2,4 -3,0 -7,0 -10,0 -2,1 -1,3 0,3 1,1 2,1 4,1 -2,0 -4,0 -6,1 -3,1 -9,1 -5,4 4,3 8,0 13,-2 3,1 6,1 9,2 1,2 1,4 2,5 3,2 4,6 5,10 0,2 1,5 1,7 2,2 4,3 6,5 0,2 0,5 0,7 -1,1 -4,6 -4,6 0,0 7,1 7,2 0,2 4,3 5,6 1,2 5,2 8,4 2,2 4,3 7,4 3,1 18,-2 21,-2 2,0 4,-1 5,-1 46,-10 101,-24 146,-30 5,0 11,0 16,-1 15,-1 37,-6 52,-9 10,-2 19,-3 30,-6 9,-2 30,-6 30,-6 0,0 5,-2 6,-1 0,2 5,3 6,0 1,-2 -3,-3 -3,-3 1,-2 2,-3 4,-3 1,0 2,0 3,-1 1,0 2,0 2,-1 0,-1 -3,-1 -4,-1 -4,0 -4,0 0,-2 1,-1 3,-1 4,-2 0,0 5,-1 1,-1 -3,0 -8,0 -8,0 0,0 2,-2 -1,-3 -2,0 3,-1 4,-2 3,-1 1,-1 0,-2 -2,0 -3,-1 -5,-1 -2,0 -5,-3 -5,-3 -1,-2 2,-2 -4,-3 -2,-1 -8,0 -2,-2 1,0 6,-2 4,-3 0,-1 0,-2 -1,-3 0,-1 -9,2 -10,2 0,-2 0,-2 2,-3 2,-1 0,-2 0,-2 0,-1 0,-1 1,-2 0,0 -4,0 -6,-1 -1,0 -4,-2 -4,-2 0,0 -19,-15 -18,-15 0,0 1,0 1,-1 -1,-2 -2,-4 -2,-5 -1,-1 -2,-3 -3,-4 -1,-2 -2,-5 -3,-8 2,0 4,1 6,1 -1,-1 -5,-4 -5,-5 0,-1 0,-2 -1,-3 -1,-1 2,-2 -1,-3 -2,-1 -10,-8 -10,-10 0,0 -7,-35 -6,-30 2,1 4,2 6,3 0,0 -1,-1 -1,-2 0,-1 1,-2 1,-2 0,0 0,-1 -1,-1 0,0 0,-2 -1,-2 -1,0 -4,1 -4,1 0,0 -2,-3 -1,-4 0,-1 -3,-6 -3,-7 -1,-2 -5,-1 -7,-7 -1,-2 0,-9 1,-12 1,-5 4,-20 0,-25 0,-2 0,-3 1,-5 1,-1 3,-2 4,-2 2,-1 4,-3 6,-4 -1,-1 -3,-2 -4,-4 0,0 0,-3 0,-4 0,-1 2,-2 1,-3 -2,-4 -4,-13 -4,-13 2,0 3,0 5,0 0,0 -1,-7 0,-8 0,-1 -2,-11 -2,-13 -1,-4 1,-24 -1,-26 -1,-1 6,-5 4,-8 -2,-4 -1,-3 -1,-7 0,0 -11,-5 -12,-6 -2,-5 -2,-10 -5,-14 -2,-3 -2,-9 -4,-12 -2,-2 -7,-13 -7,-16 0,-4 13,-13 6,-23 -7,-10 3,-1 2,-2 0,-1 1,-2 1,-2 2,-1 5,-3 7,-4 3,0 6,0 9,-1 1,-2 0,-3 -2,-3 -2,0 -5,0 -6,2 -98,-28 -199,-53 -297,-78 0,0 7,7 -2,5 -2,-1 -8,-3 -9,0 0,1 2,1 1,3 -1,2 -1,4 -4,5 -2,0 7,8 8,11 1,5 9,14 7,20 -1,4 -1,8 0,12 -4,-3 -7,-6 -11,-9 -1,3 -1,6 1,10 1,2 3,5 2,7 -2,0 -5,0 -7,0 -3,9 -4,17 2,25 3,3 6,5 8,9 3,4 -4,5 -4,5 0,0 0,6 -1,9 -1,2 2,7 2,7 1,5 1,10 2,15 0,0 -3,3 -4,5 -3,9 -7,19 -10,29 -1,5 1,11 5,15 0,1 -1,2 -1,3 1,6 3,12 4,18 0,0 1,2 1,3 1,3 0,5 -3,5 -6,-1 -4,-1 -8,2 -2,2 -3,5 -4,7 4,4 8,8 13,13 2,2 1,7 0,10z"/>
  <g id="_2684147989920">
   <path class="fil1" d="M973 4307l27 -26 -125 125 -27 26 125 -125zm-97 99c251,-251 -26,-470 68,-563l125 -125c-94,94 183,313 -68,563l-125 125zm192 -688c8,-8 18,-14 30,-20 9,-4 22,-15 34,-26l-125 125c-12,12 -25,22 -34,26 -13,6 -23,13 -30,20l125 -125zm-60 78c12,-12 23,-26 26,-35l125 -125c-3,9 -14,23 -26,35l-125 125z"/>
  </g>
  <path class="fil2" d="M911 4370c320,-282 -52,-528 125,-609 18,-8 54,-44 60,-61"/>
  <g id="_2684147988192">
   <path class="fil1" d="M3231 3306c0,384 226,182 141,512l-125 125c85,-330 -141,-128 -141,-512l125 -125z"/>
  </g>
  <path class="fil2" d="M3169 3369c0,384 226,182 141,512"/>
  <g id="_2684147987456">
   <path class="fil1" d="M4778 2250c-192,373 217,448 30,635l-1 1 -124 124c-17,17 -38,35 -66,53l104 -104c77,-153 -242,-246 -68,-584l125 -125z"/>
  </g>
  <path class="fil2" d="M4715 2312c-209,407 296,459 -35,688"/>
  <g id="_2684147988256">
   <path class="fil1" d="M7369 2280c0,355 85,401 230,678 20,37 17,153 17,199l-125 125c0,-46 3,-162 -17,-199 -145,-277 -230,-324 -230,-678l125 -125z"/>
  </g>
  <path class="fil2" d="M7307 2342c0,355 85,401 230,678 20,37 17,153 17,199"/>
  <g id="_2684147986528">
   <path class="fil1" d="M9037 2652c80,-137 -66,-272 -18,-320l0 0 124 -124c7,-7 19,-12 36,-15l-45 45c4,62 95,176 28,290l-125 125z"/>
  </g>
  <path class="fil2" d="M9099 2589c92,-157 -114,-313 18,-335"/>
  <g id="_2684147985408">
   <path class="fil1" d="M7512 3418c0,81 -35,160 26,212l-125 125c-62,-52 -26,-131 -26,-212l125 -125z"/>
  </g>
  <path class="fil2" d="M7450 3480c0,81 -35,160 26,212"/>
 </g>
</svg>
