<?xml version="1.0" encoding="UTF-8"?>
<!DOCTYPE svg PUBLIC "-//W3C//DTD SVG 1.1//EN" "http://www.w3.org/Graphics/SVG/1.1/DTD/svg11.dtd">
<!-- Creator: CorelDRAW 2017 -->
<svg xmlns="http://www.w3.org/2000/svg" xml:space="preserve" width="210mm" height="210mm" version="1.1" style="shape-rendering:geometricPrecision; text-rendering:geometricPrecision; image-rendering:optimizeQuality; fill-rule:evenodd; clip-rule:evenodd"
viewBox="0 0 21000 21000"
 xmlns:xlink="http://www.w3.org/1999/xlink">
 <defs>
  <style type="text/css">
   <![CDATA[
    .fil0 {fill:#FEFEFE}
   ]]>
  </style>
 </defs>
 <g id="Layer_x0020_1">
  <metadata id="CorelCorpID_0Corel-Layer"/>
  <path class="fil0" d="M14438 0l-7875 0c-3624,0 -6563,2939 -6563,6563l0 7875c0,3624 2939,6563 6563,6563l7875 0c3624,0 6563,-2939 6563,-6563l0 -7875c0,-3624 -2939,-6563 -6563,-6563zm2406 4856c0,-386 -313,-700 -700,-700 -386,0 -700,313 -700,700 0,386 313,700 700,700 386,0 700,-313 700,-700zm-6343 394c-2899,0 -5250,2351 -5250,5250 0,2899 2351,5250 5250,5250 2899,0 5250,-2351 5250,-5250 0,-2899 -2351,-5250 -5250,-5250zm0 8531c-1809,0 -3281,-1473 -3281,-3281 0,-1810 1473,-3281 3281,-3281 1809,0 3281,1471 3281,3281 0,1809 -1473,3281 -3281,3281zm8531 656c0,2533 -2061,4594 -4594,4594l-7875 0c-2533,0 -4594,-2061 -4594,-4594l0 -7875c0,-2533 2061,-4594 4594,-4594l7875 0c2533,0 4594,2061 4594,4594l0 7875z"/>
 </g>
</svg>
