<?xml version="1.0" encoding="UTF-8"?>
<!DOCTYPE svg PUBLIC "-//W3C//DTD SVG 1.1//EN" "http://www.w3.org/Graphics/SVG/1.1/DTD/svg11.dtd">
<!-- Creator: CorelDRAW 2017 -->
<svg xmlns="http://www.w3.org/2000/svg" xml:space="preserve" width="193.406mm" height="36.033mm" version="1.1" style="shape-rendering:geometricPrecision; text-rendering:geometricPrecision; image-rendering:optimizeQuality; fill-rule:evenodd; clip-rule:evenodd"
viewBox="0 0 19341 3603"
 xmlns:xlink="http://www.w3.org/1999/xlink">
 <defs>
  <style type="text/css">
   <![CDATA[
    .fil0 {fill:#E80303}
   ]]>
  </style>
 </defs>
 <g id="Layer_x0020_1">
  <metadata id="CorelCorpID_0Corel-Layer"/>
  <path class="fil0" d="M7944 787c-4,16 -8,32 -10,47l-2 7 -33 33c1,0 2,-1 3,-1 3,-1 4,-4 7,0 3,5 1,8 4,6 3,-2 7,-1 11,1 2,-3 4,-6 5,-9 2,-4 2,2 2,2 1,2 1,3 2,5 1,5 2,5 3,0 0,-1 1,-4 2,-4 0,0 0,3 0,3 0,1 0,3 0,4 0,2 1,4 -1,5 -3,-4 -13,-2 -17,-2 -23,4 5,6 11,6 4,0 4,3 3,7 3,10 3,25 3,36 0,12 0,23 0,36 -1,18 -2,45 -6,62 -2,6 -4,13 -6,18 -6,28 -9,75 -11,117 3,2 5,4 5,6 2,7 2,16 2,24 0,10 5,14 3,24 -2,10 0,19 -2,28 -1,4 0,9 2,13l16 -16c-14,16 -25,46 -34,85l-1 11c-2,7 -4,13 -5,20 -5,28 -10,60 -14,94l1 2c13,-7 16,-13 16,2 -1,14 -2,9 -11,11 -2,-1 -4,-1 -6,-2 0,3 1,6 1,9 0,3 -2,13 -5,14 -20,193 -25,429 -54,458l-125 125 -3 2 5 -5c18,-26 26,-132 35,-254 -9,18 -19,37 -29,55 -1,3 -3,7 -4,10 -8,16 -31,52 -43,64 -10,11 -24,29 -32,42 -17,32 -36,90 -52,127 -2,3 -14,31 -15,23 -1,3 -3,5 -4,8 -4,8 -27,37 -34,42 -5,4 -10,10 -14,15 5,-1 10,-2 15,-4 -9,11 -18,22 -27,32 -6,4 -12,9 -18,13 2,1 4,2 6,3 -1,3 -2,6 -3,10 -2,4 -13,14 -17,15 1,-4 2,-8 3,-12 -3,-2 -6,-4 -9,-6 -6,3 -11,6 -17,9 4,1 9,1 13,2 -6,14 -6,17 -19,27 -6,5 0,0 -6,2 -3,2 -5,4 -7,7 0,1 -1,2 -1,3 2,3 4,5 5,8 -9,10 -26,27 -32,38 -6,15 -13,31 -20,46 -10,10 -22,20 -33,28 -11,8 -11,12 -23,10 -11,1 -23,19 -29,27 -16,19 -32,38 -49,57 -4,4 -9,7 -13,11 -11,18 -25,34 -41,47 -40,32 -82,63 -124,93 -9,6 -18,11 -27,15 -19,16 -37,32 -56,47 -7,8 -15,16 -24,21 -14,9 -27,18 -41,28 -12,1 -23,7 -32,16 -9,9 -13,17 -21,27 -27,30 -84,60 -121,78 -7,0 -13,0 -20,1 -11,5 -24,15 -34,22 -17,12 -35,22 -54,30 7,-9 14,-17 20,-26 -24,15 -50,27 -75,38 -43,18 -76,42 -115,61 -15,7 -49,32 -60,34 -16,2 -35,8 -51,13 -11,3 -16,7 -25,10 -9,3 -25,8 -32,-2 -10,-8 -38,8 -48,13 -90,-94 -151,-207 -185,-333 -7,1 -15,1 -21,-2 -5,-4 10,-6 12,-7 6,2 12,5 19,7 11,0 23,0 34,-1 4,-1 9,-2 13,-3 -18,15 9,1 13,-2 42,-21 81,-21 122,-35 16,-7 48,-24 62,-35 12,-9 32,-16 45,-26 16,-13 36,-22 53,-33 4,-4 3,-12 1,-18 13,-6 16,-6 27,-15 13,-8 32,-11 43,-17 36,-23 77,-43 114,-68 16,-11 35,-26 51,-36 12,-7 25,-17 37,-25 4,0 7,0 11,0 16,-12 34,-27 48,-40 4,-4 11,-7 16,-10 6,-4 11,-8 17,-12 2,-4 4,-8 6,-12 11,-5 22,-11 33,-16 7,-3 14,-7 21,-10 8,-6 16,-13 24,-19 7,-12 103,-91 115,-102 57,-51 49,-53 83,-92 12,-12 22,-28 34,-41 7,-8 15,-17 21,-25 -4,3 -9,6 -13,8 -4,1 7,-9 8,-10 2,-3 5,-6 7,-9 4,-4 9,-8 13,-12 1,-1 6,-7 6,-7 1,-2 3,-3 4,-5 0,1 -2,7 -2,7 0,0 -1,7 -1,8 -1,1 4,-5 4,-5 63,-74 114,-145 167,-227 8,-12 39,-73 41,-85 3,-12 12,-19 16,-28 3,-8 10,-18 14,-26 8,-14 13,-31 19,-46 1,3 2,6 2,10 11,-23 22,-46 32,-69 5,-13 9,-25 14,-38 7,-16 13,-32 19,-47 1,-1 2,-2 3,-4 13,-30 28,-107 34,-142 1,-6 1,-11 1,-17 0,-5 -1,-9 -2,-14 2,-5 4,-9 6,-14 1,-5 2,-13 5,-17 -57,-3 -166,-9 -210,-3 -1,0 -1,1 -2,1 0,0 0,0 -1,0 -8,2 -48,0 -55,-3 -8,-3 -29,-4 -38,-4 -19,3 -73,24 -95,31 -5,1 -23,7 -19,2 -2,0 -4,1 -6,1 -5,1 -33,2 -38,0 -4,-1 -10,-1 -14,-2 3,3 6,6 9,10 -10,0 -19,0 -29,0 -5,-2 -10,-4 -15,-6 0,2 1,4 1,7 -2,1 -4,3 -6,4 -3,1 -13,0 -15,-3 3,-2 5,-4 8,-5 0,-4 -1,-7 -1,-11 -4,-2 -8,-4 -13,-7 2,4 3,7 5,11 -10,5 -11,7 -23,4 -5,-1 0,0 -4,-3 -3,-2 -6,-2 -9,0 0,3 -1,6 -1,9 -9,0 -31,-1 -38,3 -12,6 -23,12 -35,18 -11,0 -22,-1 -33,-3 -12,-2 -12,1 -18,-8 -6,-7 -22,-2 -30,0 -19,3 -37,7 -56,10 -4,0 -8,0 -13,0 -14,6 -30,10 -45,10l-49 0c5,38 1,90 -18,165l-125 125c21,-84 23,-140 15,-179l-36 36 -21 19 37 -37c9,-11 15,-22 17,-32 -5,-18 -13,-32 -23,-44 -14,-9 -34,-16 -61,-23 -12,-3 -22,-6 -31,-9l-3 2c-26,12 -72,13 -101,13 -4,-3 -8,-5 -13,-8 -8,0 -20,3 -28,5 -14,4 -28,5 -43,5 7,-5 14,-11 20,-16 -19,4 -39,5 -58,5 -35,1 -56,11 -88,16 -13,2 -38,14 -45,13 -9,-3 -25,-3 -35,-3 -9,0 -11,2 -18,3 -9,0 -18,0 -20,-11 -5,-9 -25,-3 -33,0 -44,-117 -68,-242 -73,-366 -5,-1 -11,-2 -15,-7 -3,-5 7,-4 10,-4 4,4 8,7 13,11 8,2 17,4 25,7 3,0 7,0 10,0 -15,10 5,3 10,1 36,-11 64,0 97,-1 13,-2 42,-9 54,-14 10,-5 29,-5 40,-9 15,-6 34,-8 49,-12 5,-2 6,-11 6,-16 12,-1 13,0 25,-4 12,-3 28,3 38,1 32,-6 76,-7 110,-12 15,-3 37,-7 52,-8 12,0 26,-3 38,-4 3,2 5,4 8,5 17,-3 37,-6 53,-9 5,-1 11,0 16,0 6,0 12,-1 18,-1 3,-2 7,-4 10,-7 11,2 21,3 32,5 7,1 14,3 20,4 9,0 18,-1 27,-1 16,-7 118,-9 136,-9 63,-1 72,-9 110,-13 15,0 33,-5 48,-5 10,0 20,-1 30,-2 -5,-1 -9,-2 -14,-4 -3,-2 11,-1 11,-1 3,0 7,-1 10,-1 5,1 11,1 17,1 4,0 9,-1 14,-1 -4,3 -8,5 -11,8 80,-4 161,-9 240,-12 11,0 72,-9 80,-13 10,-4 19,0 28,-1 2,0 14,-1 14,-1 0,0 7,0 8,0 10,0 24,-4 34,-5 -2,2 -4,4 -6,6 21,0 42,0 63,-1 13,-1 26,-1 39,-1 18,0 37,1 55,1 2,1 3,1 5,2 44,3 128,-4 175,-7 7,-1 14,-2 20,-3 5,-1 11,-3 15,-5 6,1 12,2 18,3 6,0 17,-1 22,2 6,4 17,4 25,5 -3,-3 -16,-13 -7,-13 9,1 18,1 27,2 7,-1 13,1 17,7 2,3 3,4 5,4 11,-36 23,-69 23,-79 1,-27 -1,-50 -5,-70 -3,-2 -5,-5 -5,-6 0,-2 -1,-3 -3,-4 -1,3 -3,6 -4,9 -2,-2 -5,-5 -7,-7 0,-3 0,-5 0,-8 -1,2 -3,3 -4,5 -1,0 -3,1 -4,1 -2,0 -3,-3 -2,-6 2,-1 4,-1 6,-2 2,-3 5,-5 7,-8 0,-3 1,-5 1,-8 -2,3 -4,6 -6,9 -4,1 -8,3 -8,-3 0,-2 0,0 1,-3 0,-2 0,-2 -2,-2 -2,2 -5,4 -7,6 -3,-2 -8,-8 -11,-7 -7,2 -14,3 -21,5 -3,-3 -5,-6 -6,-10 -2,-6 -3,-4 1,-10 3,-6 -3,-7 -7,-7 -7,-2 -14,-4 -21,-5 -1,-1 -2,-2 -3,-3 -6,1 -13,1 -18,-3 -9,-9 -18,-18 -27,-27 -2,-2 -3,-5 -4,-7l-5 -2c-43,-1 -82,3 -100,-9 2,-12 5,-23 7,-34l0 0c-5,-1 -10,-3 -14,-7 5,-2 11,-4 16,-6 -7,-2 -13,-6 -18,-11 -10,-9 -22,-6 -33,-11 -7,-3 -20,1 -21,-2 0,-4 -4,-8 -7,-11 -3,-3 -5,-1 -6,-3 -4,-5 -1,-8 3,-13 5,-7 -3,-8 -8,-9 76,-96 160,-186 247,-272 -1,-3 0,-6 1,-8 2,-2 4,-3 5,0 -2,4 -3,7 -5,11 0,4 1,7 1,11 1,1 2,2 2,3 -7,2 -7,3 1,3 16,1 17,17 24,23 3,2 19,4 23,3 4,-1 12,3 16,3 7,-1 13,2 20,3 3,0 10,-7 13,-10 4,3 3,3 9,3 4,0 6,10 8,10 3,0 27,15 33,17 3,1 16,5 17,6 2,2 9,4 11,6 -1,2 -1,4 -2,6 5,2 14,4 19,5 2,0 3,3 4,4 1,1 5,3 5,3 2,-1 5,-2 7,-2 1,4 2,7 3,11 1,2 1,5 2,7 2,2 5,3 7,5 8,-2 32,19 38,24 30,26 32,14 35,16 3,3 12,4 15,7 2,2 9,5 9,5 0,0 -1,-4 -1,-6 0,-2 3,1 4,2 1,1 2,1 3,2 0,0 2,3 3,5 1,1 4,2 4,2 -3,1 -6,2 -8,3 22,15 48,32 70,49 3,3 26,12 30,11 5,-1 6,6 9,6 2,0 6,4 8,6 3,3 12,5 16,7l-5 3 1 2c6,5 13,10 20,14 4,2 9,5 13,7 5,4 10,7 15,11 0,1 0,1 0,2 4,4 45,21 53,24 0,0 5,1 7,2 2,0 8,-1 8,-1 1,2 2,3 4,5 2,1 6,3 6,5 -1,4 2,6 4,8 1,-1 4,-13 6,-11 2,2 5,5 7,7 4,1 2,6 1,9 -4,7 2,4 6,4 10,0 6,1 12,6 3,2 9,5 12,5 3,-1 5,0 8,1 3,0 5,-1 3,3 -1,4 -5,6 -2,6 4,0 6,6 6,6 0,0 7,-2 10,-3 4,-2 0,3 1,3 -1,2 -1,4 -2,5 -2,5 -1,6 3,3 2,-1 4,-2 6,0 1,1 0,0 -2,3 -1,2 -1,1 -3,3 -3,3 1,8 1,8 4,1 7,3 10,6 3,5 -5,4 -8,1 -3,-2 -5,1 -6,3 -10,6 -20,14 -28,22 -10,11 -17,14 -28,23 -14,11 -35,29 -50,39 -6,3 -11,5 -17,9 -30,23 -78,71 -112,106 -14,30 -8,64 50,128l-125 125c-111,-120 -30,-135 8,-218 -2,-1 -5,-1 -6,-2 -2,-2 -7,1 -10,2 0,0 -2,-6 -1,-9 -2,-3 -4,-5 -6,-8 -3,-1 -7,-2 -10,-2 -3,-3 -5,-5 -8,-8 -3,-3 -9,-8 -13,-8 -2,-2 -5,-3 -7,-5 -3,2 -7,3 -10,5 -3,7 -3,12 -10,12 -6,0 -2,-3 1,-8 2,-2 3,-3 5,-5 -2,0 -3,1 -5,1 -2,0 -5,-1 -3,-3 3,-2 7,-5 10,-7 -1,-2 -2,-4 -2,-6 -3,0 -6,0 -9,1 -3,-1 -6,-2 -9,-3 -4,-2 -7,-5 -10,-8 -17,-15 -37,-30 -57,-44zm464 -291c2,-2 5,-4 7,-6 2,0 3,1 2,2 -1,3 -1,1 -1,3 1,6 5,4 9,3 2,-3 4,-6 6,-9 0,3 -1,5 -1,8 -2,3 -5,5 -7,8 -2,1 -4,1 -6,2 -1,2 0,6 2,6 2,0 3,-1 5,-1 1,-2 3,-3 4,-5 0,3 0,5 0,8 3,3 5,5 8,8 1,-3 3,-6 4,-9 1,1 3,3 3,5 0,2 8,10 10,10 1,0 2,0 3,1 -5,2 7,3 7,3 6,0 47,2 48,3 2,2 7,10 7,13 0,4 10,16 13,17 1,0 2,1 3,1 21,16 47,35 67,53 3,3 5,5 8,7 3,1 5,2 8,3 3,0 5,-1 8,-1 1,2 1,4 2,5 -3,2 -7,5 -10,7 -2,2 1,3 3,3 1,0 3,-1 4,-1 -2,2 -3,3 -5,5 -3,4 -8,7 -2,7 6,-1 7,-6 11,-12 3,-2 6,-4 10,-5 2,1 4,2 5,4 4,0 8,3 11,5 2,2 4,4 6,6l8 1c1,3 3,6 4,9 0,2 0,3 0,5l1 -1c19,53 14,114 -46,188l-8 17 125 -125 8 -17c48,-60 61,-112 54,-157 19,-18 38,-35 55,-49 6,-4 11,-7 16,-10 16,-11 34,-27 49,-39 10,-8 18,-13 28,-23 9,-8 18,-16 28,-23 1,-2 3,-5 6,-4 2,2 9,1 7,-2 -1,-3 -4,-3 -7,-3 -1,-2 -1,-5 1,-7 1,-1 2,-1 3,-3 1,-2 2,-2 2,-2 -2,-2 -3,0 -5,1 -4,3 -5,2 -2,-2 1,-2 2,-3 3,-5 0,0 4,-4 0,-2 -3,1 -9,4 -9,4 0,0 -1,-5 -4,-4 -3,0 1,-2 3,-5 2,-4 0,-2 -2,-2 -3,0 -4,-1 -7,1 -3,1 -7,-1 -10,-2 -4,-4 -1,-5 -9,-4 -3,0 -9,4 -5,-3 1,-2 4,-7 0,-7 -2,-2 -4,-4 -5,-6 -2,-2 -6,9 -7,10 -2,-2 -4,-3 -3,-7 0,-2 -2,-4 -4,-4 -1,-1 -2,-3 -3,-4 0,0 -5,2 -8,2 -2,0 -7,-1 -7,-1 -8,-3 -43,-16 -47,-20 0,-1 0,-1 0,-2 -5,-3 -9,-7 -14,-10 -4,-2 -8,-4 -12,-7 -7,-5 -14,-10 -21,-15 2,-1 4,-2 6,-3 -4,-1 -13,-4 -16,-7 -2,-2 -6,-6 -8,-6 -2,0 -4,-7 -9,-7 -4,1 -28,-10 -31,-13 -24,-19 -52,-39 -77,-58 3,-1 6,-2 9,-2 0,0 -3,-2 -5,-3 -2,-2 -4,-5 -4,-5 -1,-1 -2,-1 -4,-2 -1,-1 -4,-4 -4,-2 0,2 1,7 1,7 -3,-2 -8,-4 -10,-7 -4,-4 -14,-6 -17,-10 -4,-2 -7,9 -40,-21 -6,-5 -35,-32 -45,-31 -3,-2 -6,-4 -8,-6 -1,-3 -2,-6 -3,-8 -2,-4 -3,-8 -5,-12 -2,1 -5,1 -7,2 0,0 -4,-2 -6,-4 -1,-1 -2,-4 -4,-4 -6,-1 -15,-5 -21,-7 1,-2 1,-4 2,-6 -3,-2 -10,-5 -13,-7 -2,-2 -16,-7 -20,-8 -6,-2 -34,-19 -37,-19 -2,0 -5,-11 -9,-10 -6,0 -5,0 -9,-3 -2,2 -10,9 -13,10 -7,-1 -14,-4 -21,-3 -4,0 -13,-4 -17,-3 -4,1 -20,-1 -23,-2 -7,-5 -8,-21 -24,-21 -9,1 -8,-1 -1,-3 -1,-1 -2,-1 -2,-2 0,-3 -1,-7 -1,-10 1,-3 3,-7 4,-10 -2,-3 -4,-1 -5,1 -1,2 -2,5 -1,8 -83,89 -163,184 -236,281 5,0 12,0 7,7 -3,4 -7,8 -3,12 2,2 3,-1 6,2 3,3 7,6 6,10 1,3 13,-1 20,1 11,4 22,1 33,9 5,5 11,9 18,10 -5,2 -11,4 -16,6 4,4 9,6 14,7 3,0 9,1 11,3 -1,3 -2,6 -2,9 9,9 22,18 36,16 5,-1 10,-3 15,-4 5,0 6,4 5,8 4,2 8,5 11,7 3,2 7,2 10,2 7,3 13,6 20,8 1,3 2,6 4,8 10,10 21,21 31,31 5,5 13,5 20,5 1,1 2,2 4,3 8,3 15,5 23,8 5,1 11,2 8,8 -4,7 -3,4 -1,11 2,4 4,8 7,11 8,-1 15,-2 23,-3 4,0 10,6 13,8zm4498 825c2,2 4,4 5,5l-7 -4 2 -2zm-10 10c12,13 25,26 39,37 15,12 32,24 47,36 5,8 11,15 16,23 44,33 88,54 141,69 25,6 50,11 75,10 20,-2 37,-5 57,-7 17,-2 33,-2 50,-1 4,0 8,1 12,1 28,-4 53,-10 81,-18 17,-5 33,-13 48,-23 12,-6 22,-12 33,-18 14,-9 27,-18 40,-27 8,101 -16,221 -63,278l125 -125c42,-52 66,-156 64,-251 9,-10 19,-20 28,-31 13,-15 24,-29 35,-45 17,-25 29,-52 35,-82 3,-7 7,-15 10,-22 6,-20 10,-40 14,-61 3,-15 4,-29 5,-44 0,-14 0,-47 7,-58 10,-11 7,-18 9,-34 1,-21 1,-42 -2,-63 -2,-4 -4,-9 -6,-13 -8,-17 -16,-32 -26,-48 -9,-18 -17,-45 -26,-64 -3,0 -6,1 -9,1 -3,-4 -6,-9 -7,-14 0,-7 2,1 -1,-7 -6,-18 -10,-21 -23,-34 -1,4 -3,9 -5,13 -2,-7 -4,-15 -6,-22 0,0 0,0 0,0 3,-3 5,-5 8,-8 0,0 2,1 2,2 3,2 6,5 10,7 0,-3 -2,-8 -4,-11 -1,-2 -7,-12 -8,-13 -3,-2 -6,-5 -10,-7 -1,2 -3,4 -4,5 -4,-8 -7,-16 -11,-24 -10,-13 -22,-26 -33,-39 1,6 2,12 3,18 -5,-6 -11,-12 -15,-19 -9,-13 -35,-35 -49,-44 -3,-2 -6,-4 -10,-6 5,0 -5,-6 -8,-8 -6,-3 -13,-6 -20,-9 -63,-25 -92,-25 -154,-38 -7,-2 -14,-4 -21,-6 -11,-3 -25,-7 -36,-11 -16,-7 -67,-13 -85,-11 -4,0 -8,1 -12,1 -25,1 -49,3 -74,7 -81,15 -144,38 -216,77 -12,6 -22,13 -33,20 -14,9 -27,18 -40,29 -8,8 -17,17 -24,26 -4,7 -8,14 -12,21 -2,1 -3,3 -5,4 -4,4 -9,7 -13,11 -1,-5 -2,-10 -3,-14 -4,0 -11,11 -13,15 -1,4 -3,7 -4,11 -2,-1 -3,-3 -5,-4 -11,0 -9,-6 -16,10 -7,18 -1,11 15,6 0,6 0,12 0,18 -6,9 -11,18 -16,27 -4,15 -16,39 -22,54 0,0 -1,2 -1,2 -4,11 -6,19 -9,31 -6,58 -20,66 -16,129 -28,119 13,208 84,320 44,69 26,51 26,121l55 -55zm238 -335c2,5 10,14 8,5 -1,-5 -3,-10 -7,-14 0,-3 0,-8 3,-9 2,0 2,0 4,-1 3,-1 3,0 3,-1 -1,-3 -2,-3 -5,-4 -5,-1 -5,-2 -1,-5 2,-1 3,-2 5,-3 0,0 5,-1 1,-2 -3,-1 -10,-3 -10,-3 0,0 2,-5 -1,-7 -2,-1 2,-1 5,-3 4,-2 2,-2 0,-3 -2,-1 -3,-3 -6,-3 0,0 -1,0 -1,-1 -2,-2 -3,-4 -4,-6 -1,-3 3,-2 -4,-5 -2,-1 -9,-3 -1,-2 2,0 7,1 5,1 0,0 0,0 0,0 0,0 0,0 0,0 -1,0 -3,-1 -4,-2 -2,-1 -5,-2 -7,-3 0,0 0,0 0,0 0,0 3,1 3,1 2,1 1,1 0,0 0,0 1,1 1,1 0,0 -4,-2 -6,-4 -1,-1 -3,-3 -3,-3 -1,-1 -1,-2 -2,-4 -2,-10 5,-19 11,-25 0,0 9,-6 10,-6 1,0 2,0 3,0 9,-5 19,-10 28,-14 6,-4 13,-7 20,-10 11,-4 20,-7 31,-10 1,0 3,-1 4,-1 -1,2 -2,5 -3,7 0,0 0,0 0,0 0,0 0,0 0,0 6,-3 16,-8 23,-8 3,0 10,0 12,-1 3,-1 9,3 13,0 4,-3 14,-4 18,-5 3,-1 17,0 20,1 13,4 21,7 33,13 16,9 28,19 40,33 4,5 8,11 12,17 -3,0 -6,-1 -9,-1 0,0 3,3 3,5 1,2 1,6 1,6 1,1 2,2 2,3 0,1 1,5 3,4 1,-2 2,-6 2,-6 2,3 4,7 5,11 0,1 1,2 1,3 2,4 6,11 6,15 1,3 12,0 8,29 -1,6 -2,11 -5,16 -6,13 -11,23 -19,35 -2,3 -17,23 -17,27 -4,4 -8,8 -13,12 -5,2 -9,3 -14,5 -8,3 -16,6 -24,8 -1,3 -3,7 -4,10 0,0 0,0 0,0 0,0 -4,3 -5,4 -1,1 -4,0 -5,2 -2,3 -6,7 -9,10 -1,0 -1,1 -2,1 -1,-2 -1,-4 -2,-5 -2,1 -7,3 -9,3 0,0 -7,1 -7,1 -4,1 -8,1 -12,0 -22,-4 -38,-19 -54,-31 -2,-1 -4,-7 -5,-9 -2,-4 -5,-11 -8,-13 -8,-5 -7,-6 -12,-13 -4,2 -13,5 -16,3 -10,-10 -17,-22 -26,-32 -8,-10 -5,-13 -5,-12zm-11967 179c0,-3 1,-6 1,-9 2,-1 5,-1 7,0 3,2 -1,1 3,3 10,3 11,1 19,-4 -1,-4 -3,-7 -4,-11 4,2 7,5 11,7 0,4 1,7 1,11 -2,2 -4,4 -7,5 2,2 10,4 13,3 2,-1 4,-3 5,-4 0,-2 -1,-4 -1,-7 4,2 9,4 13,6 8,0 17,0 25,1 -2,-3 -5,-6 -7,-10 4,0 9,0 12,2 4,2 28,2 32,1 2,0 4,-1 5,-1 -3,4 12,-1 16,-2 18,-7 68,-28 83,-30 8,0 26,2 33,5 6,3 42,5 49,4 2,0 5,-1 7,-1 69,-2 141,-6 210,-6 10,0 19,1 28,-1 7,-1 14,-2 20,-4 4,-2 9,-4 13,-6 4,1 9,2 13,3 -2,4 -3,8 -5,12 1,3 9,1 11,0 2,-1 4,-3 6,-4 0,2 0,4 0,7 3,7 0,11 10,7 10,-4 5,-6 -2,-16 3,-3 6,-7 9,-10 6,0 12,-1 18,-1 8,-3 25,-3 33,-3 8,0 16,0 25,1 7,-2 13,-3 20,-5 7,1 15,1 22,2 5,2 11,4 16,6 3,-4 8,-7 13,-8 8,0 13,-3 22,-4 8,0 10,-6 18,-8 6,-1 13,-3 18,-6 4,-3 8,-20 8,-25 0,-2 0,-4 0,-7 2,-36 7,-150 16,-177 5,-8 8,-12 13,-18 6,-11 16,-48 20,-62 4,-15 11,-19 10,-36 0,-12 4,-25 10,-36 -4,-5 -1,-6 4,-7 6,0 25,-4 11,-6 -8,-1 -16,0 -24,2 -3,0 -13,-2 -14,-6 0,-3 1,-2 0,-4 -1,-3 2,-3 -1,-3 -4,0 -7,0 -9,4 -4,5 -6,4 -10,0 -2,-2 -3,-4 -5,-5 -1,-3 -3,-4 -5,-2 -3,3 -10,9 -10,9 -5,-1 -13,-3 -18,0 -5,2 -1,-1 -6,-6 -5,-4 -6,-2 -10,0 -5,2 -10,2 -14,5 -5,3 -19,4 -26,5 -15,0 -13,-3 -28,3 -6,2 -11,9 -16,1 -3,-5 -9,-7 -15,-6 -7,0 -15,0 -22,-1 -7,0 4,10 6,12 -6,0 -15,1 -20,-3 -4,-2 -12,-1 -17,0 -4,0 -9,-1 -13,-1 -3,3 -7,5 -11,6 -5,1 -10,3 -15,4 -29,4 -99,17 -124,17 -1,0 -2,-1 -4,-1 -14,1 -28,1 -42,2 -11,1 -22,2 -32,3 -20,1 -40,2 -60,3 2,-2 4,-4 6,-6 -12,2 -27,6 -39,6 -6,0 -17,-1 -22,1 -8,1 -16,-3 -25,1 -6,4 -61,12 -70,12 -68,2 -138,6 -206,9 3,-3 7,-5 10,-8 -4,0 -8,1 -12,1 -4,0 -9,-1 -14,-1 -3,0 -6,1 -8,1 -1,0 -12,0 -10,1 4,2 8,3 11,4 -8,1 -17,2 -25,2 -13,0 -27,4 -40,5 -31,3 -32,11 -92,11 -14,0 -100,0 -113,7 -7,0 -15,1 -22,1 -6,-1 -11,-3 -17,-4 -9,-2 -17,-4 -26,-6 -3,2 -6,4 -9,6 -5,0 -10,1 -15,1 -4,0 -10,-1 -14,0 -14,3 -31,6 -45,8 -2,-2 -4,-4 -6,-6 -10,1 -22,3 -32,3 -12,1 -31,5 -44,7 -29,4 -67,4 -94,9 -4,1 -25,-5 -33,-2 -10,4 -11,3 -22,3 -1,4 -2,14 -6,16 -14,4 -31,5 -43,11 -10,4 -27,4 -36,8 -10,5 -37,12 -48,13 -30,0 -54,-11 -87,-1 -5,2 -23,8 -9,-2 -3,0 -6,0 -9,0 -8,-2 -15,-5 -23,-7 -4,-4 -8,-7 -11,-11 -3,0 -12,-1 -9,4 3,4 9,6 14,7 1,124 18,250 55,368 7,-3 26,-8 30,1 2,10 9,11 18,11 6,0 7,-2 16,-2 9,0 23,0 31,4 6,1 28,-10 41,-12 16,-2 29,-6 42,-9l73 3 -5 4c11,0 22,-1 32,-3l39 2 1 1c4,0 9,0 14,0 127,6 192,11 218,20 -6,6 -12,11 -18,17l-125 125c-12,12 -24,25 -35,39 -13,2 -26,4 -38,6 -3,-2 -5,-4 -8,-6 -13,1 -28,4 -40,4 -16,1 -38,6 -55,8 -36,5 -82,6 -116,12 -11,1 -27,-4 -40,-1 -12,4 -14,3 -27,4 -1,5 -2,14 -7,16 -17,4 -37,6 -52,12 -13,4 -32,5 -43,10 -13,5 -44,13 -58,15 -36,1 -66,-9 -104,2 -5,2 -27,9 -11,-1 -4,0 -7,0 -11,0 -9,-2 -18,-4 -27,-7 -5,-4 -9,-7 -14,-11 -3,0 -14,-1 -11,4 4,4 10,6 16,7 3,64 11,129 25,192 -13,71 -19,62 33,120 7,20 14,39 22,58 5,-2 17,-5 25,-5 16,19 35,42 58,71 84,106 46,48 48,155 0,14 0,27 -2,37l-24 24 16 -9 125 -125c12,-12 11,-30 11,-52 -1,-89 24,-64 -15,-114 5,-1 10,-1 16,-1 20,0 42,-2 62,-5 -7,5 -14,11 -21,16 15,0 31,-2 45,-5 8,-2 21,-6 30,-6 4,3 9,5 13,8 30,0 80,-2 107,-14 9,-5 15,-10 24,-13 9,-3 18,-2 27,3 12,-1 25,-2 37,-3 8,0 16,-2 24,-6 19,-3 37,-5 56,-8 8,1 16,2 24,3 40,0 80,0 120,0 16,-1 33,-4 48,-11 4,0 9,0 13,0 20,-4 39,-7 59,-11 8,-2 25,-7 32,0 6,9 7,6 19,8 11,2 23,3 35,3 12,-6 25,-12 37,-19 8,-3 31,-3 40,-3 1,-3 1,-6 2,-9 3,-1 6,-2 9,0 4,2 -1,1 4,3 12,3 13,1 24,-4 -2,-4 -4,-7 -5,-11 4,2 9,4 13,7 0,4 1,7 1,11 -3,2 -5,4 -8,5 2,2 13,4 16,3 2,-1 4,-3 7,-4 0,-2 -1,-4 -1,-7 5,2 11,4 16,6 10,0 21,0 31,0 -3,-3 -6,-6 -9,-10 5,0 10,0 15,2 5,2 34,1 40,0 2,0 4,-1 7,-1 -4,5 16,-1 20,-3 24,-8 80,-29 101,-32 11,0 30,1 40,4 8,3 50,5 59,3 3,0 5,-1 8,-1 45,-2 91,-4 137,-5 2,9 4,19 4,27 -1,29 5,46 -2,76 -4,15 -8,33 -9,49 -3,-7 -7,-14 -10,-21 -3,11 -6,24 -6,36 0,7 0,17 -3,24 -4,2 -7,5 -11,7 -8,23 -22,61 -20,85 2,9 4,15 4,23 0,8 -5,15 -12,18 -3,9 -7,20 -12,29 -3,6 -4,13 -5,20 -5,15 -11,30 -17,45 -5,5 -9,10 -13,16 -19,29 -40,57 -62,83 -1,1 -7,9 -7,10 -4,8 -7,16 -9,25 -2,2 -4,5 -6,7 -7,13 -15,26 -22,39 -3,6 -9,18 -17,17 -9,-3 -7,-2 -16,4 -7,5 -15,10 -21,16 -3,11 -7,22 -10,33 -3,7 -18,18 -23,23 2,3 3,5 5,8 -1,3 -3,4 -6,5 -4,0 0,-2 -4,0 -10,4 -9,6 -14,15 3,2 7,4 10,6 -4,0 -9,1 -13,1 -2,-3 -5,-5 -7,-8 1,-3 2,-6 2,-8 -3,-1 -11,4 -12,6 -1,2 -1,4 -2,7 2,2 3,3 5,5 -5,1 -10,2 -14,3 -7,5 -15,10 -22,15 4,1 8,2 12,3 -3,2 -8,5 -12,6 -4,1 -26,15 -30,19 -1,1 -3,3 -4,4 1,-6 -11,8 -14,12 -15,18 -52,61 -69,73 -4,2 -9,4 -14,6 -5,2 -13,5 -19,5 -6,0 -37,12 -42,16 -2,1 -3,3 -5,4 -58,29 -126,58 -188,78 -9,3 -18,5 -27,9 -6,3 -13,6 -19,9 -4,3 -8,7 -11,10 -5,0 -9,1 -14,1 1,-4 1,-9 2,-13 -2,-2 -9,1 -11,3 -2,2 -3,4 -5,5 -1,-2 -1,-4 -2,-6 -5,-6 -3,-10 -11,-4 -9,7 -3,8 6,15 -2,4 -4,8 -6,12 -6,2 -12,4 -18,6 -7,5 -25,10 -33,11 -9,2 -17,4 -26,5 -7,3 -13,6 -20,9 -8,1 -16,2 -24,3 -6,-1 -12,-2 -18,-2 -3,5 -7,9 -12,10 -8,2 -13,6 -23,8 -9,1 -10,8 -18,11 -6,3 -14,6 -19,9 -4,3 -6,21 -5,26 0,2 1,4 1,7 4,36 18,150 11,178 -5,9 -8,13 -13,21 -5,11 -12,51 -14,65 -2,15 -11,21 -7,37 2,13 -1,26 -7,37 7,4 1,6 -4,7 -5,1 -31,8 -12,8 10,0 20,-2 30,-6 4,0 17,-1 19,3 0,4 -1,2 1,4 2,3 -3,3 2,3 5,-1 8,-1 11,-5 4,-6 8,-5 13,-2 2,1 5,3 7,4 2,4 4,3 7,1 4,-4 8,-8 12,-11 7,0 16,0 23,-3 6,-3 2,1 9,4 7,3 7,1 13,-2 5,-3 12,-4 16,-8 6,-4 23,-8 31,-10 17,-4 17,-1 33,-10 7,-4 12,-12 20,-5 6,4 13,4 19,2 9,-2 18,-4 27,-6 8,-2 -7,-8 -10,-10 7,-1 17,-5 24,-2 6,1 15,-2 21,-5 5,-1 11,-2 16,-3 3,-4 7,-7 12,-10 5,-3 11,-5 16,-8 41,-16 102,-47 138,-59 2,0 3,0 5,0 15,-6 31,-12 46,-18 12,-5 23,-11 35,-16 21,-10 43,-19 64,-29 -1,3 -2,6 -4,9 12,-7 26,-17 39,-23 7,-3 17,-7 23,-11 8,-5 18,-5 25,-13 5,-6 24,-18 31,-23 15,-9 32,-21 47,-30 84,-47 170,-108 243,-171 -2,5 -4,10 -6,15 4,-4 8,-8 12,-11 5,-4 11,-8 16,-11 3,-3 6,-6 8,-8 1,0 13,-11 9,-10 -5,2 -10,5 -15,7 8,-8 16,-17 25,-24 13,-12 24,-28 37,-40 17,-19 49,-66 76,-95 9,-10 17,-20 26,-31 13,-16 66,-85 71,-106 6,-9 12,-19 18,-29 6,-6 12,-13 17,-19 8,-9 15,-18 22,-27 5,91 -34,182 -34,184l125 -125c0,-3 79,-186 -2,-294 10,-35 23,-78 27,-110 2,-11 12,-26 13,-40 0,-13 1,-15 3,-28 -5,-2 -13,-5 -13,-11 0,-17 4,-38 1,-54 -1,-13 2,-32 0,-44 -2,-13 -4,-45 -3,-58 2,-17 8,-33 11,-49 3,-2 6,-3 9,-4 8,0 14,-3 24,-4 9,0 11,-6 19,-8 6,-2 14,-3 19,-6 5,-3 9,-20 9,-25 0,-2 0,-4 0,-7 2,-36 7,-152 16,-179 5,-8 9,-12 14,-19 6,-11 17,-49 21,-63 4,-15 12,-19 11,-36 0,-13 4,-25 11,-36 -5,-5 -1,-6 5,-7 6,0 26,-4 11,-6 -8,-1 -17,0 -25,2 -4,0 -14,-2 -15,-6 0,-3 1,-2 0,-4 -1,-3 3,-3 -1,-3 -4,0 -7,0 -10,4 -4,5 -7,4 -11,0 -2,-2 -4,-4 -6,-5 -1,-4 -3,-4 -6,-2 -4,3 -11,9 -11,9 -6,-1 -14,-3 -19,0 -6,2 -1,-1 -7,-6 -5,-4 -6,-2 -11,0 -5,2 -11,2 -15,5 -6,3 -21,4 -28,5 -16,0 -14,-3 -30,3 -6,2 -13,9 -18,1 -4,-5 -10,-7 -16,-6 -8,0 -17,0 -25,0 -8,1 4,10 7,12 -7,0 -16,1 -22,-3 -5,-2 -14,-1 -19,0 -5,0 -10,-1 -15,-1 -4,3 -8,5 -12,6 -5,1 -11,3 -16,4 -36,5 -111,18 -142,18 -1,0 -3,-1 -4,-1 -16,1 -33,1 -49,2 -13,1 -25,2 -38,4 -24,2 -48,2 -72,3 2,-2 5,-4 7,-7 -14,2 -32,6 -46,6 -8,0 -19,0 -27,1 -10,2 -19,-3 -30,1 -8,4 -74,13 -85,13 -85,3 -171,8 -255,12 4,-3 8,-5 12,-8 -5,0 -10,1 -15,1 -6,0 -12,-1 -18,-1 -4,0 -7,1 -11,1 -1,0 -15,0 -12,1 5,2 10,3 15,4 -10,1 -21,2 -32,3 -16,0 -34,5 -51,5 -40,4 -52,12 -116,13 -18,0 -127,2 -143,9 -9,0 -19,1 -28,1 -7,-1 -14,-3 -21,-4 -11,-2 -22,-3 -33,-5l-3 2c11,-34 26,-64 44,-90 34,-25 63,-43 77,-57l74 -74 24 1c13,0 26,-4 38,-10 4,0 7,0 11,0 16,-3 31,-6 47,-10 7,-2 20,-6 25,1 4,9 4,6 15,8 9,2 18,3 28,3 10,-6 20,-12 30,-18 6,-3 25,-2 32,-2zm3086 452c6,-4 7,-8 13,-18 -4,-1 -8,-2 -12,-4 6,-2 12,-4 18,-6 3,2 5,5 8,7 -2,4 -3,7 -5,11 4,0 15,-8 18,-11 1,-3 3,-6 4,-9 -2,-1 -4,-3 -5,-4 6,-3 13,-6 19,-9 10,-8 20,-16 29,-24 -5,0 -10,0 -15,0 4,-4 10,-8 15,-10 6,-3 31,-25 36,-30 2,-2 3,-4 5,-6 -1,7 13,-13 16,-17 15,-23 42,-74 56,-91 1,-1 3,-3 6,-5 4,41 1,80 -12,103l-16 16 9 -6 125 -125c20,-20 24,-65 20,-112 29,-31 61,-62 92,-89 10,-9 20,-17 29,-26 6,-7 13,-14 19,-22 3,-6 7,-11 10,-17 5,-3 11,-7 16,-10 1,5 2,9 3,14 3,1 10,-8 12,-10 1,-3 3,-6 4,-9 1,2 3,3 4,5 9,2 7,7 15,-4 8,-13 2,-10 -13,-9 1,-5 1,-11 2,-16 6,-6 12,-12 18,-19 2,-4 7,-9 9,-12 7,-8 16,-17 23,-24 9,-8 17,-17 26,-26 5,-8 11,-17 16,-25 8,-8 15,-16 23,-24 7,-4 13,-10 19,-15 0,-7 1,-14 5,-19 6,-8 9,-18 15,-28 0,-1 1,-2 1,-2 5,-10 4,-17 8,-27 3,-9 8,-20 9,-30 1,-7 -11,-19 -17,-22 -2,-1 -4,-2 -6,-3 -39,-20 -126,-62 -157,-84 -4,-4 -10,-11 -15,-14 -14,-9 -42,-19 -58,-23 -13,-3 -23,-5 -35,-7 -11,-2 -24,-4 -36,-2 -3,-2 -6,-3 -7,1 -1,4 -5,14 -7,6 0,-5 0,-10 4,-13 0,-3 -1,-6 -4,-7 -2,-1 -2,0 -4,-1 -2,-1 -3,0 -3,-1 1,-2 2,-2 5,-2 4,1 5,1 1,-2 -2,-1 -3,-2 -5,-2 -1,0 -5,-2 -1,-1 3,1 6,2 8,4 -2,0 -3,2 -2,3 1,3 -2,0 -6,-1 -4,-1 -2,1 -2,4 0,0 0,2 0,2 0,2 0,4 1,7 1,4 -3,11 -5,15 -7,10 -7,4 -10,18 -1,6 0,13 -8,11 -6,-1 -10,1 -14,6 -5,5 -11,11 -16,16 -5,6 10,4 13,4 -5,5 -11,12 -17,13 -4,1 -8,6 -10,8 -1,2 -3,3 -4,5 -4,3 -8,6 -12,10 -1,5 -3,10 -5,14 -3,5 -7,10 -11,15 -30,35 -83,97 -115,126 -2,1 -3,2 -5,3 -15,14 -30,29 -44,44 -11,12 -22,25 -33,37 -11,13 -23,26 -33,39 -1,3 -3,5 -5,8 -1,-2 -2,-4 -3,-6 -2,6 -5,14 -9,18 -3,3 -8,8 -10,11 -2,4 -11,7 -13,14 -2,8 -33,48 -40,54 -69,67 -137,130 -209,193 2,-5 5,-11 7,-16 -4,4 -9,9 -14,13 -6,5 -12,9 -19,14 -3,3 -7,7 -10,10 -1,1 -16,13 -12,11 6,-3 12,-6 18,-9 -10,10 -21,20 -32,29 -11,9 -22,20 -32,30 -4,-1 -7,-3 -11,-5 -4,3 -6,1 -6,-4 0,-6 -3,-20 -6,-9 -1,6 -1,13 1,19 -1,3 -2,11 -6,11 -3,0 -2,-1 -4,0 -3,1 -3,-2 -3,1 0,4 0,5 4,8 2,1 3,3 3,4 -3,3 -6,5 -8,8l-1 1c-2,0 -4,1 -3,3 -33,31 -52,54 -105,95 -51,39 -112,85 -159,129 -1,1 -5,5 -6,6 -9,7 -18,15 -27,22 -8,4 -16,8 -24,12 -12,7 -24,13 -36,20 -2,4 -5,9 -7,13 -6,5 -12,10 -18,14 -5,4 -13,7 -17,12 -15,16 -34,32 -50,47 -4,0 -7,1 -11,1 -12,10 -25,21 -37,30 -15,12 -33,29 -48,43 -32,27 -72,54 -101,81 -9,7 -27,12 -36,21 -9,10 -10,10 -21,18 2,4 6,13 3,17 -4,4 -9,9 -14,13 -11,10 -23,18 -33,29 -12,11 -30,23 -40,34 -10,12 -36,34 -49,43 -12,7 -36,15 -50,21 -16,7 -38,16 -53,27 -4,3 -22,17 -11,2 -3,1 -6,2 -9,3 -6,0 -13,0 -20,-2 -3,-3 -5,-6 -7,-10 -3,0 -2,2 -2,4 0,3 1,6 5,6 16,108 49,188 117,255l2 12c0,0 4,0 10,-1 21,19 45,37 73,54 11,-7 23,-14 35,-20 3,8 2,17 -3,28 -19,42 -33,87 -55,126l125 -125c11,-20 20,-41 29,-63 7,-3 13,-6 19,-8 9,-4 37,-34 51,-44 21,-15 41,-34 61,-50 10,-9 23,-19 34,-26 19,-12 39,-27 57,-42 -4,9 -8,18 -12,27 15,-9 29,-21 42,-33 7,-8 17,-18 26,-24 6,-1 12,-1 18,-2 31,-21 79,-55 101,-84 7,-11 10,-18 17,-28 7,-9 17,-15 29,-17 12,-10 25,-20 37,-29 8,-6 16,-14 22,-22 18,-16 36,-32 54,-49 9,-5 18,-10 26,-16 13,-10 26,-19 39,-29 17,-13 34,-25 51,-38 0,1 0,2 1,3 3,6 7,58 7,66 -3,65 -5,132 -7,197 -2,-3 -5,-7 -7,-10 0,4 0,8 0,11 -1,4 -2,9 -3,13 0,3 0,6 0,8 0,1 -1,12 0,9 2,-3 4,-7 5,-11 0,8 1,17 0,25 -1,13 2,27 1,40 1,30 8,32 4,91 -1,14 -8,99 -2,112 0,7 -1,15 -1,22 -2,5 -4,11 -6,16 -3,9 -5,17 -8,25 2,3 4,6 6,9 0,5 0,10 0,15 0,4 -2,9 -1,14 2,14 4,31 5,45 -2,2 -4,4 -6,6 0,10 1,22 1,32 0,12 3,32 4,44 2,28 0,67 4,93 1,4 -6,25 -4,32 3,10 2,11 2,22 4,1 13,2 15,7 3,13 4,30 9,43 3,10 3,26 7,35 4,10 10,37 11,47 -1,28 -13,52 -4,84 2,5 7,22 -2,9 0,3 0,6 -1,9 -3,7 -5,14 -8,21 -4,3 -8,7 -11,10 0,3 -1,11 3,9 4,-3 6,-8 7,-13 88,2 178,-3 265,-17 -2,12 -6,23 -11,35l-105 105c-70,70 -98,224 -98,316l125 -125c0,-74 18,-186 60,-264l75 -75c20,-4 39,-8 58,-13 -2,-7 -8,-24 2,-27 10,-1 11,-8 12,-16 0,-5 -2,-7 -2,-15 1,-8 1,-22 5,-29 0,-1 0,-2 0,-3 12,-44 2,-90 -20,-135 0,-8 -1,-16 -2,-23 5,6 10,12 14,18 1,-12 1,-24 -2,-36 -2,-7 -4,-17 -3,-23 3,-3 6,-6 9,-10 2,-24 4,-62 -5,-84 -4,-8 -8,-12 -11,-20 -2,-7 -1,-15 5,-20 0,-9 0,-20 0,-29 0,-7 -1,-13 -4,-19 -1,-15 -2,-29 -4,-44 2,-6 4,-12 4,-18 3,-31 6,-62 10,-93 1,-13 -2,-26 -7,-38 0,-3 1,-7 1,-10 -2,-15 -4,-31 -6,-46 -2,-7 -4,-20 3,-25 9,-3 6,-3 10,-14 3,-9 4,-18 5,-27 -5,-10 -10,-20 -15,-31 -3,-6 0,-24 0,-31 -3,-1 -6,-1 -9,-2 -1,-2 -1,-5 1,-7 3,-3 1,1 3,-3 4,-9 2,-11 -2,-19 -4,1 -7,2 -11,3 3,-3 5,-6 8,-10 4,0 7,0 11,0 2,2 3,5 5,7 2,-1 5,-10 4,-12 -1,-2 -2,-4 -3,-6 -2,0 -4,0 -7,0 2,-4 4,-8 7,-12 1,-8 2,-16 3,-24 -3,2 -7,4 -10,6 0,-4 1,-8 3,-11 2,-4 4,-27 3,-31 0,-2 -1,-4 -1,-5 4,4 0,-11 -1,-16 -3,-12 -24,-75 -24,-81 1,-7 4,-25 7,-31 3,-6 8,-39 7,-46 0,-2 -1,-4 -1,-7 2,-64 4,-130 7,-194 1,-9 2,-17 1,-26 -1,-6 -2,-12 -2,-18 -2,-4 -4,-8 -6,-12 1,-4 2,-8 4,-12 4,2 8,4 12,5 3,-1 2,-8 1,-10 -1,-2 -2,-4 -4,-6 2,0 4,0 7,1 6,-2 11,1 7,-8 -4,-10 -7,-5 -16,1 -3,-3 -7,-6 -10,-8 0,-5 0,-11 0,-16 -3,-7 -2,-22 -2,-29l1 -13zm11151 464c1,-3 1,-6 2,-9 3,-1 7,-1 10,1 4,3 -2,1 4,3 13,4 15,1 27,-3 -2,-4 -4,-7 -5,-11 5,2 10,5 14,7 0,4 1,7 1,11 -3,2 -6,3 -9,5 2,2 15,4 18,4 3,-1 5,-2 8,-4 0,-2 -1,-4 -1,-7 6,2 12,4 18,6 12,1 23,1 35,2 -3,-3 -7,-7 -10,-10 5,0 12,1 17,2 6,2 38,3 45,2 3,0 5,-1 8,-1 -5,5 19,-1 23,-2 30,-7 89,-25 116,-28 13,1 34,2 46,5 10,3 57,6 68,4 3,0 6,-1 10,-1 62,-1 125,-3 187,-5 30,-1 62,-2 92,0 11,1 23,2 34,2 8,-1 16,-1 25,-2 6,-2 11,-3 17,-5 5,1 11,3 16,4 -2,4 -5,8 -7,11 1,3 10,2 13,2 3,-1 5,-2 8,-3 0,2 -1,4 -1,7 4,7 -1,11 11,8 13,-3 7,-5 -1,-16 4,-3 8,-6 12,-9 7,0 15,1 22,1 10,-2 31,0 40,1 10,1 20,3 29,4 8,-1 16,-2 24,-2 9,2 18,3 27,5 6,3 13,6 19,8 4,-4 10,-6 16,-6 9,1 16,-2 26,-1 10,1 13,-5 22,-6 7,-1 15,-2 21,-5 5,-2 10,-19 11,-24 0,-2 0,-4 1,-7 4,-36 15,-150 25,-176 5,-7 9,-12 14,-18 6,-12 16,-48 20,-62 4,-16 9,-18 9,-36 0,-12 3,-24 8,-36 -3,-4 -2,-6 3,-7 6,0 17,-5 8,-7 -6,-1 -12,0 -18,2 -3,-1 -10,-2 -11,-6 0,-3 1,-2 0,-4 -1,-3 2,-3 -1,-3 -4,0 -5,0 -8,4 -3,5 -5,4 -8,-1 -1,-2 -3,-4 -4,-5 0,-3 -2,-4 -4,-2 -3,3 -10,9 -10,9 -5,-2 -11,-3 -16,-1 -5,2 -1,-1 -5,-6 -4,-4 -5,-2 -10,-1 -5,1 -10,1 -14,4 -6,2 -20,2 -26,2 -16,-1 -13,-4 -30,0 -7,2 -14,7 -18,-1 -4,-6 -10,-8 -16,-8 -9,-1 -18,-2 -26,-4 -9,-1 4,10 6,13 -7,-1 -18,-2 -24,-6 -5,-3 -15,-3 -21,-3 -6,-1 -11,-2 -17,-3 -5,2 -10,4 -15,5 -7,1 -13,1 -20,2 -56,0 -127,6 -180,4 -2,0 -4,-1 -6,-1 -20,0 -39,0 -59,1 -2,0 -4,0 -6,0 -14,1 -29,3 -43,4 -27,2 -54,2 -81,3 3,-2 5,-4 8,-6 -16,2 -36,6 -52,6 -9,0 -21,-1 -30,1 -11,1 -21,-3 -33,1 -17,5 -75,10 -95,10 -93,0 -186,1 -279,1 5,-2 9,-5 14,-7 -5,0 -11,0 -16,0 -6,0 -13,-1 -19,-2 -4,0 -8,0 -12,0 -1,0 -17,-1 -13,1 5,2 10,4 16,5 -11,1 -23,1 -35,1 -18,-1 -37,3 -55,2 -45,1 -60,8 -126,5 -19,-1 -136,-7 -154,-1 -10,0 -20,0 -30,-1 -8,-2 -15,-4 -23,-5 -12,-2 -24,-5 -35,-7 -4,2 -8,4 -12,6 -7,0 -14,0 -20,0 -6,0 -13,-2 -19,-1 -19,3 -41,4 -61,6 -3,-2 -6,-4 -8,-6 -14,1 -30,2 -43,1 -18,0 -42,3 -60,5 -40,2 -89,1 -128,6 -12,1 -30,-6 -44,-3 -14,3 -16,3 -30,3 -1,5 -3,14 -8,15 -19,3 -41,4 -58,10 -14,4 -35,4 -48,8 -15,5 -49,11 -64,13 -40,0 -73,-11 -116,-1 -5,1 -31,9 -12,-2 -4,0 -8,0 -12,0 -10,-2 -20,-5 -30,-7 -5,-4 -10,-7 -16,-11 -3,0 -15,-1 -12,4 5,5 12,6 18,7 6,126 35,251 84,367 9,-2 32,-9 38,1 3,11 14,11 23,11 7,0 11,-2 20,-2 12,0 29,0 40,4 8,1 37,-10 52,-12 36,-4 61,-13 101,-12 21,1 44,0 66,-2 -8,5 -16,10 -24,15 16,1 33,0 48,-3 9,-2 22,-4 32,-4 5,3 9,6 14,9 32,2 85,3 114,-7 10,-5 16,-9 26,-12 10,-2 20,-1 28,4 13,0 27,-1 40,0 9,0 18,-1 26,-4l38 -3c-16,28 -11,53 48,72 59,19 49,19 102,50l119 -119 40 -4c9,-2 28,-5 35,2 6,9 7,7 20,9 12,2 25,4 38,5 14,-5 28,-11 42,-16 9,-3 34,-1 45,0zm2828 -797c0,-3 1,-6 1,-9 3,-2 6,-2 9,0 4,2 -1,2 4,2 13,3 13,0 24,-5 -2,-3 -4,-7 -6,-10 4,2 9,4 13,6 1,4 1,7 2,11 -3,2 -5,4 -8,6 2,2 13,3 16,2 2,-1 4,-3 6,-4 0,-2 -1,-4 -1,-7 5,2 11,3 16,5 10,0 20,-1 30,-1 -3,-3 -6,-6 -10,-9 4,0 10,0 15,1 5,2 33,0 39,-1 2,-1 4,-1 6,-2 -4,5 15,-2 19,-3 5,-2 12,-5 20,-8 -18,27 -45,69 -52,97 -2,12 -2,19 -6,29 -4,10 -11,18 -20,22 -8,12 -16,24 -24,34 -6,7 -10,16 -13,25 -12,18 -24,36 -36,54 -7,6 -14,12 -21,19 -32,36 -66,70 -100,104 -14,15 -26,31 -35,49 -4,4 -8,8 -12,11 -8,10 -16,20 -25,31 -6,8 -12,15 -18,23 -5,8 -14,22 -24,22 -10,-3 -9,0 -20,7 -10,7 -20,14 -29,22 -6,13 -12,26 -18,39 -4,8 -23,23 -31,30 2,3 3,5 5,8 -2,3 -4,6 -8,6 -5,1 0,-2 -5,1 -12,6 -12,9 -18,20 4,1 8,3 11,4 -5,1 -10,3 -15,4 -3,-2 -5,-5 -8,-7 1,-3 2,-7 3,-10 -3,0 -13,6 -15,9 -1,3 -2,5 -3,8 2,1 3,3 5,4 -6,2 -11,5 -17,7 -9,7 -18,14 -26,21 5,0 9,1 14,1 -4,3 -9,7 -14,9 -5,2 -31,23 -35,28 -2,2 -3,4 -5,6 1,-7 -14,12 -16,16 -18,24 -54,77 -73,95 -11,8 -28,20 -40,25 -13,6 -47,29 -58,39 -2,2 -5,5 -7,7 -80,62 -163,126 -245,185 -12,8 -23,16 -34,25 -7,7 -15,13 -22,20 -4,5 -8,11 -13,16 -6,3 -12,6 -18,9 0,-5 -1,-9 -1,-14 -3,-1 -11,7 -13,9 -2,3 -3,6 -5,8 -1,-2 -2,-4 -4,-5 -9,-3 -6,-8 -16,3 -10,12 -3,9 12,11 -1,5 -3,11 -5,16 -7,5 -14,11 -22,16 -8,10 -29,24 -39,31 -10,7 -20,13 -30,20 -7,7 -14,14 -22,21 -10,6 -19,12 -29,17 -8,2 -16,6 -23,9 -2,7 -6,13 -11,17 -9,6 -15,14 -25,21 -11,7 -9,12 -18,21 -6,6 -14,13 -19,20 -3,5 1,22 4,27 1,2 2,4 4,6 19,31 79,129 83,158 -2,11 -4,16 -6,26 -1,6 5,37 9,55 2,34 6,68 11,101 -8,7 -17,16 -3,9l4 -2c9,50 21,98 35,139l125 -125c-9,-28 -18,-59 -25,-91 5,-1 5,-4 9,-8 5,-5 11,-10 14,-16 6,-7 21,-19 29,-25 17,-12 18,-10 32,-26 6,-7 9,-17 20,-15 8,1 16,-2 22,-8 9,-6 19,-12 28,-19 9,-7 -11,-5 -15,-5 7,-5 18,-13 26,-14 7,-2 16,-10 21,-14 6,-3 12,-7 18,-10 3,-5 6,-10 10,-15 5,-5 11,-10 16,-16 41,-35 102,-93 143,-121 2,-1 3,-1 5,-2 17,-13 34,-25 50,-38 13,-10 25,-21 38,-31 24,-19 48,-37 72,-56 -1,3 -2,7 -3,10 14,-13 28,-28 43,-39 8,-6 19,-14 26,-21 9,-9 21,-12 29,-23 12,-16 58,-59 75,-73 77,-62 155,-131 228,-198 -2,5 -4,10 -6,15 4,-4 8,-8 12,-12 4,-3 7,-6 11,-9l2 2c7,5 14,10 20,15 12,10 24,21 36,31 -3,0 -5,1 -8,1 8,5 20,11 26,17 3,3 10,10 13,12 4,2 8,12 15,13 6,1 43,25 48,31 41,37 84,73 126,110 -4,0 -8,0 -11,0 0,0 5,4 7,6 2,3 5,6 7,9 2,1 4,3 6,4 -1,-1 7,8 6,5 -1,-3 -4,-10 -4,-10 5,4 12,9 16,13 8,7 19,13 27,20 18,14 21,5 61,46 17,18 42,45 63,59 1,0 2,-1 2,-1 2,1 4,2 5,4 0,3 1,6 2,8 2,5 4,10 5,15 3,0 6,0 9,0 0,0 5,5 8,7 2,3 4,7 7,8 10,6 23,17 32,25 0,3 0,6 0,8 7,7 17,15 23,23 9,10 25,23 36,32 24,23 52,56 76,77 7,7 12,22 22,30 10,6 10,8 18,16 4,-2 12,-7 16,-5 11,8 24,21 37,27 9,5 20,17 28,20 6,2 31,17 35,21 10,11 15,34 31,37 8,0 8,1 1,3 1,1 1,1 2,2 0,3 -1,6 -1,9 -2,3 -4,6 -6,10 1,2 18,17 13,7 -5,-9 -3,-8 -6,-15 92,-81 188,-157 273,-244 -6,-1 -14,-4 -9,-11 5,-5 6,-9 2,-15 -3,-3 -4,-1 -8,-7 -4,-5 -11,-13 -13,-20 -2,-5 -23,-11 -32,-19 -23,-20 -40,-26 -61,-52 -12,-14 -25,-29 -39,-41 8,2 16,4 25,6 -9,-11 -19,-22 -30,-30 -7,-5 -16,-12 -21,-18 0,-5 -1,-10 -1,-15 -17,-21 -46,-56 -70,-67 -8,-3 -15,-4 -23,-7 -7,-4 -11,-10 -11,-18 -6,-6 -13,-13 -19,-20 -4,-4 -9,-7 -14,-9 -9,-7 -18,-14 -27,-20 -1,-4 -3,-8 -6,-11 -1,-1 -13,-14 -12,-14 0,0 -34,-38 -37,-41 -8,-8 -19,-14 -30,-17 -2,-2 -4,-5 -6,-7 -12,-8 -24,-15 -35,-23 -6,-3 -17,-8 -15,-16 3,-8 2,-6 -3,-15 -4,-7 -9,-13 -15,-19 -10,-2 -21,-4 -31,-6 -6,-2 -17,-13 -21,-18 -2,2 -5,4 -7,6 -3,-1 -4,-2 -4,-5 0,-4 2,0 0,-4 -4,-8 -6,-7 -14,-9 -2,3 -3,7 -5,10 0,-4 -1,-7 -1,-11 2,-3 5,-5 7,-8 3,0 5,0 8,0 0,-3 -3,-8 -6,-10 -2,0 -4,0 -6,0 -1,2 -3,3 -4,5 -1,-4 -2,-8 -4,-12 -5,-5 -10,-10 -14,-15 -1,4 -2,7 -2,11 0,0 -5,-5 -6,-8 0,0 0,-1 -1,-1 12,-17 31,-41 39,-51l13 -13c115,-115 -39,-202 -105,-356 4,-6 8,-12 11,-19 4,-2 7,-3 11,-5 9,-15 19,-30 29,-45 12,-18 25,-44 36,-63 23,-41 54,-92 72,-134 7,-14 21,-28 28,-44 4,-15 7,-18 13,-32 -5,-3 -11,-9 -10,-15 7,-21 17,-44 20,-65 3,-12 8,-26 12,-39 5,-1 10,-1 13,-2 5,0 10,0 14,0 4,-2 7,-4 11,-6 4,0 8,1 12,1 2,2 8,5 8,5 1,-3 3,-8 6,-8 3,0 6,-4 10,-4 4,0 4,-6 8,-8 3,-2 5,-4 7,-7 2,-3 3,-21 3,-25 0,-2 0,-4 0,-7 0,-51 -3,-130 3,-178 1,-7 3,-12 5,-19 1,-6 2,-13 3,-20 3,-2 5,-5 8,-7 1,-2 6,-17 0,-15 -2,2 -5,4 -6,6 1,-10 2,-19 2,-27 1,-14 3,-22 3,-36 0,-12 1,-24 3,-36 -1,-2 -2,-6 1,-7 4,0 8,-5 4,-7 -3,-1 -6,0 -8,3 -3,-1 -5,-2 -5,-5 0,-2 0,-2 0,-4 0,-3 1,-3 -1,-3 -3,0 -3,2 -4,4 -1,5 -2,5 -4,0 -1,-2 -1,-3 -2,-5 0,0 -1,-6 -2,-1 -1,3 -4,10 -4,10 0,0 -5,-3 -8,0 -2,2 -1,-1 -3,-5 -2,-4 -3,-2 -5,0 -2,2 -5,3 -7,6 -3,3 -9,4 -13,5 -9,1 -6,-2 -15,4 -3,3 -6,9 -9,2 -2,-4 -4,-7 -9,-5 -4,0 -9,0 -13,0 -4,1 3,10 4,12 -4,0 -9,1 -12,-3 -3,-2 -8,-1 -11,0 -3,0 -6,-1 -9,-1 -2,3 -4,5 -7,7 -3,2 -10,4 -10,4 -20,5 -78,21 -95,22 -1,0 -2,-1 -3,-1 -12,1 -24,2 -37,4 -10,2 -20,3 -30,5 -19,2 -39,4 -58,6 2,-2 4,-5 5,-7 -12,3 -27,7 -39,8 -7,0 -17,0 -23,2 -8,2 -17,-2 -26,2 -7,4 -67,15 -77,16 -82,6 -165,14 -248,22 4,-3 8,-6 12,-8 -5,1 -10,1 -15,2 -6,0 -12,0 -18,-1 -4,1 -7,1 -11,2 -1,0 -16,0 -12,2 5,1 10,3 15,3 -10,2 -22,3 -32,4 -17,1 -35,7 -51,7 -41,6 -54,14 -118,18 -18,1 -128,7 -145,15 -9,1 -19,2 -28,3 -7,-1 -14,-2 -21,-3 -11,-1 -22,-3 -33,-4 -3,2 -7,5 -10,7 -6,1 -12,2 -18,2 -5,0 -12,-1 -17,1 -17,5 -36,8 -53,12 -3,-2 -5,-3 -8,-5 -12,2 -26,5 -37,6 -14,2 -35,7 -50,10 -31,6 -73,9 -101,17 -8,2 -23,-3 -33,0 -10,5 -11,4 -21,5 0,4 -1,14 -5,16 -12,5 -29,7 -40,14 -9,4 -24,6 -32,11 -5,4 -33,15 -40,16 -21,2 -44,-7 -66,5 -5,3 -15,9 -6,-1 -2,0 -4,0 -6,0 -5,-2 -10,-4 -16,-6 -3,-3 -5,-7 -8,-10 -3,0 -7,0 -5,4 2,3 5,6 9,6 10,123 30,245 65,363 6,-3 18,-10 21,-1 2,9 6,10 14,10 5,0 4,-3 12,-3 7,0 19,-1 26,1 4,1 15,-6 25,-11 22,33 41,56 41,57 0,36 -4,58 -10,72l-44 44c-9,9 -18,22 -26,43l125 -125c3,-8 6,-15 9,-21l48 -48c9,-9 16,-22 20,-47 5,-1 9,-2 13,-3 4,3 8,5 12,8 28,-1 72,-5 96,-17 9,-6 13,-10 22,-14 8,-3 17,-3 25,2 12,-2 24,-3 36,-4 8,-1 16,-3 23,-6 18,-3 36,-7 55,-10 8,1 16,2 24,2 40,-2 80,-3 121,-5 17,-1 33,-5 48,-12 5,0 9,0 14,-1 20,-4 40,-9 59,-13 8,-3 25,-8 33,-1 6,9 7,6 19,7 12,1 24,2 35,1 12,-7 25,-13 37,-20 8,-4 31,-4 40,-4zm453 766l-3 -1c-9,-3 -66,-22 -69,-25 -4,-4 -14,-16 -16,-22 -2,-5 -20,-27 -25,-29 -2,-1 -3,-2 -5,-3 -30,-26 -62,-54 -92,-82 21,-23 39,-45 44,-55 8,-10 17,-19 25,-29l3 -3c51,102 136,175 137,249zm-9035 -787c0,-3 0,-6 0,-9 3,-2 6,-2 9,-1 4,2 -1,2 4,2 13,1 14,-1 24,-8 -2,-3 -5,-6 -7,-10 5,1 10,3 15,4 1,3 2,7 3,10 -3,2 -5,4 -8,7 3,2 14,1 17,0 2,-2 4,-3 6,-5 -1,-2 -2,-4 -2,-6 6,1 12,2 18,3 8,-1 15,-2 23,-4 3,-1 6,-1 10,-2 -4,-3 -7,-5 -11,-8 4,-1 11,-1 15,-1 5,1 33,-4 39,-6 2,-1 4,-2 6,-2 -3,5 14,-3 18,-5 15,-8 52,-29 73,-39 -2,4 -5,8 -7,13 0,0 -2,4 -2,4 -3,8 -8,17 -13,24 -5,2 -10,4 -15,6 -20,26 -53,68 -63,98 -3,12 -3,19 -8,29 -4,10 -12,17 -22,21 -9,12 -18,24 -27,34 -6,7 -11,16 -15,25 -13,19 -27,37 -40,55 -8,6 -15,13 -22,20 -35,37 -70,73 -106,109 -14,15 -27,32 -36,51 -4,4 -8,8 -12,12 -16,20 -32,41 -48,61 -6,9 -19,28 -31,29 -12,-1 -12,3 -23,11 -8,6 -15,11 -22,17 -5,4 -10,9 -15,14 -10,17 -19,34 -29,51 -9,13 -31,32 -43,42 1,3 3,6 4,8 -2,4 -6,8 -11,9 -6,2 1,-2 -6,2 -15,10 -15,13 -25,27 4,1 9,2 13,3 -6,3 -13,5 -19,8 -3,-2 -6,-4 -9,-7 2,-4 4,-8 6,-12 -4,0 -17,10 -20,14 -2,3 -3,6 -5,10 2,1 4,3 6,4 -7,4 -14,8 -22,12 -12,10 -23,20 -35,30 6,-1 11,-1 17,-2 -5,4 -12,10 -18,13 -11,6 -37,29 -45,38 -2,2 -4,5 -7,7 2,-8 -19,19 -21,21 -25,32 -67,91 -94,117 -13,10 -33,25 -48,32 -16,9 -53,36 -67,48 -3,3 -5,5 -8,8 -80,64 -166,132 -250,190 -10,7 -21,13 -30,21 -6,6 -13,11 -19,17 -3,5 -7,10 -10,14 -5,2 -10,4 -15,6 0,-4 -1,-9 -1,-13 -3,-2 -9,5 -11,7 -1,2 -3,5 -4,7 -1,-2 -2,-4 -3,-6 -7,-4 -6,-9 -13,0 -8,10 -2,8 11,12 -1,5 -2,9 -3,14 -6,4 -11,8 -17,12 -6,7 -22,17 -29,22 -7,4 -15,8 -22,12 -5,5 -10,10 -15,14 -7,3 -13,6 -20,9 -5,0 -11,1 -16,2 -1,4 -2,10 -6,12 -5,3 -9,9 -15,12 -6,3 -5,9 -10,13 -3,3 -8,8 -10,12 -2,4 3,21 5,25 1,2 2,4 3,6 14,34 58,137 62,167 -1,9 -2,14 -4,22 0,13 5,50 8,64 2,16 -2,21 5,37 5,12 6,24 4,37 6,3 3,6 -2,8 -5,2 -22,13 -8,10 8,-2 16,-6 22,-11 3,-1 13,-4 16,-1 1,3 0,2 1,4 2,2 -1,4 2,2 4,-2 6,-3 7,-7 1,-6 5,-6 10,-4 2,1 5,2 7,3 2,3 4,2 6,-1 2,-4 6,-13 6,-13 6,-1 13,-4 18,-8 4,-4 2,0 9,2 7,1 6,-1 10,-5 4,-4 9,-7 12,-12 4,-5 17,-14 23,-17 15,-8 14,-5 27,-18 5,-5 7,-14 16,-10 7,3 13,1 18,-4 8,-4 16,-9 24,-13 7,-5 -9,-6 -13,-7 6,-4 15,-10 23,-10 6,-1 14,-7 19,-11 5,-3 10,-5 16,-8 2,-5 5,-9 9,-13 5,-5 10,-9 14,-13l10 -8c17,5 17,23 1,46l-38 38c-9,9 -42,86 -41,105l125 -125c-1,-16 23,-74 36,-97l27 -27c20,-20 29,-38 28,-50 16,-12 32,-24 48,-36 13,-11 27,-22 40,-33 26,-21 53,-41 79,-62 -1,4 -3,7 -4,11 16,-15 32,-32 49,-45 10,-7 22,-16 31,-25 11,-10 24,-15 34,-28 17,-22 69,-70 92,-89 100,-84 200,-176 295,-267 -3,6 -6,12 -9,19 5,-5 11,-11 16,-16 7,-6 14,-12 21,-18 4,-4 8,-8 12,-12 1,-1 19,-16 13,-14 -7,4 -13,8 -20,12 12,-12 23,-24 36,-36 1,-1 3,-3 4,-4 0,4 0,7 -1,11 14,22 37,54 60,66 9,3 15,4 22,9 7,4 11,11 11,19 7,8 14,16 20,24 4,5 10,10 16,13 11,11 23,22 35,32 3,6 6,12 10,17 21,26 42,52 63,78l2 2c5,39 8,84 8,138 0,12 0,25 0,37l88 -88c0,3 2,4 6,10 5,8 11,16 18,23 11,3 23,6 34,9 7,2 20,16 25,21 2,-2 5,-4 7,-6 3,1 5,3 5,5 0,4 -2,0 0,4 5,9 8,8 17,11 1,-4 3,-7 4,-11 1,4 2,8 3,12 -2,3 -4,6 -7,8 -3,0 -6,-1 -9,-1 0,3 5,10 7,11 2,0 4,1 7,1 1,-2 3,-4 4,-5 2,4 4,9 5,13 6,6 12,11 18,17 0,-4 1,-8 1,-12 3,2 6,6 8,9 2,4 19,20 23,22 2,1 3,2 5,3 -5,1 9,7 14,9 17,6 68,21 80,28 5,5 18,17 21,23 3,6 27,27 33,30 2,1 4,2 6,3 51,35 98,62 151,93 6,4 12,8 20,11 1,0 12,4 12,4 0,0 0,0 1,-1 2,-2 4,-3 6,-4 1,2 2,3 3,5 -3,3 -6,6 -8,9 -1,3 2,3 4,3 2,-1 3,-1 5,-2 -1,2 -3,4 -4,5 -2,6 -6,8 1,8 8,0 6,-5 8,-14 3,-2 7,-4 10,-6 4,2 7,4 11,6 7,1 18,9 23,12 6,4 11,9 17,13 6,2 12,4 18,7 5,5 10,9 16,14 1,2 2,3 3,5 0,1 6,9 5,8 4,-1 9,-2 14,0 5,4 12,4 17,8 6,4 10,0 17,2 5,1 11,3 16,3 5,-1 16,-14 19,-18 1,-2 2,-4 4,-6 28,-40 73,-111 103,-145 0,0 2,-2 2,-2 4,-3 11,-7 15,-10 12,-12 26,-37 34,-53 6,-13 6,-22 12,-34 5,-12 8,-25 3,-37 11,-2 -1,-7 -5,-9 -12,-4 -81,-20 -27,-13 14,2 37,7 48,17 3,1 9,3 11,0 1,-2 1,-2 2,-4 2,-2 1,-3 2,-2 2,1 0,3 -1,4 -2,4 -3,4 -1,-1 0,0 1,-4 1,-4 0,0 0,-1 1,-2 0,0 3,-5 0,-2 -3,2 -5,4 -8,6 -1,-2 -3,-5 -6,-4 -3,1 0,-2 1,-6 0,-5 -2,-3 -5,-3 -3,0 -6,-1 -10,0 -4,0 -13,-4 -17,-6 -2,-1 -5,-3 -6,-5 -3,-3 -9,-4 -13,-5 -6,-1 -13,1 -12,-7 1,-6 -2,-10 -7,-12 -5,-4 -11,-8 -16,-12 -5,-3 -3,10 -3,13 -4,-3 -11,-7 -13,-13 -2,-4 -9,-8 -13,-10 -3,-3 -6,-6 -10,-8 -4,0 -8,0 -12,-1 -5,-2 -9,-3 -14,-5 -14,-7 -29,-13 -43,-19 -3,0 -44,-11 -45,-13 0,-1 -1,-1 -1,-2 -8,-4 -15,-8 -23,-12 -6,-3 -13,-6 -19,-8 -12,-6 -24,-13 -35,-21 2,-1 5,-2 7,-3 -7,-3 -20,-7 -25,-11 -3,-2 -10,-8 -13,-9 -4,-1 -8,-10 -15,-10 -6,0 -44,-19 -49,-24 -47,-36 -90,-69 -134,-108 4,0 8,0 12,0 0,0 -6,-4 -8,-6 -3,-3 -5,-6 -8,-10 -2,-2 -4,-3 -6,-5 1,1 -8,-8 -7,-5 1,3 3,7 4,10 -6,-4 -12,-9 -17,-14 -9,-8 -20,-14 -29,-23 -23,-19 -23,-7 -66,-53 -8,-9 -62,-70 -73,-74 -5,-5 -9,-10 -14,-15 -2,-5 -4,-10 -6,-15 -4,-7 -7,-15 -10,-22 -3,-1 -7,-1 -10,-2 -3,-3 -6,-7 -9,-10 -2,-3 -4,-8 -7,-10 -10,-7 -22,-18 -31,-27 0,-3 1,-5 1,-8 -6,-6 -14,-14 -19,-21 -7,-8 -20,-20 -28,-27 -17,-18 -37,-45 -53,-61 -3,-2 -8,-20 -13,-24 -8,-5 -7,-6 -12,-13 -4,2 -12,6 -16,4 -1,-1 -3,-2 -4,-4 11,-13 19,-23 22,-29 8,-9 17,-19 25,-28 8,-6 15,-12 22,-18 11,-10 23,-19 34,-29 2,-5 3,-10 5,-15 5,-6 10,-13 16,-19 5,-5 11,-11 15,-17 13,-20 27,-41 41,-60 4,-1 7,-3 11,-4 10,-13 20,-28 30,-41 12,-16 26,-40 37,-57 18,-27 36,-54 53,-81 8,-12 22,-32 28,-44 9,-15 26,-29 35,-47 6,-15 9,-19 18,-33 -4,-4 -10,-10 -8,-16 7,-17 18,-36 24,-55 5,13 11,28 18,44 6,15 -11,45 -18,53l125 -125c7,-8 24,-38 18,-53 -9,-23 -16,-42 -23,-58 5,-2 7,-6 13,-8 5,-2 12,-4 17,-7 4,-3 7,-20 7,-25 0,-2 0,-4 0,-7 1,-36 2,-150 10,-178 5,-8 8,-12 13,-19 6,-12 15,-49 18,-63 3,-15 10,-19 9,-36 0,-13 3,-25 9,-36 -5,-5 -1,-6 4,-7 6,0 25,-5 11,-7 -8,-1 -16,0 -24,3 -4,0 -13,-1 -14,-5 0,-3 1,-2 0,-4 -1,-3 2,-3 -1,-3 -4,0 -7,0 -9,4 -3,5 -6,4 -10,0 -2,-2 -3,-3 -5,-5 -1,-3 -3,-4 -5,-1 -3,3 -10,10 -10,10 -5,-1 -12,-2 -18,0 -5,2 -1,-1 -6,-5 -5,-4 -6,-2 -10,0 -4,2 -10,3 -13,6 -5,3 -18,5 -24,5 -14,1 -12,-2 -26,4 -6,3 -11,9 -15,2 -3,-5 -8,-7 -14,-5 -7,0 -14,0 -21,0 -7,1 4,10 6,12 -6,0 -14,1 -19,-2 -4,-2 -12,-1 -16,0 -4,0 -8,-1 -13,-1 -3,3 -6,5 -10,7 -4,2 -9,3 -13,4 -28,6 -93,24 -116,25 -1,0 -2,-1 -4,-1 -13,2 -27,3 -40,5 -10,2 -21,4 -31,6 -20,4 -40,6 -60,9 2,-2 3,-5 5,-7 -12,4 -27,9 -39,11 -7,1 -17,2 -23,4 -8,3 -17,-1 -26,4 -6,5 -65,21 -75,23 -49,8 -101,20 -150,30 -33,7 -67,14 -100,21 3,-3 7,-6 10,-10 -4,1 -9,2 -14,3 -5,1 -11,1 -17,1 -3,1 -6,2 -10,3 -1,0 -14,2 -11,3 4,1 10,2 14,2 -9,3 -19,5 -29,7 -15,3 -30,9 -45,12 -34,9 -35,17 -97,25 -13,2 -101,13 -112,21 -7,1 -14,2 -21,3 -6,-1 -11,-2 -17,-3 -8,-1 -17,-2 -25,-3 -3,2 -5,5 -8,7 -5,1 -9,2 -14,2 -4,0 -9,-1 -13,1 -12,5 -28,9 -41,12 -2,-2 -4,-3 -6,-5 -9,2 -21,5 -30,6 -11,1 -29,7 -41,10 -28,6 -64,9 -89,15 -4,2 -25,-4 -32,-1 -10,4 -11,3 -21,5 0,4 -1,14 -5,16 -14,4 -30,7 -43,13 -11,4 -27,5 -36,10 -11,5 -38,13 -50,15l-2 0c0,-4 0,-7 0,-11l-11 11c-27,-1 -51,-8 -82,2 -5,2 -26,9 -10,-1 -4,0 -7,0 -11,0 -9,-2 -18,-4 -26,-7 -5,-4 -9,-7 -14,-11 -3,0 -14,-1 -11,4 4,4 10,6 16,7 4,77 15,155 33,230 2,11 5,20 8,29 10,36 22,72 36,107 5,-2 15,-5 23,-5 31,40 60,78 60,173l125 -125c0,-24 -2,-44 -5,-62 8,-2 16,-3 25,-3 17,-1 35,-2 52,-7 -6,5 -12,11 -17,16 13,0 26,-2 38,-6 7,-3 17,-6 24,-6 4,3 7,5 11,8 25,-1 65,-4 87,-17 7,-6 11,-10 19,-14 7,-4 15,-3 22,1 10,-2 20,-4 30,-5 7,-1 13,-3 19,-7 15,-4 30,-8 45,-12 7,1 13,1 20,1 34,-3 68,-6 101,-10 14,-2 28,-7 41,-15 4,0 8,-1 12,-1 17,-6 34,-11 51,-17 7,-3 22,-10 29,-4 7,8 7,5 18,6 11,0 22,0 33,-2 11,-8 22,-16 33,-23 7,-4 30,-7 39,-9zm272 -85l0 0 0 0 0 0zm2653 47c-3,2 -5,3 -8,5 -5,-2 -9,-6 -12,-10 -3,-6 3,0 -3,-6 -12,-14 -15,-15 -32,-22 0,5 0,9 0,14 -4,-6 -8,-12 -11,-18 2,-3 3,-6 5,-10 4,1 9,3 13,4 -1,-4 -14,-16 -18,-18 -4,-1 -7,-2 -11,-3 -1,2 -2,4 -3,6 -3,-4 -7,-8 -10,-12 -4,-4 -7,-7 -11,-11 -23,-17 -48,-32 -74,-44 7,7 14,13 20,21 -13,-7 -26,-13 -39,-20 -17,-8 -41,-14 -59,-18 -35,-5 -66,-5 -100,3 -3,1 -6,2 -9,3 -6,2 -11,4 -17,6 12,-8 -44,18 -65,33 -1,1 -3,2 -4,3 -40,35 -68,73 -99,116 0,1 -15,24 -17,26 -11,11 -29,27 -41,36 -14,10 -46,41 -57,54 -2,3 -4,6 -6,9 -73,80 -144,162 -217,241 -10,11 -20,21 -29,32 -6,8 -12,17 -19,25 -3,6 -6,13 -9,19 -5,4 -11,9 -16,13 -1,-5 -2,-9 -4,-14 -4,0 -10,9 -12,12 -1,3 -2,6 -4,10 -2,-2 -3,-3 -5,-5 -10,-1 -8,-7 -15,7 -8,15 -2,10 14,8 0,6 -1,11 -1,17 -6,7 -12,15 -19,22 -6,12 -25,32 -34,41 -9,10 -18,19 -27,29 -6,9 -12,18 -19,28 -9,9 -18,18 -27,26 -8,5 -16,11 -23,16 -1,8 -4,15 -9,21 -8,9 -14,20 -23,30 -10,11 -8,16 -16,28 -6,8 -13,18 -17,27 -3,7 4,22 9,27 2,2 3,3 5,5 25,26 106,108 114,137 0,13 -2,18 -3,30 -1,8 18,57 22,67 3,8 3,14 4,19 5,99 17,203 -27,311l125 -125c30,-74 34,-147 32,-217 4,-4 7,-8 10,-12 4,-8 2,-1 12,-4 9,-4 8,-6 12,-13 4,-7 10,-14 13,-21 5,-10 19,-26 26,-35 15,-16 17,-16 29,-36 5,-8 6,-20 18,-21 9,-1 16,-7 21,-14 8,-9 17,-18 25,-26 7,-9 -12,-2 -16,-1 6,-7 15,-18 24,-21 6,-4 14,-14 19,-20 5,-5 10,-10 16,-15 2,-6 4,-12 7,-17 4,-6 8,-13 13,-19 32,-43 82,-115 116,-151 2,-1 3,-2 5,-3 14,-16 28,-32 42,-47 10,-13 20,-25 31,-38 20,-23 40,-46 60,-68 0,4 -1,7 -1,11 11,-15 23,-33 36,-47 7,-8 17,-17 23,-26 8,-10 19,-16 26,-29 11,-20 47,-63 63,-82 10,-11 8,-5 16,3 3,3 8,6 12,10 -6,-2 -12,-4 -18,-6 6,4 11,9 17,13 7,6 14,13 20,20 1,1 10,8 10,8 0,0 3,3 4,3 1,1 16,15 13,10 -4,-6 -8,-11 -12,-17 12,9 23,18 34,28 17,16 39,29 56,44 46,38 72,51 129,103 20,19 131,124 154,136 10,9 20,18 30,27 6,8 13,16 19,24 10,12 21,25 31,37 5,2 11,4 16,6 7,6 14,12 20,18 6,6 11,13 18,18 22,16 44,34 65,50 2,4 3,8 5,12 15,12 31,25 45,38 19,17 43,35 63,50 43,35 87,78 130,110 14,11 25,31 41,42 15,9 18,13 31,24 5,-4 12,-8 18,-5 21,14 42,33 63,44 17,10 35,28 52,36 19,10 53,34 70,47 38,34 63,72 109,101 3,1 14,8 18,11l-1 2c-2,0 -4,-1 -7,-2l6 6c-54,160 -16,106 -16,262l125 -125c0,-122 -23,-116 -8,-183 48,-78 84,-165 106,-254 -10,-6 -37,-21 -36,-34 5,-11 -8,-22 -15,-29 -7,-6 -13,-9 -21,-17 -12,-11 -28,-26 -37,-39 -7,-8 -45,-27 -59,-38 -38,-29 -72,-48 -108,-82 -21,-20 -44,-41 -68,-59 11,3 22,7 33,10 -16,-15 -33,-30 -51,-42 -11,-7 -25,-17 -35,-26 -3,-6 -6,-13 -8,-19 -31,-30 -84,-80 -121,-100 -13,-6 -23,-8 -34,-15 -11,-7 -21,-17 -26,-29 -14,-12 -28,-24 -41,-36 -9,-8 -19,-15 -29,-21 -21,-17 -43,-34 -64,-51 -7,-9 -15,-18 -23,-26 -42,-41 -84,-81 -126,-122 -17,-16 -37,-30 -58,-41 -5,-4 -9,-9 -14,-13 -23,-17 -46,-34 -69,-51 -10,-6 -31,-20 -34,-32 0,-13 -5,-13 -14,-24 -11,-13 -23,-25 -35,-36 -17,-8 -34,-15 -52,-23 -4,-2 -9,-6 -12,-9 -13,-12 -26,-23 -40,-35zm-12290 976c-21,53 -13,100 -13,159l-125 125c0,-59 -8,-105 13,-159l125 -125zm14830 17c0,72 0,144 0,216l-125 125c0,-72 0,-144 0,-216l125 -125zm2196 974c6,70 9,87 9,159l-125 125c0,-72 -2,-89 -9,-159l125 -125zm-12713 -1689c0,54 -4,105 -4,154l-125 125c0,-50 4,-100 4,-154l125 -125z"/>
 </g>
</svg>
