<?xml version="1.0" encoding="UTF-8"?>
<!DOCTYPE svg PUBLIC "-//W3C//DTD SVG 1.1//EN" "http://www.w3.org/Graphics/SVG/1.1/DTD/svg11.dtd">
<!-- Creator: CorelDRAW 2017 -->
<svg xmlns="http://www.w3.org/2000/svg" xml:space="preserve" width="5.985mm" height="8.692mm" version="1.1" style="shape-rendering:geometricPrecision; text-rendering:geometricPrecision; image-rendering:optimizeQuality; fill-rule:evenodd; clip-rule:evenodd"
viewBox="0 0 599 869"
 xmlns:xlink="http://www.w3.org/1999/xlink">
 <defs>
  <style type="text/css">
   <![CDATA[
    .fil0 {fill:black}
   ]]>
  </style>
 </defs>
 <g id="Слой_x0020_1">
  <metadata id="CorelCorpID_0Corel-Layer"/>
  <path class="fil0" d="M266 0l67 0 0 100 67 0 0 134 66 0 0 134 66 0 0 134 66 0 0 66 -66 0 0 -66 -66 0 0 -134 -66 0 0 -134 -66 0 0 167 -67 0 0 -167 -67 0 0 -134 66 0 0 -101zm-133 669l66 0 0 134 200 0 0 -134 66 0 0 -100 66 0 0 100 -66 0 0 134 68 0 0 66 -469 0 0 -66 67 0 0 -134 -66 0 0 -100 -66 0 0 -66 66 0 0 66 66 0 0 100zm1 -435l66 0 0 134 -66 0 0 -134zm-67 134l66 0 0 134 -66 0 0 -134zm200 101l66 0 0 66 -66 0 0 -66z"/>
 </g>
</svg>
