<?xml version="1.0" encoding="UTF-8"?>
<!DOCTYPE svg PUBLIC "-//W3C//DTD SVG 1.1//EN" "http://www.w3.org/Graphics/SVG/1.1/DTD/svg11.dtd">
<!-- Creator: CorelDRAW 2017 -->
<svg xmlns="http://www.w3.org/2000/svg" xml:space="preserve" width="181.51mm" height="77.665mm" version="1.1" style="shape-rendering:geometricPrecision; text-rendering:geometricPrecision; image-rendering:optimizeQuality; fill-rule:evenodd; clip-rule:evenodd"
viewBox="0 0 18151 7767"
 xmlns:xlink="http://www.w3.org/1999/xlink">
 <defs>
  <style type="text/css">
   <![CDATA[
    .fil1 {fill:black}
    .fil6 {fill:#A60808}
    .fil7 {fill:#C90202}
    .fil8 {fill:#E80303}
    .fil2 {fill:white}
    .fil0 {fill:black;fill-rule:nonzero}
    .fil3 {fill:#E80303;fill-rule:nonzero}
    .fil5 {fill:white;fill-rule:nonzero}
    .fil4 {fill:white;fill-rule:nonzero}
   ]]>
  </style>
 </defs>
 <g id="Layer_x0020_1">
  <metadata id="CorelCorpID_0Corel-Layer"/>
  <g id="_2684155064032">
   <g>
    <path class="fil0" d="M16791 4882l-1981 633c-94,30 -179,-43 -237,-151 -20,-36 -36,-76 -49,-117 -13,-41 -23,-83 -28,-124 -15,-123 12,-231 106,-261l1982 -633 0 0 96 -31 0 0c59,-19 124,8 179,67 45,48 86,118 112,201 26,82 34,164 26,228 -11,79 -47,138 -106,157 -25,8 -4,1 -33,10 -21,7 -43,13 -65,21l-1 1zm-202 -63l165 -53 0 0c22,-7 44,-14 66,-21 7,-2 -14,5 33,-11 11,-3 18,-25 23,-57 6,-47 0,-109 -21,-175 -21,-65 -52,-119 -85,-155 -23,-24 -42,-38 -53,-34l0 0 -96 31 0 0 -1982 633c-26,8 -31,64 -22,130 4,32 12,67 23,102 11,35 25,68 40,96 32,59 67,101 93,93l1816 -580z"/>
    <path class="fil1" d="M16773 4824l-165 53 -116 37 -1700 543c-166,53 -338,-484 -172,-537l1700 -543 127 -41 155 -50c40,-13 50,-16 86,-28 70,-22 177,77 224,225 47,148 29,286 -41,308 -33,11 -66,20 -99,32z"/>
    <path class="fil1" d="M16898 4486c45,142 25,275 -45,298 -70,22 -164,-75 -209,-217 -45,-142 -25,-275 45,-298 70,-22 164,75 209,217z"/>
    <path class="fil2" d="M15241 5313c-70,22 -165,-80 -212,-228 -47,-148 -29,-287 41,-309 11,-4 13,-4 0,0l-42 13 -28 11c-137,60 34,549 154,536l44 -9 43 -14 0 0z"/>
    <path class="fil1" d="M15216 5321l-10 3c-70,22 -165,-80 -212,-228 -47,-148 -29,-287 41,-309l6 -2c-1,0 -2,1 -2,1 -1,0 -3,1 -4,1l-414 132c-166,53 6,590 172,537l414 -132c2,-1 4,-1 6,-2 2,0 3,-1 5,-1z"/>
    <path class="fil3" d="M16270 4742l3 -1c-1,-1 -2,-2 -2,-2 0,0 1,-1 2,0 1,0 4,-1 4,-2 0,0 0,0 1,-1 0,2 2,-2 2,-2 1,-2 6,-14 7,-14 1,0 4,-1 5,0 1,0 6,-1 6,-1 0,0 0,0 1,-1 -1,0 15,-9 21,-10 1,0 2,0 2,-1 0,-1 1,-1 1,-2 0,-1 0,-2 1,-2 0,0 1,0 1,1 0,1 0,3 0,4 0,1 1,0 1,0 0,0 0,-1 0,-1 0,1 0,1 0,2 0,1 1,4 1,2 0,-2 -1,-3 -1,-5 0,-1 0,-2 0,-4 0,0 1,0 1,-1 0,-1 1,-1 2,-2 0,0 1,0 1,0 0,-1 1,-1 1,-2 0,0 1,0 1,0 0,1 1,2 1,2 0,0 0,-3 0,-3 0,0 0,-1 0,-1 0,0 5,-1 5,-1 2,0 5,-2 6,-3 0,0 0,-1 0,-1 1,-1 1,-2 2,-3 0,-1 -1,-7 -2,-8 0,-1 0,-1 -1,-2 -5,-16 -13,-40 -16,-56 0,-2 0,-4 0,-6 0,-5 -3,-15 -4,-20 -1,-4 -1,-7 -2,-12 -1,-3 -2,-12 -2,-12 0,0 -1,-2 0,-2 1,0 2,-3 1,-2 -1,0 -2,1 -3,2 -1,0 -2,0 -2,-1 0,-1 0,-1 0,-1 0,-1 0,-1 0,-1 -1,0 -1,1 -1,2 0,2 0,2 -1,0 0,0 -1,-1 -1,-1 0,0 -1,-2 -1,0 0,1 0,3 0,3 0,0 -2,0 -2,1 0,1 -1,-1 -1,-1 0,0 0,0 -1,-1 -1,0 5,-1 6,-1 4,0 10,-1 14,0 0,0 0,0 0,0 0,0 -5,2 -5,2 -3,1 -2,-1 -5,2 -1,1 -2,3 -3,1 -1,-1 -1,-2 -3,-1 -1,0 -3,0 -4,1 -1,0 1,3 2,4 -1,0 -2,1 -3,0 -1,-1 -3,0 -3,0 -1,0 -2,0 -2,0 0,0 -1,2 -1,2 -1,1 -2,2 -2,2 1,0 -17,11 -18,11 0,0 0,0 -1,0 -2,1 -4,2 -6,3 -2,1 -3,2 -5,3 -3,2 -6,3 -9,4 0,-1 0,-2 0,-2 -1,1 -4,4 -5,4 -1,0 -3,1 -3,2 -1,1 -3,0 -4,2 0,1 -8,8 -9,8 -4,2 -9,5 -15,8 -4,-11 -7,-21 -10,-24 -1,-3 -2,-6 -3,-9 0,-2 0,-5 -1,-7 0,-3 -1,-7 -1,-10 -1,-1 -2,-2 -3,-2 0,0 -1,-3 -2,-5 0,-1 0,-3 -1,-4 -2,-4 -6,-12 -6,-12 0,-1 1,-1 1,-2 0,0 -2,-5 -3,-7 0,-1 -3,-5 -4,-6 0,0 0,0 0,0 1,9 -1,16 -6,24 -5,8 -10,12 -19,15 -2,1 13,-6 14,-7 1,-1 9,-1 11,-2 3,-2 4,-2 7,-3 0,-1 0,-4 1,-5 5,-2 11,-4 16,-7 4,-2 11,-3 14,-6 3,-2 15,-7 19,-8 12,-3 26,-1 38,-8 1,-1 9,-5 4,-1 1,0 3,-1 4,-1 4,0 7,0 11,-1 2,1 4,1 6,2 0,0 6,-1 4,-3 -2,-1 -7,0 -7,0 -12,-35 -35,-79 -55,-109 -2,1 -8,5 -10,2 -1,-3 -5,-3 -7,-2 -2,0 -3,1 -6,2 -4,1 -9,2 -12,1 -2,0 -12,6 -16,7 -11,3 -21,9 -33,12 -7,1 -23,7 -23,7 2,-2 5,-5 7,-7 0,0 -13,4 -18,7 -1,1 -12,6 -12,6 -1,0 -2,0 -3,0 -4,0 -17,7 -21,9 -13,9 -21,18 -29,31 -12,21 -15,39 -13,63 0,3 5,15 7,17 2,2 4,3 6,5 2,2 2,5 1,7 0,0 2,7 3,10 0,2 3,7 3,7 2,6 5,11 7,17 0,0 1,6 1,8 4,14 8,29 12,43 2,6 5,12 9,17 1,2 1,4 2,5l5 11 -1 1c0,0 2,4 2,5 -1,2 -3,4 -4,6 0,1 -3,4 -3,5 0,1 -3,6 -3,7 -1,1 -8,0 -9,5 -1,4 -1,-1 -1,0 0,0 -1,0 -1,0 -1,0 -2,-1 -3,-1 -1,-1 -2,-2 -2,-3 -1,0 -1,1 0,2 1,1 1,1 2,1 20,36 32,67 57,106 0,0 2,-5 4,-2 1,2 2,3 4,2 1,0 0,-1 2,-2 1,-1 3,-2 4,-1 1,0 2,-4 3,-6 1,3 3,7 3,8 0,1 1,1 1,2 -2,-1 2,5 3,7 4,5 20,26 22,29 1,3 3,10 3,13 0,3 4,15 6,17 0,1 1,1 1,2 0,0 1,1 1,2 6,14 13,26 19,39 4,7 8,13 14,19 2,3 7,6 9,8 7,4 13,7 21,8 13,2 23,-1 33,-7 8,-5 13,-11 18,-19 0,0 1,-1 3,-3 0,0 4,-3 4,-3 0,0 2,-2 2,-2 1,-1 3,-3 4,-4 1,-1 2,-3 3,-4 1,0 3,-1 4,-1 0,1 0,3 0,4 1,1 3,-1 3,-1 0,-1 1,-1 1,-2 0,1 1,1 1,2 2,1 1,3 4,1 3,-3 0,-3 -3,-4 0,-1 1,-3 1,-4 2,-1 4,-2 6,-3 2,-2 6,-3 8,-4 1,0 2,-1 3,-1 3,-1 6,-2 9,-3 2,-1 5,-3 7,-4 3,-1 6,-1 8,-2 2,0 6,0 6,0 1,-2 2,-3 4,-4 2,-1 4,-3 7,-3 3,-1 3,-3 5,-4 2,-1 4,-2 5,-3 1,-1 1,-7 0,-9 0,-1 0,-1 0,-2 1,5 -12,-51 -9,-57 1,-3 2,-4 3,-7 1,-2 2,-18 2,-21 0,-5 2,-7 1,-12 -1,-4 0,-8 1,-12 0,0 -3,-2 1,-2 2,0 9,-3 3,-3 -3,0 -5,1 -8,2 0,0 -5,1 -6,-1 0,-1 0,-1 0,-1 -1,-1 1,-1 -1,-1 -1,0 -2,1 -3,2 -1,2 -2,2 -4,1 -1,0 -2,-1 -2,-1 -1,-1 -1,-1 -2,0 -1,1 -3,4 -3,4 0,0 -6,1 -7,2 -2,1 -1,0 -3,-1 -2,-1 -3,0 -4,1 -2,1 -4,2 -5,3 -2,2 -11,5 -11,5 -6,2 -7,2 -12,5 -2,2 -4,5 -7,3 -3,-1 -5,-1 -8,1 -4,1 -7,3 -11,4 -4,1 4,2 4,3 -2,1 -6,2 -8,3 -1,0 -1,0 -2,0 -2,0 -8,3 -8,3 -2,1 -4,1 -6,2 4,0 -3,2 -9,-9 -9,-18 -15,-37 -22,-56l0 -1zm-1056 347c1,0 2,0 3,-1 0,0 1,1 0,2 -1,1 -1,0 -1,1 0,3 1,3 3,4 1,-1 2,-1 3,-2 0,1 -1,2 -1,3 -1,0 -2,1 -3,1 -1,0 -1,-1 -2,-1 -1,1 0,3 0,3 1,0 1,1 2,1 1,0 1,-1 2,-1 0,1 -1,2 -1,3 1,2 1,4 2,6 1,-1 2,-2 2,-3 0,0 1,2 0,3 0,1 2,6 2,7 0,0 1,1 1,1 -2,0 2,3 2,3 2,2 16,13 17,14 1,2 2,6 2,8 0,2 3,10 4,11 0,0 1,1 1,1 0,0 17,31 25,46 1,2 2,4 4,7 1,1 2,3 3,4 1,1 2,2 3,2 0,1 1,2 1,4 -1,0 -3,0 -4,1 -1,1 1,2 1,3 1,0 1,1 2,1 -1,0 -1,1 -2,1 -1,2 -3,1 -1,3 3,2 3,0 4,-3 1,0 3,0 4,1 1,1 2,3 3,4 2,2 4,5 5,8 1,2 2,4 3,6 1,1 3,3 4,4 1,2 2,4 2,6 0,2 0,5 0,5 0,0 3,1 4,2 1,2 3,3 4,5 1,2 3,2 5,4 1,1 3,3 4,4 1,1 7,-1 8,-2 1,0 1,-1 2,-1 -5,2 47,-23 54,-22 3,0 5,1 7,1 3,0 17,-3 21,-4 5,-1 7,0 12,-3 4,-2 7,-3 12,-3 0,0 1,-3 3,0 1,2 5,6 3,2 -1,-2 -2,-5 -4,-6 0,0 -2,-4 0,-5 1,0 1,0 1,-1 1,-1 1,0 1,-1 -1,-1 -1,-2 -2,-2 -2,0 -2,-1 -1,-3 0,-1 1,-1 1,-2 1,-1 1,-1 0,-2 -1,0 -4,-1 -4,-1 0,0 -1,-4 -2,-5 -1,-1 0,-1 1,-3 0,-2 0,-2 -1,-3 -1,-1 -2,-2 -3,-3 -2,-1 -5,-6 -5,-6 -2,-4 -1,-4 -5,-7 -1,-1 -4,-2 -2,-4 1,-2 1,-3 0,-4 -1,-2 -2,-4 -3,-6 -1,-2 -3,3 -3,3 -1,-2 -2,-4 -2,-5 0,-1 -2,-4 -2,-4 0,-1 -1,-2 -1,-3 0,0 -2,-1 -3,-2 -1,-1 -3,-3 -3,-3 2,2 -19,-24 -19,-25 0,0 0,-1 0,-1 -2,-3 -3,-6 -5,-9l-4 -6 0 0c0,0 0,-1 0,-1 0,-1 -1,-1 -1,-2 1,0 1,1 2,1 1,0 2,-1 2,-1 -1,-1 -1,-2 -2,-3 0,0 1,0 1,0 1,0 3,-1 3,-1 0,0 0,0 0,-1 0,2 1,-1 1,-1 0,-1 4,-13 4,-13 1,0 3,-1 4,0 1,0 5,0 5,-1 0,0 0,0 1,-1 -1,0 14,-9 19,-12 1,0 2,-1 3,-1 1,-1 1,-1 2,-2 0,-1 0,-2 1,-3 1,0 1,0 2,0 0,1 1,3 1,4 0,1 1,0 1,0 0,0 0,-1 0,-1 0,1 1,1 1,2 1,1 1,3 2,2 1,-2 -1,-3 -2,-5 0,-1 0,-2 0,-4 1,0 1,-1 2,-1 0,-1 2,-2 3,-3 1,0 2,-1 3,-1 0,-1 1,-2 1,-2 1,0 2,0 2,0 1,0 2,1 2,1 0,0 0,-3 0,-3 1,0 1,-2 2,-2 1,0 0,-2 1,-3 0,-1 1,-2 1,-3 0,-1 -2,-7 -2,-8 0,-1 -1,-1 -1,-2 -6,-15 -16,-39 -20,-55 0,-2 0,-4 -1,-6 -1,-5 -4,-14 -5,-20 -1,-4 -1,-7 -3,-11 -1,-3 -3,-11 -3,-11 0,0 -2,-2 0,-2 1,0 2,-3 0,-2 -1,0 -2,1 -2,2 -1,0 -2,0 -2,-1 0,-1 0,-1 0,-1 0,-1 0,-1 -1,-1 -1,0 -1,1 -1,2 0,2 0,2 -1,0 0,0 -1,-1 -1,-1 0,0 -1,-2 -1,0 0,1 0,3 0,3 0,0 -2,0 -2,1 0,1 -1,-1 -1,-1 -1,-1 -1,0 -1,0 0,1 -1,1 -1,2 0,1 -2,3 -2,3 -2,1 -2,0 -3,2 0,1 0,3 -2,1 -1,-1 -1,-2 -2,-1 -1,0 -2,1 -2,1 -1,0 2,3 2,3 -1,0 -2,1 -2,0 -1,-1 -2,1 -2,1 -1,0 -1,0 -2,0 0,0 0,2 0,2 0,1 -1,2 -1,2 0,0 -10,11 -10,11 0,0 0,0 -1,0 -1,1 -3,2 -4,2 -1,1 -2,2 -3,3 -2,1 -4,2 -6,4 0,-1 0,-1 0,-2 -1,1 -2,3 -3,4 -1,0 -2,1 -2,1 0,1 -2,0 -2,1 0,1 -4,6 -5,7 -4,2 -19,13 -18,12 0,-1 0,-2 0,-3 0,0 -1,1 -1,1 0,0 -1,0 -1,0 0,0 0,0 -1,1 0,0 -1,0 -1,1 0,0 2,1 2,1 0,0 -1,1 -1,1 -1,-2 -2,-4 -2,-5 0,-1 -1,-3 -1,-4 0,-1 1,-2 1,-4 0,-2 1,-4 1,-6 -1,-1 -2,-1 -2,-2 0,0 -1,-2 -1,-3 0,-1 0,-2 0,-3 -2,-3 -4,-10 -4,-10 1,-1 1,-1 2,-2 0,0 -2,-5 -2,-7 0,-2 -2,-8 -3,-10 -2,-5 -3,-21 -4,-24 0,-1 0,-3 1,-6 0,0 1,0 1,0 5,-2 9,-4 14,-6 2,-1 3,-3 4,-6 1,0 1,-1 2,-1 2,-2 4,-4 6,-6 0,0 2,-4 4,-2 2,2 1,1 3,1 1,0 3,0 4,-1 0,0 1,0 1,0 1,-3 2,-5 3,-8 1,-1 4,-3 6,-4 0,-1 -1,-2 -1,-3 0,0 0,-1 1,-1 1,0 0,1 1,1 2,0 2,-1 3,-3 -1,-1 -1,-2 -2,-3 1,0 2,1 3,1 1,1 1,2 2,3 0,1 0,1 -1,2 1,1 2,0 3,0 0,-1 0,-1 0,-2 0,-1 -1,-1 -1,-2 1,0 2,0 3,1 2,-1 3,-1 5,-2 -1,-1 -2,-1 -3,-2 0,0 2,-1 2,-1 1,0 5,-2 6,-3 0,0 1,-1 1,-1 0,2 3,-2 3,-2 1,-2 10,-15 10,-16 1,-1 5,-1 6,-1 1,0 7,-2 8,-3 0,0 1,-1 1,-1 9,-5 19,-11 27,-15 1,0 2,-1 3,-2 1,-1 1,-1 2,-2 0,-1 0,-2 1,-3 1,0 1,0 2,0 0,1 1,3 1,4 0,1 1,0 1,0 0,0 0,-1 0,-1 0,1 1,1 1,2 0,1 1,3 2,2 0,-2 -1,-3 -2,-5 0,-1 0,-2 0,-4 0,0 1,-1 1,-1 0,-1 1,-2 2,-2 1,0 1,0 2,-1 0,-1 0,-1 1,-2 0,0 1,0 1,0 0,0 1,1 1,1 0,0 -1,-3 0,-3 0,0 0,-1 0,-1 0,0 0,-2 0,-3 0,-1 0,-1 0,-2 -1,-3 -1,-5 -2,-8 0,-1 0,-1 -1,-2 -4,-17 -10,-40 -12,-57 0,-2 0,-4 0,-6 0,-6 -1,-14 -1,-21 0,-4 1,-7 0,-12 -1,-4 0,-8 1,-12 0,0 -2,-2 1,-2 1,0 9,-2 3,-2 -2,0 -5,0 -7,2 0,0 -3,0 -4,-1 0,-1 0,-1 0,-1 0,-1 0,-1 0,-1 -1,0 -1,0 -2,2 0,2 -1,2 -2,0 0,0 -1,-1 -1,-1 0,0 -1,-2 -1,0 0,1 -1,3 -1,3 0,0 -2,0 -3,1 0,1 -1,-1 -1,-1 -1,-1 -1,0 -1,0 0,1 -1,1 -1,2 0,1 -2,3 -2,3 -2,1 -2,0 -3,2 0,1 0,3 -2,1 0,-1 -1,-2 -2,-1 -1,0 -2,1 -2,1 -1,0 2,3 2,3 -1,0 -2,1 -2,0 -1,-1 -2,1 -2,1 -1,0 -1,0 -2,0 0,0 0,2 -1,2 0,1 -1,2 -1,2 0,0 -12,12 -13,12 0,0 0,0 -1,0 -2,1 -4,2 -6,3 -1,1 -3,2 -4,3 -3,2 -6,3 -9,5 0,-1 0,-2 0,-2 -1,1 -4,4 -5,5 -1,0 -3,1 -4,2 -1,1 -3,0 -4,2 -1,1 -9,8 -11,9 -12,6 -26,14 -37,21 0,-1 1,-2 1,-3 0,0 -1,1 -2,1 -1,0 -3,1 -3,1 -1,0 -1,1 -2,1 0,0 -3,1 -2,1 1,0 3,0 3,0 0,0 -3,2 -5,3 -1,0 -2,2 -3,2 -1,0 -2,2 -3,3 -1,1 1,3 -12,10 -3,1 -15,7 -16,10 -1,1 -2,1 -3,2 -1,0 -2,0 -3,0 -2,0 -3,0 -5,0 0,1 0,2 0,3 0,0 -1,1 -2,1 -1,0 -2,0 -2,1 -1,2 -5,6 -5,6 -1,0 -1,-1 -2,-1 0,0 -3,3 -4,3 -1,0 -4,4 -5,5 -1,2 -10,8 -10,9 0,0 -3,1 -4,1 0,0 0,0 0,0 0,1 -1,1 -1,1 -13,3 -26,6 -41,11 0,0 3,10 0,10 -3,1 -4,3 -4,6 0,2 1,3 1,5 0,2 0,6 0,8 0,1 -1,1 0,1l0 1c-1,2 4,10 4,13 1,8 5,15 5,24 0,5 1,10 2,15 -2,-2 -3,-3 -5,-5 0,0 1,8 2,11 1,2 2,5 2,7 -1,1 -2,2 -3,3 0,0 1,19 5,24 2,2 3,3 5,5 1,2 1,4 0,6 0,0 1,5 1,8 0,1 2,5 2,5 1,4 2,8 4,11 0,0 0,4 0,5 1,8 2,16 3,24 1,4 2,6 5,9 0,1 0,2 1,3 2,4 4,7 6,11 0,0 4,5 1,6 -2,2 -2,1 -2,4 0,2 1,7 1,7 3,2 5,4 8,5 1,1 2,5 3,7zm160 33l-2 -3 1 0 1 2zm139 -165c1,0 2,0 3,0 0,0 1,1 0,2 -1,1 -1,0 -1,1 -1,3 0,3 2,4 1,-1 2,-1 3,-2 -1,1 -1,2 -2,3 -1,0 -2,1 -3,1 -1,0 -1,-1 -2,-1 -1,1 -1,3 0,3 1,0 1,1 2,1 1,0 1,0 2,-1 0,1 -1,2 -1,3 0,2 1,4 1,6 1,-1 2,-2 3,-2 0,0 0,2 0,3 0,1 1,6 1,7 0,0 0,1 1,1 -2,0 1,3 2,3 2,2 14,14 14,15 0,2 1,6 0,7 0,1 1,9 1,10 0,0 1,1 1,1 0,-1 10,26 12,37 0,2 1,3 2,5 0,0 0,0 0,0 1,2 2,3 2,5 1,1 2,2 3,3 0,1 0,3 0,4 -1,0 -3,0 -4,0 -1,1 0,2 1,3 1,0 1,1 2,1 -1,0 -1,0 -2,1 -2,1 -3,1 -1,3 2,2 3,0 5,-2 1,0 3,1 4,1 1,1 1,3 2,4 2,2 3,5 4,7 1,2 1,4 2,5 1,1 2,2 3,4 0,2 1,3 1,5 0,1 -1,4 -1,4 0,0 3,0 3,1 0,1 2,2 3,3 1,1 2,1 4,2 1,1 2,2 3,2 1,0 7,-2 8,-2 1,0 1,-1 2,-1 18,-8 35,-16 53,-23 2,-1 4,-1 6,-2 6,-3 12,-6 18,-10 3,-2 6,-5 10,-7 3,-2 7,-4 9,-7 0,0 3,0 1,-2 -1,-1 -3,-7 0,-4 1,1 3,3 2,5 0,0 1,2 3,1 1,0 1,0 1,-1 1,0 1,-1 1,0 0,1 0,1 -1,1 -1,1 -1,1 0,1 1,0 1,0 2,0 0,0 2,-1 1,0 -1,1 -3,2 -3,2 0,0 0,0 0,0 -1,0 2,-1 2,-1 1,-1 0,0 0,0 -1,0 -1,0 -2,0 -1,0 -2,-1 -2,-1 -1,-2 1,-1 -2,-3 -1,-1 -3,-1 -1,-2 1,-1 2,-2 1,-3 0,-1 -1,-2 -1,-4 0,-1 -3,2 -3,2 0,-1 -1,-2 0,-4 1,-1 -1,-3 -1,-3 0,-1 0,-2 0,-3 0,0 -2,-1 -3,-2 -1,-1 -2,-3 -2,-3 0,0 -7,-13 -7,-13 0,0 -6,-9 -6,-9 0,0 0,0 0,-1 -1,-2 -2,-4 -2,-7 -1,-2 -2,-3 -3,-5 -1,-3 -3,-7 -4,-10 1,0 2,0 2,1 -1,-2 -3,-5 -4,-7 0,-1 -1,-3 -1,-4 -1,-1 0,-4 -2,-5 -1,-1 -7,-11 -7,-13 -4,-14 -9,-28 -13,-42 1,1 2,1 3,2 0,0 -1,-2 -1,-2 0,-1 0,-3 0,-3 0,0 0,0 0,0 0,0 -1,-1 -1,-2 0,0 -1,-3 -1,-2 0,1 -1,3 -1,3 0,0 -2,-4 -2,-6 -1,-3 -3,-7 -4,-10 -3,-7 -5,-5 -9,-23 -1,-5 -5,-25 -8,-28 0,-2 -1,-4 -1,-5 0,-1 0,-3 1,-4 0,-2 0,-4 1,-7 -1,-1 -2,-1 -2,-2 0,0 -1,-2 -1,-3 0,-1 0,-2 -1,-3 -2,-3 -5,-10 -5,-10 1,-1 1,-1 2,-2 0,0 -2,-5 -2,-7 0,-2 -3,-7 -4,-9 -1,-3 -5,-16 -6,-17 0,0 1,-5 0,-6 -2,-2 -1,-1 -2,-3 0,0 -5,0 -5,0 -2,-2 -3,-5 -5,-6 -1,-1 -2,-4 -4,-5 -1,-1 -5,-5 -5,-6 -1,-2 3,-6 -1,-8 -4,-2 1,0 0,-1 0,0 0,0 0,-1 1,0 1,-1 2,-1 1,0 2,0 3,0 0,0 -1,0 -1,0 -1,0 -1,0 -2,0 -46,1 -70,-2 -120,8 0,0 4,4 0,5 -2,0 -3,1 -3,3 0,1 1,1 1,3 0,2 0,4 0,5 -1,1 4,5 5,7 2,5 6,8 7,14 0,3 1,7 3,10 -2,-1 -4,-2 -6,-3 0,0 1,6 3,7 1,1 2,3 2,5 -1,1 -2,2 -2,3 0,0 3,15 7,19 2,2 3,2 5,4 1,2 1,3 0,5 0,0 2,5 2,7 0,1 3,4 3,4 1,4 3,7 4,11 0,0 0,4 0,5 1,8 3,17 4,25 1,4 3,7 5,10 0,1 0,2 1,3 2,4 4,8 6,12 0,0 4,5 1,7 -3,2 -2,1 -2,5 0,2 1,8 1,8 2,2 5,5 7,7 1,1 1,3 1,3 0,1 1,3 1,4zm198 -35c1,0 2,0 3,0 1,1 1,1 1,2 -1,1 -1,0 -1,1 0,3 1,3 3,5 1,-1 2,-1 3,-2 0,1 -1,3 -1,4 -1,0 -2,1 -3,1 -1,0 -2,-1 -2,-1 -1,1 0,3 0,4 1,0 1,1 2,1 1,0 1,-1 2,-1 0,1 0,3 -1,4 1,2 1,5 2,7 1,-1 2,-2 2,-3 0,0 1,3 1,4 0,1 2,8 3,9 0,0 1,1 1,1 -2,0 2,4 2,4 2,3 16,18 17,20 1,2 2,7 2,9 0,2 2,11 3,13 0,1 1,1 1,2 7,16 14,33 20,49 1,2 1,4 3,6 0,1 1,2 2,2 0,1 1,1 1,2 1,1 2,2 3,3 0,1 0,3 1,4 -1,0 -3,0 -4,0 -1,1 1,3 1,3 1,0 1,1 2,1 -1,0 -1,1 -2,1 -2,2 -3,1 -1,3 3,2 3,0 5,-3 1,0 3,1 4,1 1,2 2,3 2,5 2,2 4,5 5,8 1,2 2,4 2,6 1,1 2,3 4,4 1,2 1,3 2,5 0,1 0,4 0,4 0,0 3,0 4,1 1,1 2,2 3,3 0,0 0,0 0,1 1,2 3,2 5,4 1,1 3,3 4,4 1,1 7,-1 8,-2 1,0 1,-1 2,-1 15,-8 36,-21 51,-28 2,-1 4,-1 6,-2 2,-1 5,-3 7,-4 2,-1 8,-6 10,-8 3,-3 4,-6 8,-9 4,-3 6,-7 5,-11 2,0 4,1 -1,-4 -4,-3 -25,-18 -8,-9 5,3 12,8 15,14 0,0 3,4 4,3 1,0 0,-1 1,-1 1,0 0,-1 1,0 0,0 0,1 0,1 0,0 -1,1 -1,1 -1,1 -1,1 0,0 0,0 1,-1 1,-1 0,0 2,-1 0,0 -1,0 -3,1 -3,1 0,-1 0,-1 -1,-1 -1,0 1,-1 1,-2 1,-1 0,-1 -1,-1 0,0 -1,-1 -1,-1 0,0 -1,0 -1,0 -1,0 -3,-2 -3,-2 -1,-2 0,-2 -3,-3 -1,-1 -3,-1 -2,-2 1,-1 2,-2 1,-3 -1,-1 -1,-3 -2,-4 -1,-1 -3,2 -3,3 -1,-1 -1,-3 -1,-4 0,-1 -1,-4 -1,-4 0,-1 -1,-2 -1,-3 0,0 -2,-1 -3,-2 -1,-1 -2,-3 -2,-3 1,1 -6,-10 -7,-10 -1,0 -9,-13 -9,-14 0,0 0,-1 0,-1 -1,-3 -3,-6 -4,-8 -1,-2 -2,-4 -4,-7 -2,-4 -4,-9 -6,-13 1,0 2,0 2,1 -2,-2 -4,-6 -5,-9 0,-1 -1,-4 -2,-5 0,-1 -1,-2 -1,-3 0,0 12,-3 27,1 0,0 45,9 50,10 5,1 10,2 15,3 4,0 8,1 11,1 3,0 5,0 8,0 2,1 5,2 7,3 -1,1 -2,2 -4,3 1,1 5,1 6,1 1,0 2,0 4,0 0,1 0,1 -1,2 2,3 -1,3 5,3 6,0 3,-2 0,-5 2,-1 4,-1 6,-2 3,1 7,1 10,2 3,0 6,1 8,1 3,1 6,1 9,2 4,1 8,2 12,3 3,0 6,1 10,1 3,1 7,2 10,3 2,1 6,4 6,4 2,-1 4,-1 6,-1 3,1 6,1 9,2 3,1 4,0 7,0 0,0 0,0 0,0 3,0 6,1 10,1 2,0 6,-4 7,-6 0,-1 1,-1 1,-2 5,-11 21,-44 30,-50 4,-1 6,-1 10,-2 2,0 18,-10 21,-12 5,-3 10,-1 12,-6 3,-4 9,-5 14,-4 -3,-5 4,0 5,1 2,2 22,21 10,7 -6,-6 -12,-11 -20,-16 0,0 -10,-7 -10,-8 1,-1 1,0 1,-1 -1,-1 2,0 -1,-1 -2,-1 -4,-3 -7,-3 -3,0 -5,-1 -7,-4 -1,-1 -2,-2 -3,-3 0,-2 -2,-2 -3,-2 -3,0 -8,0 -8,0 0,0 -9,-5 -13,-5 -2,0 -2,0 -2,-2 0,-1 0,-1 -1,-1 -2,-2 -3,-2 -5,-2 -2,0 -5,-1 -7,-1 -3,0 -14,-3 -13,-3 -6,-2 -7,-3 -14,-3 -3,0 -7,1 -9,-2 -2,-2 -4,-4 -7,-4 -4,-1 -8,-2 -12,-3 -4,-1 2,4 2,5 -3,-1 -8,-2 -10,-4 -1,-1 -3,-1 -4,-1 -2,0 -6,-1 -6,-1 -3,-1 -5,-2 -8,-2 0,0 -5,1 -7,0 -3,0 -9,-1 -9,-1 -12,-1 -11,-5 -7,-11 4,-4 7,-10 10,-15 1,-1 3,-6 4,-7 6,-11 16,-55 18,-66 0,-1 1,-4 1,-5 2,-16 4,-53 1,-69 0,-3 0,-6 0,-9 0,-4 -1,-10 -1,-14 -1,-8 -3,-14 -5,-22 0,0 -1,-3 -1,-3 -5,-11 -10,-18 -18,-26 0,-1 -3,-3 -3,-3 -3,-1 -6,-3 -8,-4 0,0 -8,-5 -13,-8 -4,-2 -8,-4 -12,-6 -6,-2 -10,-3 -16,-4 -3,-1 -18,-3 -17,-2 -1,-1 -2,-2 -4,-3 0,0 -14,-1 -20,-2 -8,-1 -21,0 -29,1 -14,1 -27,1 -41,3 -1,0 -17,2 -19,3 -4,1 -14,0 -19,2 -1,1 -12,4 -13,3 0,2 0,5 -2,6 -8,3 -17,5 -24,8 -5,3 -15,4 -19,7 -2,2 -13,7 -15,7 -3,1 -7,3 -11,5 -16,6 -35,8 -49,19 -1,1 -10,9 -5,2 -1,1 -3,2 -4,2 -4,1 -8,3 -12,4 -2,0 -5,0 -7,1 0,0 -6,4 -3,4 2,0 7,-3 7,-3l2 3c-12,2 -24,5 -39,9 0,0 4,5 1,6 -3,1 -3,2 -3,4 0,1 1,1 1,3 0,2 1,5 0,7 0,1 5,6 6,8 2,6 7,10 8,17 1,3 4,13 4,13 -2,-1 -4,-2 -6,-4 0,0 2,7 4,9 1,2 3,4 3,6 -1,1 -1,2 -2,4 0,0 4,20 10,25 2,2 4,3 6,5 2,2 2,4 1,7 0,0 2,6 3,10 0,2 3,6 3,6 2,5 4,10 6,15 0,0 0,5 1,7 3,11 6,23 9,34 1,5 4,9 7,13 0,1 1,3 1,4 3,5 5,11 8,16 0,0 5,7 3,9 -2,3 -1,3 -1,6 0,3 2,10 2,10 3,3 6,6 9,9 0,1 2,3 2,3 0,2 2,5 2,7zm103 -85c-1,-3 -2,-7 -4,-11 -2,-6 -9,-34 -13,-39 -1,-2 -2,-5 -2,-7 0,-2 0,-4 0,-6 0,-3 0,-6 0,-9 -1,-1 -2,-2 -3,-2 0,0 -1,-3 -2,-5 0,-1 0,-3 -1,-4 -2,-4 -6,-13 -6,-13 0,-1 1,-2 1,-2 0,0 -1,-2 -2,-5 3,-2 11,-7 14,-8 12,-4 21,-9 34,-11 7,-1 16,-2 23,-4 -2,2 -5,4 -7,6 0,0 12,-2 17,-3 1,0 2,-1 3,-1 1,0 9,-2 9,-2 2,1 4,2 5,2 -1,0 9,0 19,0 11,-1 19,-1 22,22 0,1 0,2 0,3 0,0 0,1 0,1 0,4 0,10 0,14 0,0 1,5 -2,4 -3,-1 -2,-1 -3,1 0,0 -1,1 -1,1 -1,1 -1,1 -2,2 1,2 1,5 1,8 0,2 -4,5 -5,6 1,1 1,2 2,2 0,1 -1,1 -2,2 -1,0 0,-1 -1,0 -3,2 -3,3 -4,6 1,1 2,1 3,2 -2,0 -3,1 -5,1 -1,-1 -2,-2 -3,-2 0,-1 1,-2 1,-3 -1,0 -4,2 -5,3 0,1 -1,2 -1,2 1,0 1,1 2,1 -2,1 -4,1 -6,2 -3,3 -7,5 -10,7 2,0 3,0 5,0 0,0 -4,3 -6,3 -3,1 -14,9 -16,11 -1,1 -2,2 -3,2 1,-2 -28,14 -36,19 0,0 -5,2 -5,2 -2,0 -3,1 -5,2z"/>
    <path class="fil4" d="M16912 4484c24,76 32,149 24,207 -7,54 -29,90 -66,102l-109 35c-28,-7 -56,-26 -83,-55 -40,-43 -76,-107 -100,-183 -24,-76 -32,-149 -24,-207 5,-39 17,-72 36,-93l58 -19 0 0 0 0c55,-18 86,-32 134,3 11,8 21,17 30,26 40,43 76,107 100,183zm2 186c7,-54 -2,-106 -25,-178 -23,-72 -50,-125 -87,-165 -46,-46 -68,-43 -101,-33 -148,46 28,512 146,471 33,-11 59,-29 67,-95z"/>
    <path class="fil4" d="M16703 4847c-28,-6 -56,-26 -83,-55 -40,-43 -76,-107 -100,-183 -24,-76 -32,-149 -24,-207 5,-39 17,-72 36,-93l34 -11c-19,21 -42,57 -47,96 -5,35 -4,76 3,120l0 1 0 2c4,27 11,55 20,84 9,29 20,55 32,80l1 2 0 1c20,40 43,74 67,100 27,29 65,45 93,52l-33 10zm-96 -561l9 -3c-5,2 -9,3 -13,5 1,-1 3,-1 4,-2l0 0z"/>
    <path class="fil2" d="M16626 4363l0 0c5,16 -4,32 -19,37l-436 139c-16,5 -32,-4 -37,-19l0 0c-5,-16 4,-32 19,-37l436 -139c16,-5 32,4 37,19z"/>
    <path class="fil5" d="M16745 4813l-1967 618c0,0 -93,34 -179,-206 -11,-32 13,-37 22,-10 78,219 149,193 150,193l1966 -617c35,-11 40,13 9,23z"/>
    <path class="fil5" d="M14573 5111c-2,-18 -3,-41 -1,-65 2,-27 9,-56 23,-79 10,-15 31,-4 20,14 -12,19 -17,43 -19,67 -2,23 0,45 1,62 3,24 -21,28 -24,1z"/>
    <path class="fil2" d="M16524 4781l0 0c3,11 -3,22 -13,25l-1803 576c-11,3 -22,-3 -25,-13l0 0c-3,-11 3,-22 13,-25l1803 -576c11,-3 22,3 25,13z"/>
    <path class="fil4" d="M15247 5311c-28,-6 -66,-23 -93,-52 -40,-43 -76,-107 -100,-183 -24,-76 -32,-149 -24,-207 5,-39 28,-75 47,-96l42 -13 0 0c-42,17 -59,71 -65,113 -16,119 42,304 133,385 35,32 72,48 104,39l0 0 -44 14z"/>
    <path class="fil2" d="M16051 4547l0 0c5,16 -4,32 -19,37l-1340 428c-16,5 -32,-4 -37,-19l0 0c-5,-16 4,-32 19,-37l1340 -428c16,-5 32,4 37,19z"/>
   </g>
   <path class="fil6" d="M3998 5375c-57,79 -121,277 -118,359 -134,48 -118,40 -231,131l-99 211 174 28c35,37 1401,-329 1620,-435 231,-112 754,374 1324,56 177,-24 661,-53 705,-38 442,-214 586,-415 115,-497l-191 -146c-55,-34 44,-40 19,-138 165,47 182,120 365,150 117,19 192,-2 259,-25 274,-96 414,-29 556,128 128,141 309,175 390,-23 80,-198 -213,-281 181,-395 125,-36 249,-66 274,-214 110,-98 53,-177 202,-185 664,158 1068,506 1478,-65 33,-212 198,-424 394,-463 168,-34 269,-59 398,-114 87,21 141,56 167,109 91,189 78,288 109,397l395 215c-233,159 -336,-108 -527,116 -170,-26 -263,-101 -397,-122 -191,-30 -357,78 -371,351 -7,141 -49,280 -230,308 -61,10 -130,15 -222,94 -254,218 -267,-12 -303,278 -14,114 -91,60 -277,145 -123,57 -202,145 -157,291 23,75 -107,136 -186,136 -95,-1 -202,-34 -332,22 -226,97 -587,185 -622,-123 -18,-157 -39,-138 -242,28 -48,39 -110,75 -205,85 -113,12 -134,37 -296,-15 -67,-22 -83,4 -248,38 -376,77 -606,390 -850,335 -291,-65 -314,-3 -107,180 127,113 131,391 -299,391 -239,22 -211,93 -186,274 18,131 -4,201 -246,141 -124,-31 -234,-69 -212,22 9,35 -43,29 -118,29 -121,0 -79,89 -195,171 -141,99 -234,65 -391,17 -71,-22 -152,-51 -200,-26 -399,208 -459,314 -1053,-110 -252,-179 -255,-458 -364,-495 -283,-69 -76,-130 -261,-181 -127,-35 -180,-39 -133,-148 30,-69 -155,-281 63,-233 89,19 158,-1 49,-71 -72,-46 -98,-104 -133,-210 -27,-223 -6,-262 -212,-371 -90,-48 -34,-190 78,-109 103,75 176,6 30,-94 -106,-72 -241,-103 -304,-201 -68,-106 -117,-153 -181,-14 -39,85 -121,23 -250,49 -199,41 -194,185 -268,-31 -6,-17 -9,-29 -16,-73 -11,-62 -32,-44 -147,-33 -54,5 -95,2 -112,-62 -16,-60 -31,-95 -128,-77 -138,26 -48,-69 -28,-76 184,-67 -62,-44 -166,-90 -162,-72 -265,-163 -353,-291 -33,-48 -57,-47 -85,-46 -142,6 -148,-102 -136,-201 6,-50 -34,-34 -149,-84 -97,-42 -117,-83 -177,-277 -36,-118 -37,-216 48,-297 68,-65 102,-134 -66,-147 -31,-2 -58,1 -92,-28 -33,-28 -151,-165 -166,-42 -18,143 -130,-22 -159,-192 -33,-198 -177,-153 -193,-335 -8,-96 27,-285 151,-115 30,41 62,80 87,94 85,49 237,-58 325,-85 17,36 149,210 174,243 89,119 229,200 292,294 349,520 412,230 885,635l39 -226 174 -63c121,-30 110,114 234,45 110,-62 105,-123 231,-91 -21,87 -18,76 35,183l177 20c107,111 96,109 188,252 -66,159 106,79 207,212 149,195 705,376 239,482l-134 101c-56,160 93,18 75,163 58,20 153,179 207,246 128,89 258,18 411,-29zm11005 -1940c-23,95 18,92 -19,199 -163,49 -339,147 -488,204 -7,5 -435,220 -261,475l-436 42 -159 -78 -123 -94 -84 -178c-78,-117 51,-128 -59,-267 -84,-107 -312,-92 -463,-186l-191 25c-90,-178 -225,-396 -447,-372l-189 -52c-144,-30 -184,-141 -227,-269 128,-107 286,-134 435,-108 43,8 475,-91 562,-97l219 -111c79,-198 212,-254 487,-203 78,45 513,523 521,535 367,29 247,-92 610,46 143,-77 547,-190 693,-160 542,-166 581,-1132 1076,-701 158,137 -102,407 850,-205l98 78c168,113 82,56 115,225 13,66 44,97 87,114 219,89 195,-36 318,220 37,78 51,84 160,188 74,70 21,214 -57,434 -42,118 -190,246 4,376 21,14 27,33 53,98l-160 -32c-181,-192 -106,-81 -282,-124 -84,-21 7,-16 -186,59 -55,76 -43,160 -79,206 -287,72 -391,-38 -557,-95 -333,-113 -289,79 -495,143 -101,31 -258,119 -356,96 -33,-162 -204,-335 -264,-503 -80,-33 -138,13 -236,-5 -127,-23 -434,-84 -473,76z"/>
   <path class="fil7" d="M3674 6477c69,-147 47,-390 -81,-285l-28 -71 16 -170c176,-161 273,-197 436,-346l88 -180 299 -282c679,-33 734,79 1145,-167l271 196c644,630 556,-725 1219,-16l83 94c177,-12 72,-169 224,-256l167 153c179,4 332,-8 496,-51 97,-25 187,-36 259,-4 169,77 97,144 34,225 -41,52 -30,74 -29,129 3,139 -98,63 -84,180 22,188 337,5 351,-163 7,-78 75,-70 232,-124 181,-63 306,-72 162,226 -109,225 -165,80 -252,171 -84,89 -34,88 -157,84 -114,-4 -79,37 -212,80 -40,13 -145,-17 -269,-11 -88,4 -147,50 -148,-67 -1,-201 -179,-108 -266,8 -153,202 -192,64 -303,15 -139,-62 -183,51 -204,150 -54,253 -182,-102 -257,-139 -191,-94 -283,80 -422,145 -141,67 -136,119 -239,199 -129,99 -154,63 -277,123 -82,40 -227,158 -188,244 27,60 -132,102 -165,-67 -10,-54 -26,-72 -121,-97 -96,-25 -91,-25 -16,-143 22,-34 32,-67 -8,-96 -63,-48 -67,-33 -35,-117 39,-101 -137,-126 -235,-3 -41,52 -66,92 -150,127 -73,30 -101,50 -119,74 -165,215 -173,438 -628,229 -150,-69 -317,18 -406,-60 -93,-81 -54,56 -82,99 -129,200 -134,38 -100,-35zm7414 -1911c0,430 -630,312 -825,353 -218,46 -835,-37 -427,-229 149,-70 23,-83 -55,-101 -77,-18 -158,-44 -173,-88 -42,-132 -136,-129 -217,-28 -36,45 -54,77 -46,7 2,-80 38,-122 81,-153 108,-79 71,-62 152,-175 99,-139 126,-151 160,-44 24,76 104,188 147,63 31,-90 93,-102 154,-98 223,15 226,-133 90,-191 -84,-36 -178,-18 -280,-3 -104,15 -186,5 -304,67 -253,132 -253,-88 -171,-370 36,-124 30,-224 37,-297 32,-339 306,-433 301,-162 -4,208 107,124 101,-109 -2,-81 23,-62 10,-165 -29,-225 23,-340 170,-342 123,-2 125,4 167,-61 51,-100 473,-202 599,-135 54,29 116,29 229,-13 187,-70 61,-135 304,-172 1075,-165 411,-87 1180,-99 448,-2 47,-207 951,-63 71,11 107,28 146,55 175,122 233,147 171,-103 -31,-127 33,-333 246,-182 147,105 227,16 337,-68 454,-372 -53,33 0,-489 173,-71 189,-18 341,50 112,174 295,126 432,-3 407,-383 529,-268 800,-234 225,28 191,19 326,-117 35,-35 287,-70 141,94 -110,124 -185,83 -107,439 -113,110 -111,146 31,273 226,202 -84,10 266,368l230 -38 81 -96c134,-61 126,-26 223,-70 97,-44 160,-37 224,46 63,50 128,130 -8,152 -123,20 -250,170 -103,190 185,25 272,70 34,145 -66,21 -128,16 -147,-59 -24,-99 -143,-47 -115,31 41,112 -14,124 -115,57 -77,-51 -77,-157 -223,-81 -25,13 -48,23 -136,21 -90,-27 -100,-86 -115,-144 -50,-206 -137,-142 -206,6 -11,23 -31,49 -78,82 -37,27 -76,46 -112,65 -230,120 -140,194 81,132 64,-18 144,-35 252,-19 440,64 280,290 -168,341 -250,29 -525,210 -857,167 -211,-42 -369,-39 -523,94 -72,63 -93,54 -283,9 -57,-14 -100,-17 -142,-16 -442,8 -302,97 -535,-272 -93,-148 -335,-525 -525,-233 -106,163 5,158 -217,189 -142,20 -152,66 -153,114 -4,141 -103,139 -198,62 -126,-102 -25,21 -404,-46 -250,-44 -522,34 -256,122 111,37 114,13 208,93 79,67 67,7 197,59 55,22 103,57 145,100 126,129 100,235 186,174 238,-168 197,40 292,48 189,16 256,-90 243,29 -9,85 -44,56 78,211 77,97 80,147 101,208 37,106 67,239 194,235 37,-1 33,8 94,69 60,60 126,73 213,-30 61,-72 70,-175 -109,-137 -82,17 -86,-62 -74,-146 18,-124 -39,-141 -94,-160 -205,-71 -49,-189 140,-190 241,-2 369,141 480,57 82,-32 174,-19 267,-10 88,9 283,41 235,-105 -5,-14 -8,-31 2,-71 65,-265 431,-197 619,-163 509,92 490,109 471,255 -38,293 85,270 337,192 189,-59 120,-241 445,-150 126,35 213,104 353,120 184,21 300,-41 331,-171 31,-131 -7,-197 273,-128 161,40 184,-87 219,43 33,122 27,132 93,142 108,17 109,81 86,158 -45,152 -114,285 -84,391 118,-7 160,48 140,90 -17,36 -79,59 -176,64 -95,5 -187,20 -247,89 -105,121 -119,9 -272,221 -125,173 -319,54 -322,22 -6,-65 -56,-25 -177,-5 -96,16 -152,37 -200,-25 -26,-35 -33,-112 8,-152 42,-40 -66,9 -90,-29l0 0c-27,-49 -58,-51 -179,-51 -53,0 -105,5 -160,15 -41,8 -134,31 -145,27 -165,-57 -270,-9 -619,-83 -70,-15 -177,-14 -210,-77 -74,-142 -158,-183 -263,-166 -149,25 -103,61 -204,19 -145,-60 -201,62 -230,189 -67,297 -351,319 -612,333 -181,10 145,-136 -181,-33 -192,60 -348,-59 -815,-34 -181,10 -373,33 -547,84 -98,28 -102,13 -206,-64 -73,-55 -157,-90 -232,-45 -113,68 -166,37 -41,-47 73,-50 122,-24 191,-25 205,0 218,-52 9,-106 -98,-26 -179,-62 -187,-166 -4,-57 3,-80 -37,-122 -107,-111 -89,-34 -75,-167 11,-115 -99,-157 -197,-71 -34,30 -81,40 -202,64 -241,49 -207,50 -242,246 -23,127 -67,33 -108,159 -29,88 -2,97 -68,166 -35,37 -18,61 -18,135zm-892 892c-135,22 -203,89 -255,156 -162,208 -367,345 -635,321 -200,-18 -132,-87 -29,-133 201,-91 228,-101 375,-281 258,-314 165,-333 445,-265 57,14 99,19 131,25 127,21 217,137 -32,178zm-6271 -94l-278 9c-26,-41 -139,-220 -156,-264 -50,-125 -47,-87 -112,-115 -130,-56 -83,-164 -20,-196 19,-9 68,-11 82,-13 152,-27 17,-104 -47,-167 -61,-60 -200,-130 -111,8 46,72 -41,174 -180,-15 -35,-48 -68,-90 -112,-148 -63,-83 -90,-106 -85,-150 13,-121 29,-143 -30,-216 -55,-68 -134,-109 -222,-109 -61,0 -116,-16 -102,-108 14,-92 -27,-123 -105,-69 -19,13 -41,34 -85,58 -170,95 -262,-17 -280,164 -12,117 -11,136 -154,88 36,-154 42,-91 -1,-222 136,-174 232,-64 418,-185 37,-38 35,-569 522,-410 115,318 -79,99 205,376 -13,286 -82,418 46,499 -12,18 6,55 46,52l76 43c102,0 196,-208 299,-257 543,-262 527,-233 1149,-233 105,0 259,110 308,114 244,17 231,479 678,620 407,-1 -246,495 -248,509 -647,-10 -865,-471 -1498,338z"/>
   <path class="fil8" d="M5500 4625c-74,-77 -143,-41 -258,23 -110,62 -218,12 -92,-101 48,-43 38,-72 -33,-168 -67,-92 -169,-155 -223,-51 -76,147 -124,112 -297,149 -122,26 -325,-119 -111,-188 44,-14 77,-4 159,-76 95,-85 164,-72 206,-81 77,-16 73,-181 -62,-170 -79,6 -229,73 -302,-4 -214,-226 -339,74 -451,183 -89,87 -195,-21 -84,-84 119,-68 52,-243 -106,-123 -83,63 -138,178 -215,216 -139,67 -161,-6 -306,145 -16,16 -29,22 -84,24 -97,4 -142,-96 -62,-85 78,11 143,6 104,-103 -57,-158 77,-130 193,-228 395,-332 303,65 375,-190 14,-48 23,-70 38,-86 51,-54 174,-65 108,-135 -147,-157 -10,-127 160,-120 133,5 279,24 321,65 189,184 252,88 366,174 97,72 15,49 216,97 57,14 128,40 199,90 478,336 257,106 771,191 195,32 321,255 418,400 76,114 183,137 373,166 114,18 82,46 158,135 40,73 70,139 291,148 61,2 96,22 76,96 -8,208 44,111 91,224 89,212 103,67 223,144 79,51 19,86 -36,76 -11,-2 -26,-2 -54,5 -59,16 -172,134 -272,105 -148,-42 -162,-32 -211,57 -73,134 -136,19 -164,-179 -54,-371 -519,-240 -528,49 -2,62 -13,129 -118,207 -95,72 -208,135 -309,98 -48,-17 -56,-17 -84,-17 -79,-2 -140,-36 -60,-99 155,-121 -44,-153 -129,-165 -115,-17 -172,-35 -189,-188 -17,-200 -63,-73 -177,-31 -178,66 -131,-32 -254,129 -41,54 -443,102 -490,-52 -43,-139 -230,34 -273,90 -44,58 -54,85 -74,223 -16,114 -172,190 -294,249 -124,60 -171,25 -208,149 -10,33 -22,26 -59,47 -77,43 -55,44 -73,111 -22,85 -85,59 -105,-66 -26,-166 -52,-261 134,-360 108,-57 70,-13 148,-171 45,-89 34,-106 -37,-43 -169,150 -321,-78 -351,-233 -11,-55 -14,-73 -107,-4 -60,44 -112,40 -122,-86 -5,-57 -24,-64 18,-184 58,-113 79,-233 196,-260 221,-50 92,47 4,55 -38,3 -113,119 57,162 29,7 46,17 80,104 147,370 419,305 436,75 10,-137 74,-59 46,-149 -13,-40 -28,-93 -130,-80 -86,11 -16,-93 97,-77 25,3 43,-7 68,-20 75,-40 210,-38 332,-31 133,8 147,33 188,-26 141,-206 479,-24 690,80 167,82 151,94 156,-52 2,-51 35,-80 90,-77 88,6 86,-18 11,-97zm12136 -1611c-31,15 -52,38 -71,93 -30,86 -47,46 -196,63 -51,6 -93,17 -134,41 -384,229 -310,366 -648,11 -12,-13 -35,-32 -76,-70 -181,-166 -78,-232 122,-245 115,-7 238,12 328,39 185,70 246,70 474,-17 138,-53 387,-8 201,85zm-1422 1364c-197,154 -553,94 -639,-52 -35,-60 7,-174 -11,-228 -66,-194 19,-261 -139,-301 -151,-39 -106,-71 -29,-92 105,-28 103,-15 135,-65 149,-231 272,89 317,162 67,109 86,83 50,204 -70,240 162,141 276,51 215,-168 83,-97 213,-248 123,-143 383,-159 537,-68 205,122 73,231 -139,224 -156,-6 -297,-16 -320,183 -14,168 -73,88 -181,165 -32,22 -55,54 -71,64zm1871 -657c-14,53 8,94 28,130 49,89 0,157 -83,175 21,29 -1,40 44,50 67,14 93,85 66,126 -4,-20 -51,-36 -148,-30 -273,15 -230,-8 -445,168 -438,359 -443,-147 -233,-277 85,-53 199,-68 314,-68 459,-3 265,-81 6,-72 -244,8 -266,-129 -116,-294 100,-110 225,-114 304,29 78,141 204,234 263,65zm-3527 -2517c-150,-68 -320,85 -74,190 78,33 180,51 273,65 347,54 243,106 -56,79 -320,-30 -482,434 -752,242 -207,-148 -154,66 -129,173 98,418 -283,84 -406,65 -904,-144 -504,110 -952,112 -120,1 -199,-12 -253,-26 -194,-51 -213,-14 -159,72 145,231 -37,96 -166,57 -73,-22 -211,-30 -550,23 -243,37 -186,56 -373,126 -296,110 -221,-174 -489,-3 -73,46 -125,91 -85,166 52,97 -51,62 -80,8 -67,-123 -112,-94 -160,2 -22,42 -32,30 -134,22 -74,-6 -128,9 -155,121 -11,49 6,88 18,176 13,103 -14,98 -12,179 6,244 -116,305 -175,95 -33,-119 -37,-197 -189,-45 -72,71 -76,80 -4,-89 24,-57 50,-96 132,-87 195,20 207,-327 48,-343 -25,-2 -44,-9 -115,-105 -112,-152 -166,-16 -235,-196 -8,-21 -17,-34 -28,-42 -207,-176 64,-163 106,-140 24,13 35,33 50,50 63,69 106,29 91,-66 -49,-308 167,-233 368,-151 143,59 162,11 275,202 138,232 492,-63 580,-345 153,-493 421,-77 322,47 -26,33 -61,53 -81,92 -47,95 22,158 69,94 29,-40 91,-27 160,-22 95,6 125,5 110,-101 -18,-133 79,-104 92,-18 34,238 253,40 312,6 80,-46 223,-74 462,32 249,110 332,54 382,-29 119,-195 342,-133 583,-100 236,33 358,28 460,-101 163,-207 192,-123 282,-184 87,-60 165,-172 222,-281 102,-191 316,-205 453,-73 138,131 78,106 -38,54zm-1313 2297c3,61 39,290 99,299 93,14 21,114 -12,157 -17,22 -27,34 -36,51 -57,104 10,109 -111,105 -20,-1 -30,8 -50,42 -39,68 -108,38 -121,-60 -24,-186 -139,-120 -162,-23 -26,110 -62,120 -92,4 -23,-91 45,-133 32,-249 -7,-62 -3,-488 87,-232 32,92 81,55 85,-45 4,-220 270,-301 281,-48zm-1553 -1024c-122,-7 -227,7 -41,112 102,57 24,35 3,156 -4,24 -9,60 -16,116 -19,160 -98,93 -298,206 -177,146 -98,234 -342,254 -84,7 -117,16 -137,187 -9,78 -30,52 -76,-115 -47,-171 -79,-443 140,-460 344,-27 129,-91 168,-178 78,-172 275,-82 149,-152 -108,-60 -236,-119 25,-201 67,-21 137,-31 194,-35 456,-26 528,129 230,112zm555 1221c-79,58 -216,194 72,269 36,9 164,2 115,121 -12,28 -14,57 -6,85 16,54 -22,41 -56,-20 -57,-101 -49,-64 -151,-94 -122,-36 -205,-107 -196,-260 3,-56 -9,-67 -72,-98 -38,-19 -61,-39 -103,-131 -23,-50 -54,-90 -84,-127 -113,-140 -158,-321 68,-294 79,9 115,-9 86,-52 -37,-56 87,-74 155,8 51,63 63,74 100,70 117,-13 91,-13 70,35 -35,80 -5,167 37,247 71,135 11,209 -34,242zm1604 -1235c153,138 263,-20 237,-192 -14,-93 -7,-71 126,-118 11,-4 21,-8 30,-13 39,-20 62,-47 34,-87 -67,-95 58,-187 146,-269 176,-166 362,-98 515,77 48,55 68,106 98,137 27,28 61,40 131,26 177,-37 133,-260 152,-411 23,-185 26,-182 7,-212 -102,-160 -1,-150 91,-259 22,-26 38,-44 52,-57 33,-31 234,-104 89,37 -25,24 -36,38 -64,136 -29,99 -76,161 -88,255 -9,65 3,172 28,274 37,145 104,58 105,305 0,58 44,88 126,138 66,40 179,19 80,162 -69,100 -207,157 -313,132 -95,-23 -60,-10 -207,73 -75,42 -159,55 -249,9 -71,-35 -81,-34 -109,-27 -61,15 -134,31 -175,-20 -101,-124 -54,11 -175,49 -163,51 -90,25 -151,135 -34,61 -92,38 -243,28 -89,-6 -146,-31 -277,-144 -75,-64 -125,-280 6,-163zm3531 -487l-32 -42c-111,-144 -164,-50 -264,-5 -47,21 -70,19 -96,18 -83,-3 -112,13 -128,51 -31,71 -80,115 -174,125 -94,3 -151,-38 -266,-170 -92,-106 -270,19 -361,-28 -60,-31 118,-100 -70,-212 -97,-47 -76,-106 -7,-126 56,-17 167,12 80,-71 -103,-99 153,-291 191,-107 22,108 49,210 141,254 109,53 138,38 56,142 -87,111 124,98 175,91 133,-16 285,-65 277,-175 -4,-50 -40,-77 -55,-132 -28,-101 3,-175 108,-197 134,-29 302,51 245,185 -34,80 -21,75 45,143 67,69 166,118 135,257zm-14403 -1406c-89,-57 -146,-120 -112,-212 37,-99 -203,-270 -282,-172 -14,17 -36,40 -91,66 -98,46 -178,30 -176,282 2,219 47,338 312,285 115,-23 229,-87 361,-125 55,-16 238,-94 54,-106 -18,-1 -39,0 -66,-17zm-1286 1431c38,30 46,41 -11,78 -90,58 48,163 133,188 64,19 95,57 -52,340 -82,158 -159,37 -172,276 -4,64 -21,110 44,170 86,79 164,72 -73,78 -77,2 -130,19 -151,109 -8,37 -24,38 -109,61 -72,20 -59,30 -50,168 19,296 63,234 309,357 225,112 236,69 337,-7 81,-61 156,-96 298,-94 98,1 128,4 36,-149 -135,-226 125,-479 335,-437 518,102 715,-139 701,497 -2,110 -27,163 -61,208 -94,125 -132,99 -97,254 17,75 19,139 -88,66 -42,-28 -37,-68 -25,-141 35,-205 44,-151 -52,-306 -123,-199 -37,-377 -318,-329 -242,42 -57,449 -481,461 -123,3 -208,4 -162,223 19,88 -24,70 -160,-1 -137,-72 -313,-134 -283,52 12,72 44,137 116,61 17,-18 31,-33 66,-36 27,-3 49,9 23,60 -37,74 -7,79 20,87 75,22 65,50 46,82 -20,33 -27,18 -125,55 -50,19 -125,32 -69,-40 114,-145 -212,-110 -290,-88 -47,14 -179,56 -118,-44 19,-31 55,-21 97,-43 82,-42 66,-58 6,-88 -84,-45 -71,-33 -81,-171 -6,-75 -51,-101 -87,-138 -81,-83 -152,-175 -169,-284 -41,-272 -186,-51 -357,-277 -155,-205 -84,-296 -287,-246 -29,7 -59,7 -97,-17 -58,-37 57,-28 118,-51 252,-95 -170,-318 219,-288 272,21 76,-268 -81,-330 -131,-51 137,-108 210,-257 87,-179 -90,-474 -210,-681 -79,-137 -157,-175 -100,-359 18,-58 72,-98 82,-179 7,-53 -92,-268 53,-87 93,116 79,160 217,144 382,-44 99,310 27,299 -86,-13 -43,7 53,115 240,269 180,-108 210,-302 12,-184 48,-153 -98,-239 -63,-37 -86,-71 -70,-199 15,-123 91,-111 248,36 173,163 150,163 203,351 71,253 397,184 550,253 42,19 52,38 67,58 83,114 98,1 174,-2 124,-6 87,-59 55,-198 -20,-85 -40,-157 -12,-233 41,-115 87,-65 60,-227 -28,-164 -116,-287 -37,-372 49,-53 49,-45 84,-167 30,-104 220,-78 333,-79 116,-1 220,30 334,143 49,49 57,64 59,116 6,107 13,115 73,139 219,89 237,186 226,273 -21,165 -113,210 -209,227 -187,31 -264,11 -335,111 -100,141 -42,142 -151,161 -153,26 -113,60 -166,215 -43,125 -156,139 -120,264 22,75 65,73 6,180 -64,116 110,211 138,265 72,138 -112,234 -138,166 -6,-17 -36,-53 -120,-5 -80,46 -169,-59 -172,-171 -5,-172 50,-216 -154,-246 -191,-28 -289,68 -172,161z"/>
  </g>
 </g>
</svg>
