<?xml version="1.0" encoding="UTF-8"?>
<!DOCTYPE svg PUBLIC "-//W3C//DTD SVG 1.1//EN" "http://www.w3.org/Graphics/SVG/1.1/DTD/svg11.dtd">
<!-- Creator: CorelDRAW 2017 -->
<svg xmlns="http://www.w3.org/2000/svg" xml:space="preserve" width="28.853mm" height="29.694mm" version="1.1" style="shape-rendering:geometricPrecision; text-rendering:geometricPrecision; image-rendering:optimizeQuality; fill-rule:evenodd; clip-rule:evenodd"
viewBox="0 0 2885 2969"
 xmlns:xlink="http://www.w3.org/1999/xlink">
 <defs>
  <style type="text/css">
   <![CDATA[
    .fil7 {fill:none}
    .fil2 {fill:black}
    .fil0 {fill:black}
    .fil3 {fill:#CFCFCF}
    .fil4 {fill:#E80303}
    .fil9 {fill:white}
    .fil5 {fill:white}
    .fil1 {fill:black;fill-rule:nonzero}
    .fil8 {fill:white;fill-rule:nonzero}
    .fil6 {fill:white;fill-rule:nonzero}
   ]]>
  </style>
 </defs>
 <g id="Layer_x0020_1">
  <metadata id="CorelCorpID_0Corel-Layer"/>
  <g id="_2648051978576">
   <path class="fil0" d="M439 501c228,-225 473,-346 547,-270l1827 1852c65,81 -59,318 -282,538 -223,220 -462,341 -542,275 -2,-1 -3,-3 -5,-5 -1,-2 -3,-3 -4,-5l-1818 -1842c-74,-75 50,-319 278,-544z"/>
   <path class="fil1" d="M399 460c118,-117 242,-207 346,-258 122,-60 225,-69 282,-12l0 0 1829 1855 1 2c48,60 34,162 -28,279 -53,102 -144,221 -259,335 -115,114 -236,202 -338,254 -118,60 -220,72 -279,24l0 0c-1,-1 -3,-2 -5,-4l0 0c-3,-2 -4,-4 -5,-4 0,0 -2,-2 -4,-5l0 0 -1818 -1842c-56,-57 -46,-161 15,-282 53,-103 145,-226 263,-342zm396 -156c-94,46 -207,129 -316,237 -110,108 -194,220 -242,313 -39,76 -54,132 -36,150l1819 1843 3 4c0,0 0,0 1,1 0,0 0,0 0,0l0 0 0 0c0,0 0,0 0,0l0 0 0 0 0 0c0,0 -1,-1 0,0 0,0 0,0 0,0l0 0c21,17 79,2 156,-37 92,-47 203,-128 310,-234 107,-106 190,-215 238,-307 39,-75 56,-132 40,-154l-1824 -1849 0 0c-18,-18 -74,-4 -150,34zm1229 2548l0 0 0 0zm0 0c0,0 0,0 0,0z"/>
   <path class="fil2" d="M397 440c204,-202 411,-323 462,-271 51,52 -73,257 -278,459 -204,202 -411,323 -462,271 -51,-52 73,-257 278,-459z"/>
   <path class="fil2" d="M397 440c204,-202 411,-323 462,-271 51,52 -73,257 -278,459 -204,202 -411,323 -462,271 -51,-52 73,-257 278,-459zm296 -218c-83,49 -184,129 -286,229 -101,100 -183,201 -232,283 -47,77 -65,135 -45,156 20,21 79,3 156,-43 83,-49 184,-129 286,-229 101,-100 183,-201 232,-283 47,-77 65,-135 45,-156 -20,-21 -79,-3 -156,43z"/>
   <path class="fil2" d="M386 431c223,-220 450,-352 506,-295 57,57 -78,282 -302,502 -223,220 -450,352 -506,295 -57,-57 78,-282 302,-502zm10 10c201,-199 412,-324 463,-272 51,52 -77,261 -278,459 -201,199 -411,322 -462,270 -51,-52 76,-259 277,-457z"/>
   <path class="fil2" d="M386 431c223,-220 450,-352 506,-295 57,57 -78,282 -302,502 -223,220 -450,352 -506,295 -57,-57 78,-282 302,-502zm10 10c201,-199 406,-318 457,-266 51,52 -71,255 -272,453 -201,199 -406,318 -457,266 -51,-52 71,-255 272,-453zm486 -295c-16,-16 -52,-12 -101,9 36,-9 65,-6 81,11 17,17 19,45 10,81 21,-49 26,-84 10,-101zm-788 777c16,16 52,12 101,-9 -36,9 -65,6 -81,-11 -17,-17 -19,-45 -10,-81 -21,49 -26,84 -10,101z"/>
   <path class="fil3" d="M280 320c177,-174 408,-227 516,-117 140,142 -501,771 -640,631 -108,-110 -53,-340 124,-514z"/>
   <path class="fil1" d="M273 312c90,-89 193,-146 289,-168 97,-22 185,-7 242,51 55,56 4,175 -91,297 -36,47 -78,94 -123,138 -45,45 -93,86 -140,122 -125,94 -246,144 -300,89 -57,-58 -71,-146 -48,-243 23,-95 82,-198 172,-286zm293 -147c-92,21 -192,76 -278,162 -87,86 -144,185 -166,276 -22,90 -9,171 42,223 45,46 156,-3 272,-91 46,-35 94,-76 138,-120 44,-44 86,-90 122,-136 88,-114 138,-223 92,-269 -51,-52 -133,-66 -222,-45z"/>
   <path class="fil1" d="M268 307c44,-44 92,-80 141,-108 51,-29 102,-50 151,-61 50,-11 99,-13 142,-4 42,9 78,28 107,57 28,28 31,71 15,122 -17,55 -55,119 -105,184 -18,23 -38,47 -58,70 -21,23 -43,47 -66,69 -23,23 -46,44 -70,65 -23,20 -47,40 -71,57 -67,50 -132,88 -188,104 -51,15 -94,12 -122,-16 -29,-29 -47,-66 -55,-108 -8,-43 -6,-91 6,-141 12,-49 33,-100 63,-150 29,-48 66,-96 110,-139zm148 -96c-48,28 -94,63 -138,106 -44,43 -80,89 -108,137 -29,49 -50,99 -61,146 -12,48 -14,94 -6,135 8,39 25,74 52,101 24,24 62,26 108,12 54,-16 118,-53 183,-102 23,-18 47,-37 70,-57 24,-21 47,-42 69,-64 23,-22 44,-45 65,-69 21,-23 40,-46 58,-69 50,-64 87,-127 103,-180 14,-46 12,-84 -12,-108 -27,-27 -61,-45 -100,-53 -41,-9 -87,-7 -136,4 -48,11 -98,31 -147,60zm152 -39c-46,10 -94,30 -142,57 -46,27 -91,61 -133,103 -42,42 -77,87 -105,132 -28,47 -48,95 -59,141 -11,45 -13,87 -6,125 7,36 22,67 46,92 19,20 53,20 94,6 49,-16 108,-52 169,-97 23,-17 46,-36 69,-56 23,-20 46,-41 68,-63 22,-22 44,-44 64,-67 20,-23 39,-45 57,-68 46,-60 82,-118 98,-166 14,-41 14,-74 -5,-94 -24,-25 -55,-40 -91,-47 -37,-8 -80,-6 -125,4zm-149 45c49,-28 98,-48 146,-59 47,-11 91,-12 131,-4 38,8 72,25 98,51 24,24 24,62 9,109 -17,50 -53,109 -100,170 -18,23 -37,46 -57,69 -21,23 -42,46 -65,68 -23,22 -46,44 -69,64 -23,20 -47,39 -70,57 -62,47 -123,83 -173,100 -47,16 -85,15 -109,-9 -26,-27 -43,-60 -50,-99 -8,-40 -5,-84 6,-131 11,-47 32,-96 61,-145 28,-47 64,-92 107,-135 43,-42 89,-78 136,-105z"/>
   <path class="fil1" d="M260 300c22,-22 45,-42 69,-60 24,-19 49,-35 74,-50 26,-15 52,-28 77,-38 26,-11 52,-19 77,-24 26,-6 51,-9 76,-10 24,-1 48,1 70,6 22,5 43,12 62,22 19,10 36,22 51,38 15,16 24,35 27,57 3,23 0,48 -9,76 -8,27 -22,57 -40,88 -18,32 -41,66 -68,100 -9,12 -18,23 -28,35 -10,12 -20,24 -30,35 -10,11 -21,23 -32,35 -11,12 -22,23 -34,35 -12,11 -23,23 -35,34 -12,11 -24,22 -36,32 -12,10 -24,20 -36,30 -12,10 -24,19 -36,28 -34,26 -69,49 -101,67 -31,18 -62,31 -89,39 -28,8 -53,11 -76,8 -22,-3 -42,-12 -57,-27 -15,-15 -27,-32 -37,-51 -10,-19 -17,-40 -21,-62 -4,-22 -6,-46 -5,-70 1,-25 5,-50 11,-76 6,-25 15,-51 25,-77 11,-25 24,-51 39,-77 15,-25 32,-50 51,-73 18,-23 39,-46 61,-68zm310 -117c-23,5 -46,12 -69,22 -23,9 -47,21 -70,34 -23,13 -45,28 -68,46 -22,17 -43,35 -63,56 -21,20 -39,41 -56,63 -18,22 -33,45 -47,67 -14,23 -26,46 -35,69 -10,23 -17,46 -23,69 -5,22 -8,43 -9,63 -1,20 0,39 4,57 3,17 9,33 16,48 7,14 16,27 27,38 7,8 18,11 30,12 15,1 33,-2 53,-9 23,-8 49,-20 76,-36 29,-17 59,-37 90,-60 11,-9 23,-17 34,-27 11,-9 23,-19 34,-29 12,-10 23,-21 34,-31 11,-11 23,-21 34,-32 11,-11 22,-22 33,-33 10,-11 21,-22 31,-34 10,-12 20,-23 29,-34 9,-11 18,-22 27,-34 23,-30 44,-60 61,-88 16,-27 28,-52 36,-74 7,-20 10,-37 9,-52 -1,-13 -5,-23 -12,-31 -11,-11 -24,-21 -38,-28 -15,-8 -31,-13 -48,-17 -18,-4 -37,-5 -57,-4 -20,1 -41,4 -63,8z"/>
   <path class="fil3" d="M406 465c190,-187 383,-299 432,-249 49,50 -65,242 -255,429 -190,187 -383,299 -432,249 -49,-50 65,-242 255,-429z"/>
   <path class="fil0" d="M73 909c0,0 1,23 22,52 21,30 -2,-19 -1,-25 1,-6 -21,-27 -21,-27z"/>
   <path class="fil0" d="M868 124c0,0 23,1 52,23 29,21 -19,-2 -25,-1 -6,1 -27,-21 -27,-21z"/>
   <path class="fil2" d="M908 139c5,2 9,5 13,7 4,3 8,6 11,9 41,42 30,126 -22,228 -50,98 -137,214 -250,325 -113,111 -230,197 -328,245 -103,51 -187,61 -228,19 -7,-7 -12,-15 -16,-24 -3,-7 0,-16 7,-19 4,-2 8,-2 11,0 34,11 101,-14 185,-66 86,-54 188,-135 290,-236 102,-100 185,-201 239,-287 54,-84 80,-151 69,-185 -2,-7 2,-15 9,-18 4,-1 7,-1 10,1l0 0z"/>
   <path class="fil3" d="M902 152c8,3 14,8 20,14 73,74 -49,312 -272,532 -223,220 -463,339 -536,265 -6,-6 -10,-12 -13,-20 76,26 284,-102 490,-305 206,-203 337,-410 311,-486z"/>
   <path class="fil1" d="M910 384c-50,98 -137,214 -250,325 -113,111 -230,197 -328,245 -70,34 -232,93 -258,-35l31 11c34,12 101,-13 186,-66 86,-54 188,-135 290,-236 102,-100 185,-201 239,-287 54,-84 80,-151 69,-185l-10 -31c123,36 85,154 31,258zm-25 -13c43,-83 57,-151 34,-186 -4,44 -31,104 -75,172 -56,87 -140,190 -243,292 -103,102 -207,185 -295,239 -69,43 -130,69 -173,72 35,23 103,10 187,-32 96,-47 210,-131 321,-240 110,-109 196,-222 244,-317z"/>
   <path class="fil3" d="M220 245c118,-116 248,-176 291,-132 43,43 -18,173 -136,289 -118,116 -248,176 -291,132 -43,-43 18,-173 136,-289z"/>
   <path class="fil2" d="M205 230c61,-60 125,-105 180,-130 61,-28 113,-31 141,-2 28,29 25,81 -4,141 -26,54 -72,118 -133,178 -61,60 -125,105 -180,130 -61,28 -113,31 -141,2 -28,-29 -25,-81 4,-141 26,-54 72,-118 133,-178zm15 15c118,-116 248,-176 291,-132 43,43 -18,173 -136,289 -118,116 -248,176 -291,132 -43,-43 18,-173 136,-289z"/>
   <path class="fil2" d="M205 230c30,-30 61,-56 91,-78 48,-35 118,-77 178,-79 26,-1 48,6 63,22 15,16 22,37 21,63 -3,60 -46,129 -82,177 -23,30 -49,61 -79,90 -30,30 -61,56 -91,78 -48,35 -118,77 -178,79 -26,1 -48,-6 -63,-22 -15,-16 -22,-37 -21,-63 3,-60 46,-129 82,-177 23,-30 49,-61 79,-90zm186 -113c130,-61 185,-3 123,126 -56,115 -326,406 -432,299 -27,-28 -25,-59 4,-119 63,-130 175,-244 305,-305z"/>
   <path class="fil1" d="M200 225c15,-15 30,-29 45,-42 16,-13 31,-26 47,-37 28,-20 62,-43 98,-59 28,-12 57,-21 83,-22 14,0 27,1 38,5 11,4 22,10 30,19 8,9 14,19 18,30 4,12 5,25 5,39 -1,27 -10,55 -23,83 -17,36 -40,70 -60,98 -12,15 -24,31 -38,46 -13,15 -27,30 -42,45 -15,15 -30,29 -45,42 -16,13 -31,26 -47,37 -28,20 -62,43 -98,59 -28,12 -57,21 -83,22 -14,0 -27,-1 -38,-5 -11,-4 -22,-10 -30,-19 -8,-9 -14,-19 -18,-30 -4,-12 -5,-25 -5,-39 1,-27 10,-55 23,-83 17,-36 40,-70 60,-98 12,-15 24,-31 38,-46 13,-15 27,-30 42,-45zm55 -31c-15,13 -30,26 -45,41 -15,15 -29,29 -42,44 -13,15 -26,30 -37,45 -20,27 -43,60 -59,95 -12,26 -21,53 -22,78 -1,12 1,23 4,33 3,9 8,18 15,25 7,7 15,12 24,15 10,3 21,5 33,4 13,0 26,-3 40,-7 -25,5 -48,4 -68,-5 -8,-4 -16,-10 -23,-17 -15,-15 -22,-32 -21,-53 1,-20 9,-44 24,-75 32,-66 77,-128 130,-182 52,-52 113,-96 178,-127 40,-19 73,-27 99,-25 18,1 32,7 43,18 10,10 16,25 17,43 1,26 -7,59 -26,100 -23,46 -79,121 -146,187 -29,29 -60,56 -91,78 6,-4 13,-9 19,-13 15,-11 31,-23 46,-36 15,-13 30,-27 45,-41 15,-15 29,-29 42,-44 13,-15 26,-30 37,-45 20,-27 43,-60 59,-95 12,-26 21,-53 22,-78 1,-12 -1,-24 -4,-33 -3,-9 -8,-18 -15,-25 -7,-7 -15,-12 -24,-15 -10,-3 -21,-5 -33,-4 -25,1 -52,9 -78,21 -35,16 -69,38 -96,57 -15,11 -31,23 -46,36zm231 -94c-23,-2 -54,6 -92,24 -64,30 -123,73 -174,124 -52,52 -96,113 -127,178 -14,29 -22,51 -23,69 -1,17 5,30 17,42 6,6 12,11 19,14 31,15 73,5 118,-19 46,-25 95,-65 140,-109 66,-65 121,-138 143,-183 18,-38 26,-69 25,-92 -1,-15 -5,-26 -13,-34 -8,-8 -19,-12 -33,-13z"/>
   <path class="fil2" d="M220 245c102,-101 218,-150 258,-109 40,41 -10,156 -113,257 -102,101 -218,150 -258,109 -40,-41 10,-156 113,-257z"/>
   <path class="fil3" d="M25 220l150 152c0,0 38,25 114,-54 76,-79 60,-107 50,-117 -10,-10 -168,-167 -168,-167 0,0 -13,-17 -57,34 -60,79 -29,52 -88,152z"/>
   <path class="fil1" d="M27 220l149 151c3,2 39,22 112,-53 38,-39 52,-66 57,-84 4,-17 -2,-27 -7,-31 -10,-10 -168,-167 -168,-167l0 0c0,0 -12,-16 -55,34 -34,44 -38,55 -47,74 -6,14 -15,34 -41,77zm147 153l-151 -153 1 -1c26,-44 34,-63 41,-77 8,-19 13,-30 47,-74l0 0c44,-52 59,-35 59,-34 3,3 159,158 168,167 5,5 12,15 7,34 -4,18 -19,45 -57,85 -76,80 -115,54 -115,54l0 0 0 0z"/>
   <path class="fil1" d="M352 199c11,11 9,32 -3,56 -11,21 -29,46 -53,69 -24,24 -49,42 -70,52 -24,12 -45,14 -56,3l-152 -154c-4,-4 -4,-10 -1,-14l75 -129c0,-1 1,-2 2,-2l0 0 64 -63c4,-4 11,-4 15,0l179 182zm-22 46c8,-16 11,-27 7,-31l-172 -174 -56 55 -71 122 146 148c4,4 16,1 32,-7 19,-9 42,-26 64,-48 22,-22 39,-45 49,-64z"/>
   <path class="fil2" d="M362 189c8,9 12,20 11,34 -2,38 -41,85 -68,112 -27,27 -75,65 -113,66 -13,1 -25,-3 -33,-12l-152 -154c-8,-9 -10,-22 -3,-32l73 -128 70 -69c5,-5 11,-7 18,-7l0 0c6,0 13,3 18,7l179 182zm-17 7c11,11 9,32 -3,56 -11,21 -28,44 -52,67 -24,24 -44,40 -65,50 -24,12 -38,14 -49,3l-146 -146c-4,-4 -8,-13 -5,-17l70 -122c5,-8 51,-53 62,-63 4,-4 13,-4 17,0l172 173z"/>
   <polygon class="fil4" points="149,115 184,81 262,161 228,195 "/>
   <path class="fil2" d="M137 67c0,0 -34,26 -5,57 21,23 86,87 119,120 33,33 25,41 -9,10 -39,-34 -138,-149 -184,-73 -25,41 -9,-9 14,-53 20,-37 46,-65 64,-62z"/>
   <path class="fil2" d="M58 182c0,0 -23,32 23,78 46,47 -12,0 -30,-19 -18,-19 -30,-27 7,-59z"/>
   <path class="fil2" d="M145 59c0,0 16,-23 42,3 26,27 -8,-20 -17,-29 -9,-9 -34,21 -25,25z"/>
   <path class="fil2" d="M122 560c154,113 501,-242 417,-400 -66,191 -221,343 -417,400z"/>
   <path class="fil2" d="M61 540c0,0 32,55 100,43 47,-9 -4,-21 -51,-31 -20,-4 -40,-12 -49,-12z"/>
   <path class="fil2" d="M234 813c-113,45 0,96 116,10 13,-9 -16,39 -67,68 -38,22 -93,29 -123,15 -69,-33 -54,-94 -21,-94 33,-1 104,1 95,2z"/>
   <path class="fil2" d="M204 941c-57,20 -23,40 41,18 44,-15 -34,48 -70,39 -36,-8 -59,-35 -57,-51 2,-15 78,-13 86,-7z"/>
   <path class="fil2" d="M517 90c0,0 53,35 39,103 -9,47 -21,-5 -30,-51 -4,-20 -10,-43 -9,-52z"/>
   <path class="fil2" d="M164 582c-11,3 -49,8 -43,123 6,115 -31,-99 8,-137 39,-38 49,9 36,14z"/>
   <path class="fil2" d="M93 468c0,0 0,-14 -9,-13 -8,1 -18,30 -14,46 3,16 -21,-22 4,-74 25,-51 53,-94 62,-89 2,1 8,2 7,7 -6,20 -43,70 -49,123z"/>
   <path class="fil2" d="M138 317c0,0 59,69 139,-4 80,-73 -19,49 -51,64 -32,15 -39,-2 -88,-60z"/>
   <path class="fil2" d="M403 127c-19,7 -26,-1 -3,-11 7,-3 -21,3 -53,22 -32,19 -37,23 -31,29 6,6 24,-12 44,-20 20,-8 49,-23 43,-21z"/>
   <path class="fil2" d="M218 820c0,0 81,-27 185,-119 42,-37 37,-50 2,-25 -61,43 -114,81 -190,100 -75,20 -87,-58 -85,-116 2,-58 -41,101 3,144 44,43 85,15 85,15z"/>
   <path class="fil2" d="M534 579c57,-45 109,-99 149,-161 28,-43 10,-41 -10,-15 -46,60 -91,112 -147,160 -36,31 -24,41 8,16z"/>
   <path class="fil2" d="M715 185c0,0 61,29 39,83 -22,55 9,14 21,-10 12,-24 29,-63 57,-47 13,7 12,-23 -11,-35 -29,-14 -84,-9 -107,8z"/>
   <path class="fil2" d="M899 254c21,-57 41,-23 17,41 -16,44 48,-33 40,-69 -8,-36 -35,-60 -50,-58 -15,2 -14,78 -8,86z"/>
   <path class="fil2" d="M905 205c2,87 -117,271 -298,450 -210,207 -425,331 -487,282l13 0c12,1 23,-1 34,-6 13,-6 26,-9 38,-18 5,-4 5,-2 11,-4 10,-3 16,-7 22,-10 4,0 8,0 12,-1 19,-1 36,-10 49,-23 0,0 0,0 1,-1 9,-1 17,-3 26,-8l55 -39c18,-10 24,-23 40,-33 14,-9 37,-38 46,-42 12,-7 18,-16 26,-22 11,-7 62,-60 76,-73l27 -26c3,-2 6,-5 9,-8 11,-3 23,-10 33,-20l48 -50 41 -44c12,-12 11,-16 17,-25 9,-12 16,-25 19,-38 16,-8 29,-22 37,-37l11 -16c8,-10 8,-16 15,-27l8 -15c8,-11 8,-19 10,-21l18 -29c10,-16 9,-16 15,-32l22 -42c4,-6 7,-14 9,-22z"/>
   <path class="fil5" d="M2004 2866l0 0 -1775 -1799 0 0c-7,-7 -18,-7 -25,0 -7,7 -7,18 0,25l1775 1799c38,39 120,28 220,-22 99,-49 218,-136 332,-248 114,-113 202,-230 253,-329 51,-100 63,-181 25,-220l-34 -35c-7,-7 -18,-7 -25,0 -7,7 -7,18 0,25l34 35c13,13 16,35 11,64 -5,31 -20,70 -42,114 -25,49 -59,102 -102,157 -41,53 -90,108 -144,162 -55,54 -110,102 -164,142 -56,42 -110,76 -159,100 -44,22 -84,36 -115,41 -29,5 -52,1 -64,-12z"/>
   <path class="fil6" d="M333 1025c-22,9 -42,17 -65,23 0,0 0,0 0,0 0,0 0,0 0,0 -14,4 -27,6 -42,10 -9,2 -21,5 -20,16 1,11 13,11 22,11 14,1 34,-2 47,-5 0,0 0,0 1,0 0,0 0,0 1,0 22,-6 49,-18 68,-29 7,-4 46,-24 41,-35 -6,-10 -45,8 -52,11z"/>
   <path class="fil4" d="M905 927c81,-80 212,-79 293,2 80,81 79,212 -2,293 -81,80 -212,79 -293,-2 -80,-81 -79,-212 2,-293z"/>
   <path class="fil6" d="M2679 2241c-68,115 -150,212 -245,305 -4,4 -9,8 -13,12 -1,1 -2,2 -3,3 -1,1 -2,2 -3,3 -64,60 -126,111 -199,159 -54,34 -226,130 -281,75 -10,-11 -4,38 -5,41 1,7 89,44 76,31 -14,-14 -1,-21 26,-31 76,-26 131,-48 200,-91 75,-48 140,-100 205,-161 1,-1 2,-2 3,-3 1,-1 2,-2 3,-2 4,-4 9,-8 13,-13 95,-94 182,-198 246,-315 17,-33 33,-65 42,-102 2,-3 12,-52 3,-53 -6,0 -19,41 -21,47 -14,34 -29,63 -48,94z"/>
   <g>
    <path class="fil5" d="M1746 2302c98,-67 160,-111 198,-139 15,-21 46,-43 50,-43l72 0c3,0 -9,11 -50,43 -4,5 -7,10 -8,15 -13,47 25,93 67,112 21,-16 30,-52 10,-117 -44,-141 -44,-197 -9,-196l72 0c31,0 89,44 168,109 4,4 8,7 11,10l45 0c-10,7 -23,4 -39,6 36,42 11,80 -21,80l-72 0c-16,0 -33,-9 -47,-29 28,-39 50,-48 68,-51 -5,-6 -10,-11 -17,-17 -48,-39 -88,-71 -119,-90 -7,27 3,83 32,177 29,93 -1,127 -42,126l-72 0c-41,0 -92,-35 -107,-79 -32,23 -71,50 -119,82l-72 0zm528 -137c4,-7 6,-17 5,-27 -4,5 -9,10 -13,17 3,4 5,7 8,10z"/>
   </g>
   <path class="fil7" d="M1782 2302c395,-267 204,-175 190,-124 -31,110 216,210 149,-4 -83,-267 -10,-227 159,-87 84,69 -4,138 -51,68 52,-73 86,-41 107,-57"/>
   <g>
    <path class="fil5" d="M2112 1876c-55,52 -108,104 -161,156l14 12 8 0c-2,2 -2,3 -3,3l-34 0c-40,39 -79,78 -119,117l-72 0c54,-53 -24,-204 6,-204l72 0 7 2c53,23 61,23 82,38 42,-41 85,-83 129,-124l72 0zm-295 111c4,22 13,56 17,88 15,-15 30,-29 45,-44 -36,-30 -46,-37 -62,-45z"/>
   </g>
   <path class="fil7" d="M2076 1876c-101,96 -196,190 -295,288 57,-56 -34,-223 12,-202 81,36 57,15 137,82 5,4 4,4 7,0"/>
   <g>
    <path class="fil5" d="M1966 1755c-5,5 -31,31 -64,63 1,23 1,42 0,53 -1,16 -7,22 -16,22l-63 0c-53,48 -107,92 -132,96l-72 0c23,-50 8,-179 -1,-235l72 0c29,3 76,47 117,85 8,-7 15,-15 22,-21 -3,-90 -18,-248 -31,-272 -4,-7 -7,-14 -7,-22l72 0c0,8 4,15 7,22 10,19 21,122 27,208l67 0zm-269 49c5,41 8,91 5,131 23,-19 48,-41 72,-64 -23,-18 -50,-44 -77,-68z"/>
   </g>
   <path class="fil7" d="M1930 1754c-16,15 -218,224 -275,234 23,-50 8,-179 -1,-235 63,6 204,204 212,117 4,-53 -15,-295 -31,-325 -4,-7 -7,-14 -7,-22"/>
   <g>
    <path class="fil5" d="M1779 1596c-46,29 -86,55 -121,77 8,18 17,38 27,60 4,9 28,45 24,45l0 0 -72 0c-1,0 -4,-2 -10,-8l7 0c-6,-11 -19,-30 -21,-36 -4,-8 -8,-16 -11,-24 -101,64 -148,91 -162,91l-72 0c-30,0 95,-129 172,-303 2,-14 7,-17 7,-17l72 0 0 0c-2,6 -5,12 -7,17 -3,19 0,59 31,139l63 -41 72 0zm-220 5c-37,64 -75,116 -99,151 32,-20 74,-46 126,-79 -12,-28 -20,-51 -27,-72z"/>
   </g>
   <path class="fil7" d="M1743 1596c-571,364 -286,188 -159,-116 0,-1 -43,24 65,254 5,11 42,65 14,36"/>
   <g>
    <path class="fil5" d="M1279 1731l63 -210c4,-14 8,-25 11,-35 -27,11 -61,25 -105,40 -16,5 -33,10 -47,19l-72 0c14,-9 31,-13 47,-19 124,-41 172,-73 184,-73l72 0c9,0 -3,19 -18,69l-63 210 -72 0z"/>
   </g>
   <path class="fil7" d="M1315 1731l63 -210c34,-113 55,-69 -166,4 -16,5 -33,10 -47,19"/>
   <g>
    <path class="fil5" d="M1321 1482c1,-1 209,-184 210,-184l72 0c-1,1 -209,184 -210,184l-72 0z"/>
   </g>
   <path class="fil7" d="M1357 1482c1,-1 209,-184 210,-184"/>
   <path class="fil8" d="M958 415c-36,73 -74,131 -124,196 -14,18 -28,35 -43,52 -1,1 -1,1 -1,2 -1,1 -1,1 -2,2 -63,73 -129,135 -204,196 -10,8 -117,86 -112,99 10,16 125,-67 133,-72 76,-56 151,-125 213,-197 1,-1 1,-1 2,-2 1,-1 1,-1 2,-2 15,-18 30,-36 44,-54 49,-65 91,-130 123,-206 4,-9 43,-107 21,-114 -12,-1 -46,89 -51,101z"/>
   <path class="fil5" d="M1019 349c-13,25 -6,62 46,122 26,30 67,72 128,134 183,185 117,162 21,70 -96,-92 -218,-206 -319,-82 -68,84 -6,-16 52,-116 13,-21 31,-81 43,-103 14,-27 18,-25 29,-23z"/>
   <path class="fil9" d="M1398 842c24,-24 214,182 457,429 243,246 448,435 423,463 -26,28 -214,-182 -457,-429 -243,-246 -447,-439 -423,-463z"/>
   <path class="fil5" d="M2783 2097l0 0 -1775 -1799 0 0c-7,-7 -7,-18 0,-25 7,-7 18,-7 25,0l1775 1799c38,39 26,120 -25,220 -50,99 -139,216 -253,329 -114,113 -233,199 -332,248 -100,50 -182,61 -220,22l-34 -35c-7,-7 -7,-18 0,-25 7,-7 18,-7 25,0l34 35c13,13 35,16 64,12 31,-5 71,-19 115,-41 49,-24 103,-58 159,-100 54,-40 109,-88 164,-142 55,-54 103,-109 144,-162 43,-55 77,-109 102,-157 22,-44 37,-83 42,-114 5,-29 2,-52 -11,-64z"/>
   <path class="fil6" d="M967 397c9,-22 17,-42 23,-65 0,0 0,0 0,0 0,0 0,0 0,0 4,-14 7,-27 10,-42 2,-8 5,-20 16,-19 10,2 11,14 11,22 0,7 86,112 55,81 -69,-69 -63,-14 -91,35 -4,7 -24,46 -36,41 -10,-6 9,-45 12,-52z"/>
   <path class="fil8" d="M260 632c-38,17 -84,37 -87,8 -2,-18 -12,-32 -19,12 -3,23 -4,63 14,82 7,7 15,10 25,12 82,12 267,-157 319,-216 78,-95 56,-115 -24,-24 -41,43 -173,177 -287,207 -19,1 -25,-11 -7,-17 35,-13 49,-18 80,-40 32,-24 24,-39 -13,-24z"/>
  </g>
 </g>
</svg>
